<?xml version="1.0" encoding="utf-8"?>

<svg width="356" height="90" viewBox="0 0 356 90" class="css-1j8o68f" xmlns="http://www.w3.org/2000/svg" xmlns:xlink="http://www.w3.org/1999/xlink">
<defs id="SvgjsDefs3287"></defs>
<g id="SvgjsG3288" featurekey="symbolFeature-0" transform="matrix(1.2626263112781528,0,0,1.2626263112781528,-6.8181815992483115,-11.835558701931681)" fill="#5267DF">
<g xmlns="http://www.w3.org/2000/svg"><path d="M84.6,41.2c0-5.5-3.3-10.2-7.7-11.2V14.4c0-5.6-2.6-5.9-4.5-3.9C66.8,16.4,61,26,42.8,28.7v24.5C61,56,66.8,65.6,72.3,71.5   c1.9,2.1,4.5,1.8,4.5-3.9V52.4C81.3,51.3,84.6,46.7,84.6,41.2z M76.9,50.7V31.6c3.5,1.1,6.1,4.9,6.1,9.5S80.4,49.7,76.9,50.7z"></path><path d="M16.8,29.5c-6.3,0-11.4,5.2-11.4,11.5v0.1c0,5.1,3.3,9.5,8,11L20,75.3c1.2,3.6,3,5.3,5.5,5.3c0.8,0,1.6-0.2,2.5-0.4l2.7-1   c2.6-1,6.4-2.4,4.7-7.3c-0.4-1-1.1-2.3-1.8-3.7c-1.2-2.1-2.6-4.8-2.5-6.2c0.1-0.7,1.2-2.3,1.9-3.2c0.2-0.3,0.3-0.7,0.1-1l-3.4-5.3   c0,0,2.2,0,2.2,0c3.3,0,6.5,0.2,9.3,0.5V28.9c-2.8,0.3-6.1,0.5-9.3,0.5C29.5,29.5,16.8,29.5,16.8,29.5z M31.3,58.3   c-0.7,0.8-1.8,2.5-1.9,3.7c-0.2,1.9,1.3,4.6,2.7,7.1c0.7,1.3,1.4,2.5,1.7,3.4c1.1,3.3-0.7,4.1-3.7,5.3l-2.7,0.9   c-2.6,0.8-4.5,0.5-5.9-3.8l-6.4-22.4c0.5,0.1,1.1,0.1,1.7,0.1h10.8L31.3,58.3z M30.2,51H16.8C11.4,51,7,46.5,7,41s4.4-10,9.8-10   h13.4V51z"></path></g></g><g id="SvgjsG3289" featurekey="textGroupContainer" transform="matrix(1,0,0,1,355,4)" fill="#FA5959"><rect xmlns="http://www.w3.org/2000/svg" y="0" height="1" width="1" opacity="0"></rect><rect xmlns="http://www.w3.org/2000/svg" y="0" x="-235" width="3" height="82"></rect></g>
<g id="SvgjsG3290" featurekey="name-0" transform="matrix(0.8255252778696973,0,0,0.8255252778696973,136.74520080610145,16.117347821174313)" fill="#5267DF">
<path d="M15.56 10.760000000000002 c4.2132 0 7.6068 1.4 10.18 4.2 s3.86 6.4268 3.86 10.88 c0 4.3468 -1.2933 7.9068 -3.88 10.68 s-5.9732 4.16 -10.16 4.16 c-4.2132 0 -7.6068 -1.3867 -10.18 -4.16 s-3.86 -6.3332 -3.86 -10.68 c0 -4.4268 1.2933 -8.0468 3.88 -10.86 s5.9732 -4.22 10.16 -4.22 z M7.8 25.84 c0 2.88 0.67996 5.1932 2.04 6.94 s3.2667 2.62 5.72 2.62 c2.4 0 4.2932 -0.86 5.68 -2.58 s2.08 -4.0468 2.08 -6.98 c0 -3.0667 -0.68668 -5.4668 -2.06 -7.2 s-3.2866 -2.6 -5.74 -2.6 c-2.4 0 -4.2868 0.86668 -5.66 2.6 s-2.06 4.1332 -2.06 7.2 z M44.57 11.440000000000001 l-0.000039062 17.88 c0 2.1067 0.47332 3.6467 1.42 4.62 s2.4334 1.46 4.46 1.46 c2.1867 0 3.72 -0.48668 4.6 -1.46 s1.32 -2.5133 1.32 -4.62 l0 -17.88 l6.28 0 l0 17.88 c0 3.5733 -1.02 6.36 -3.06 8.36 s-5.0868 3 -9.14 3 c-4.1332 0 -7.1932 -1 -9.18 -3 s-2.98 -4.7868 -2.98 -8.36 l0 -17.88 l6.28 0 z M87.97999999999999 11.440000000000001 c2.4 0 4.3936 0.74 5.98 2.22 s2.38 3.3667 2.38 5.66 c0 3.5733 -1.5067 5.96 -4.52 7.16 l0 0.08 c1.0133 0.29332 1.8066 0.78 2.38 1.46 s1.0066 1.4733 1.3 2.38 s0.48 2.36 0.56 4.36 c0.10668 2.6133 0.48 4.36 1.12 5.24 l-6.28 0 c-0.34668 -0.88 -0.61336 -2.5333 -0.80004 -4.96 c-0.21332 -2.56 -0.68 -4.2332 -1.4 -5.02 s-1.8933 -1.18 -3.52 -1.18 l-6.32 0 l0 11.16 l-6.28 0 l0 -28.56 l15.4 0 z M85.78 24.36 c1.3333 0 2.38 -0.3 3.14 -0.9 s1.14 -1.66 1.14 -3.18 c0 -1.44 -0.37332 -2.46 -1.12 -3.06 s-1.8134 -0.9 -3.2 -0.9 l-6.88 0 l0 8.04 l6.92 0 z M109.62999999999998 11.440000000000001 l6.36 20.08 l0.08 0 l6.44 -20.08 l6.48 0 l-9.48 28.56 l-7.08 0 l-9.28 -28.56 l6.48 0 z M148.76 10.760000000000002 c4.2132 0 7.6068 1.4 10.18 4.2 s3.86 6.4268 3.86 10.88 c0 4.3468 -1.2933 7.9068 -3.88 10.68 s-5.9732 4.16 -10.16 4.16 c-4.2132 0 -7.6068 -1.3867 -10.18 -4.16 s-3.86 -6.3332 -3.86 -10.68 c0 -4.4268 1.2933 -8.0468 3.88 -10.86 s5.9732 -4.22 10.16 -4.22 z M141 25.84 c0 2.88 0.67996 5.1932 2.04 6.94 s3.2667 2.62 5.72 2.62 c2.4 0 4.2932 -0.86 5.68 -2.58 s2.08 -4.0468 2.08 -6.98 c0 -3.0667 -0.68668 -5.4668 -2.06 -7.2 s-3.2866 -2.6 -5.74 -2.6 c-2.4 0 -4.2868 0.86668 -5.66 2.6 s-2.06 4.1332 -2.06 7.2 z M177.89 11.440000000000001 l0 28.56 l-6.28 0 l0 -28.56 l6.28 0 z M200.74 10.760000000000002 c3.3333 0 6.1332 0.94 8.4 2.82 s3.5734 4.3668 3.92 7.46 l-6.08 0 c-0.21332 -1.4133 -0.92 -2.6 -2.12 -3.56 s-2.5733 -1.44 -4.12 -1.44 c-2.4533 0 -4.36 0.88 -5.72 2.64 s-2.04 4.1468 -2.04 7.16 c0 2.9333 0.68668 5.26 2.06 6.98 s3.2733 2.58 5.7 2.58 c1.8133 0 3.28 -0.55332 4.4 -1.66 s1.8133 -2.6867 2.08 -4.74 l6.08 0 c-0.32 3.6267 -1.62 6.48 -3.9 8.56 s-5.1668 3.12 -8.66 3.12 c-4.1868 0 -7.5732 -1.38 -10.16 -4.14 s-3.88 -6.3268 -3.88 -10.7 c0 -4.4268 1.28 -8.0468 3.84 -10.86 s5.96 -4.22 10.2 -4.22 z M243.47000000000003 11.440000000000001 l0 5.28 l-15.08 0 l0 6.12 l13.84 0 l0 4.88 l-13.84 0 l0 7 l15.4 0 l0 5.28 l-21.68 0 l0 -28.56 l21.36 0 z"></path>
</g>
<g id="SvgjsG3290" featurekey="name-1" transform="matrix(0.8255252778696973,0,0,0.8255252778696973,136.74520080610145,16.117347821174313)" fill="#FA5959">
<path d="M109.62999999999998 11.440000000000001 l6.36 20.08 l0.08 0 l6.44 -20.08 l6.48 0 l-9.48 28.56 l-7.08 0 l-9.28 -28.56 l6.48 0 z M148.76 10.760000000000002 c4.2132 0 7.6068 1.4 10.18 4.2 s3.86 6.4268 3.86 10.88 c0 4.3468 -1.2933 7.9068 -3.88 10.68 s-5.9732 4.16 -10.16 4.16 c-4.2132 0 -7.6068 -1.3867 -10.18 -4.16 s-3.86 -6.3332 -3.86 -10.68 c0 -4.4268 1.2933 -8.0468 3.88 -10.86 s5.9732 -4.22 10.16 -4.22 z M141 25.84 c0 2.88 0.67996 5.1932 2.04 6.94 s3.2667 2.62 5.72 2.62 c2.4 0 4.2932 -0.86 5.68 -2.58 s2.08 -4.0468 2.08 -6.98 c0 -3.0667 -0.68668 -5.4668 -2.06 -7.2 s-3.2866 -2.6 -5.74 -2.6 c-2.4 0 -4.2868 0.86668 -5.66 2.6 s-2.06 4.1332 -2.06 7.2 z M177.89 11.440000000000001 l0 28.56 l-6.28 0 l0 -28.56 l6.28 0 z M200.74 10.760000000000002 c3.3333 0 6.1332 0.94 8.4 2.82 s3.5734 4.3668 3.92 7.46 l-6.08 0 c-0.21332 -1.4133 -0.92 -2.6 -2.12 -3.56 s-2.5733 -1.44 -4.12 -1.44 c-2.4533 0 -4.36 0.88 -5.72 2.64 s-2.04 4.1468 -2.04 7.16 c0 2.9333 0.68668 5.26 2.06 6.98 s3.2733 2.58 5.7 2.58 c1.8133 0 3.28 -0.55332 4.4 -1.66 s1.8133 -2.6867 2.08 -4.74 l6.08 0 c-0.32 3.6267 -1.62 6.48 -3.9 8.56 s-5.1668 3.12 -8.66 3.12 c-4.1868 0 -7.5732 -1.38 -10.16 -4.14 s-3.88 -6.3268 -3.88 -10.7 c0 -4.4268 1.28 -8.0468 3.84 -10.86 s5.96 -4.22 10.2 -4.22 z M243.47000000000003 11.440000000000001 l0 5.28 l-15.08 0 l0 6.12 l13.84 0 l0 4.88 l-13.84 0 l0 7 l15.4 0 l0 5.28 l-21.68 0 l0 -28.56 l21.36 0 z"></path>
</g>
<g id="SvgjsG3291" featurekey="slogan-0" transform="matrix(0.37105750341022603,0,0,0.37105750341022603,137.1836735632711,58.278294118388104)" fill="#5267DF"><path d="M12.66 20 l-10.46 0 l0 -14.92 l2.18 0 l0 12.74 l8.28 0 l0 2.18 z M17.44 14.02 l0 3.8 l9.2 0 l0 2.18 l-11.38 0 l0 -14.92 l10.5 0 l0 2.2 l-8.32 0 l0 4.52 q0.62 -0.36 1.38 -0.48 q0.56 -0.1 1.44 -0.1 l3.26 0 l0 2.22 l-3.26 0 q-0.82 0 -1.44 0.1 q-0.76 0.14 -1.38 0.48 z M43.54 5.08 l-6.26 14.92 l-2.58 0 l-6.16 -14.92 l2.36 0 l5.1 12.48 l5.14 -12.48 l2.4 0 z M48.52 14.02 l0 3.8 l9.2 0 l0 2.18 l-11.38 0 l0 -14.92 l10.5 0 l0 2.2 l-8.32 0 l0 4.52 q0.62 -0.36 1.38 -0.48 q0.56 -0.1 1.44 -0.1 l3.26 0 l0 2.22 l-3.26 0 q-0.82 0 -1.44 0.1 q-0.76 0.14 -1.38 0.48 z M63.400000000000006 7.26 l0 4.96 q0.62 -0.36 1.38 -0.48 q0.56 -0.1 1.44 -0.1 l2.84 0 q1.18 0 1.84 -0.54 q0.7 -0.58 0.7 -1.74 q0 -1.1 -0.74 -1.64 q-0.64 -0.46 -1.8 -0.46 l-5.66 0 z M69.78 17.64 l-1.82 -3.82 l-1.74 0 q-0.82 0 -1.44 0.1 q-0.76 0.14 -1.38 0.48 l0 5.6 l-2.18 0 l0 -14.92 l7.84 0 q1.38 0 2.44 0.52 t1.64 1.48 q0.62 1.02 0.62 2.4 q0 1.68 -0.9 2.76 t-2.54 1.5 l1.16 2.38 q0.5 0.74 0.78 1.04 q0.34 0.38 0.65 0.51 t0.81 0.13 l0.22 0 l0.48 -0.02 l0 2.22 q-1.16 0 -1.72 -0.08 q-0.94 -0.16 -1.6 -0.62 q-0.78 -0.56 -1.32 -1.66 z M82.68 6.66 l-0.82 -1.84 l2.4 0 l7.18 15.18 l-2.44 0 l-0.98 -2.18 l-4.54 0 q-1.28 0 -2.3 0.24 q-0.9 0.22 -1.5 0.58 q-0.54 0.32 -0.72 0.66 l-0.38 0.7 l-2.36 0 z M84.28 15.620000000000001 l2.76 0 l-3.26 -6.3 l-3.3 7.14 q0.44 -0.38 1.34 -0.6 q1.02 -0.24 2.46 -0.24 z M107.02000000000001 7 l-1.4 1.64 q-0.82 -0.84 -1.96 -1.32 t-2.4 -0.48 q-1.64 0 -2.99 0.74 t-2.11 2.02 q-0.78 1.34 -0.78 2.98 q0 1.56 0.84 2.88 q0.8 1.24 2.15 1.97 t2.91 0.73 q1.1 0 2.11 -0.38 t1.81 -1.06 l0 -2.72 l-1.92 0 l-0.94 -2.16 l5.02 0 l0 5.8 q-1.14 1.28 -2.73 1.99 t-3.37 0.71 q-2.22 0 -4.08 -1.08 q-1.82 -1.04 -2.86 -2.86 q-1.08 -1.86 -1.08 -4.08 q0 -2.14 1.14 -3.94 q1.08 -1.72 2.93 -2.73 t3.97 -1.01 q1.66 0 3.16 0.64 q1.46 0.6 2.58 1.72 z M113.20000000000002 20 l-2.14 0 l0 -14.92 l2.14 0 l0 14.92 z M118.04000000000002 7.18 l-1.74 -2.1 l2.82 0 l9.58 11.4 l0 -11.4 l2.2 0 l0 14.92 l-2.16 0 l-8.56 -10.26 l0 10.26 l-2.14 0 l0 -12.82 z M148.08 7 l-1.4 1.64 q-0.82 -0.84 -1.96 -1.32 t-2.4 -0.48 q-1.64 0 -2.99 0.74 t-2.11 2.02 q-0.78 1.34 -0.78 2.98 q0 1.56 0.84 2.88 q0.8 1.24 2.15 1.97 t2.91 0.73 q1.1 0 2.11 -0.38 t1.81 -1.06 l0 -2.72 l-1.92 0 l-0.94 -2.16 l5.02 0 l0 5.8 q-1.14 1.28 -2.73 1.99 t-3.37 0.71 q-2.22 0 -4.08 -1.08 q-1.82 -1.04 -2.86 -2.86 q-1.08 -1.86 -1.08 -4.08 q0 -2.14 1.14 -3.94 q1.08 -1.72 2.93 -2.73 t3.97 -1.01 q1.66 0 3.16 0.64 q1.46 0.6 2.58 1.72 z M159.72 14.02 l0 3.8 l9.2 0 l0 2.18 l-11.38 0 l0 -14.92 l10.5 0 l0 2.2 l-8.32 0 l0 4.52 q0.62 -0.36 1.38 -0.48 q0.56 -0.1 1.44 -0.1 l3.26 0 l0 2.22 l-3.26 0 q-0.82 0 -1.44 0.1 q-0.76 0.14 -1.38 0.48 z M185.16 9.74 l-5.1 6.1 l-5.06 -6.1 l0 10.26 l-2.14 0 l0 -12.82 l-1.74 -2.1 l2.82 0 l6.1 7.32 l6.18 -7.32 l2.82 0 l-1.74 2.1 l0 12.82 l-2.14 0 l0 -10.26 z M197.16 11.46 l2.64 0 q2.2 0 2.2 -2.12 q0 -1.1 -0.55 -1.59 t-1.65 -0.49 l-5.48 0 l0 4.8 q0.62 -0.36 1.4 -0.5 q0.58 -0.1 1.44 -0.1 z M194.32 20 l-2.18 0 l0 -14.92 l7.66 0 q1.32 0 2.3 0.51 t1.52 1.47 t0.54 2.27 t-0.54 2.29 t-1.53 1.51 t-2.29 0.53 l-2.64 0 q-1.72 0 -2.84 0.6 l0 5.74 z M217.82 20 l-10.46 0 l0 -14.92 l2.18 0 l0 12.74 l8.28 0 l0 2.18 z M233.32 12.440000000000001 q0 -1.6 -0.82 -2.9 q-0.78 -1.26 -2.13 -1.98 t-2.93 -0.72 q-1.64 0 -2.99 0.74 t-2.11 2.02 q-0.78 1.34 -0.78 2.98 q0 1.56 0.84 2.88 q0.8 1.24 2.15 1.97 t2.92 0.73 t2.92 -0.76 t2.13 -2.04 q0.8 -1.34 0.8 -2.92 z M235.48 12.559999999999999 q0 2.16 -1.12 3.98 q-1.08 1.74 -2.93 2.77 t-3.99 1.03 q-2.22 0 -4.08 -1.08 q-1.82 -1.04 -2.86 -2.86 q-1.08 -1.86 -1.08 -4.08 q0 -2.14 1.14 -3.94 q1.08 -1.72 2.93 -2.73 t3.97 -1.01 q2.18 0 4.04 1.06 q1.82 1.04 2.88 2.82 q1.1 1.86 1.1 4.04 z M243.82 11.64 q1.34 -1.4 2.42 -3.12 t1.72 -3.44 l2.5 0 q-1.02 2.38 -2.48 4.56 q-1.32 1.98 -3.08 3.9 l0 6.46 l-2.16 0 l0 -6.46 q-1.76 -1.92 -3.08 -3.9 q-1.46 -2.18 -2.48 -4.56 l2.5 0 q0.64 1.72 1.72 3.44 t2.42 3.12 z M255.34 14.02 l0 3.8 l9.2 0 l0 2.18 l-11.38 0 l0 -14.92 l10.5 0 l0 2.2 l-8.32 0 l0 4.52 q0.62 -0.36 1.38 -0.48 q0.56 -0.1 1.44 -0.1 l3.26 0 l0 2.22 l-3.26 0 q-0.82 0 -1.44 0.1 q-0.76 0.14 -1.38 0.48 z M270.22 14.02 l0 3.8 l9.2 0 l0 2.18 l-11.38 0 l0 -14.92 l10.5 0 l0 2.2 l-8.32 0 l0 4.52 q0.62 -0.36 1.38 -0.48 q0.56 -0.1 1.44 -0.1 l3.26 0 l0 2.22 l-3.26 0 q-0.82 0 -1.44 0.1 q-0.76 0.14 -1.38 0.48 z M290.52000000000004 14.02 l0 3.8 l9.2 0 l0 2.18 l-11.38 0 l0 -14.92 l10.5 0 l0 2.2 l-8.32 0 l0 4.52 q0.62 -0.36 1.38 -0.48 q0.56 -0.1 1.44 -0.1 l3.26 0 l0 2.22 l-3.26 0 q-0.82 0 -1.44 0.1 q-0.76 0.14 -1.38 0.48 z M316.68000000000006 20 l-2.76 0 l-4.58 -6.28 l-4.74 6.28 l-2.78 0 l6.12 -8.1 l-4.92 -6.82 l2.64 0 l3.68 4.98 l3.74 -4.98 l2.7 0 l-5.06 6.82 z M324.70000000000005 11.46 l2.64 0 q2.2 0 2.2 -2.12 q0 -1.1 -0.55 -1.59 t-1.65 -0.49 l-5.48 0 l0 4.8 q0.62 -0.36 1.4 -0.5 q0.58 -0.1 1.44 -0.1 z M321.86 20 l-2.18 0 l0 -14.92 l7.66 0 q1.32 0 2.3 0.51 t1.52 1.47 t0.54 2.27 t-0.54 2.29 t-1.53 1.51 t-2.29 0.53 l-2.64 0 q-1.72 0 -2.84 0.6 l0 5.74 z M337.08000000000004 14.02 l0 3.8 l9.2 0 l0 2.18 l-11.38 0 l0 -14.92 l10.5 0 l0 2.2 l-8.32 0 l0 4.52 q0.62 -0.36 1.38 -0.48 q0.56 -0.1 1.44 -0.1 l3.26 0 l0 2.22 l-3.26 0 q-0.82 0 -1.44 0.1 q-0.76 0.14 -1.38 0.48 z M351.96000000000004 7.26 l0 4.96 q0.62 -0.36 1.38 -0.48 q0.56 -0.1 1.44 -0.1 l2.84 0 q1.18 0 1.84 -0.54 q0.7 -0.58 0.7 -1.74 q0 -1.1 -0.74 -1.64 q-0.64 -0.46 -1.8 -0.46 l-5.66 0 z M358.34000000000003 17.64 l-1.82 -3.82 l-1.74 0 q-0.82 0 -1.44 0.1 q-0.76 0.14 -1.38 0.48 l0 5.6 l-2.18 0 l0 -14.92 l7.84 0 q1.38 0 2.44 0.52 t1.64 1.48 q0.62 1.02 0.62 2.4 q0 1.68 -0.9 2.76 t-2.54 1.5 l1.16 2.38 q0.5 0.74 0.78 1.04 q0.34 0.38 0.65 0.51 t0.81 0.13 l0.22 0 l0.48 -0.02 l0 2.22 q-1.16 0 -1.72 -0.08 q-0.94 -0.16 -1.6 -0.62 q-0.78 -0.56 -1.32 -1.66 z M368.72 20 l-2.14 0 l0 -14.92 l2.14 0 l0 14.92 z M375.30000000000007 14.02 l0 3.8 l9.2 0 l0 2.18 l-11.38 0 l0 -14.92 l10.5 0 l0 2.2 l-8.32 0 l0 4.52 q0.62 -0.36 1.38 -0.48 q0.56 -0.1 1.44 -0.1 l3.26 0 l0 2.22 l-3.26 0 q-0.82 0 -1.44 0.1 q-0.76 0.14 -1.38 0.48 z M388.44000000000005 7.18 l-1.74 -2.1 l2.82 0 l9.58 11.4 l0 -11.4 l2.2 0 l0 14.92 l-2.16 0 l-8.56 -10.26 l0 10.26 l-2.14 0 l0 -12.82 z M418.4800000000001 7 l-1.4 1.64 q-0.82 -0.84 -1.96 -1.32 t-2.4 -0.48 q-1.64 0 -2.99 0.74 t-2.11 2.02 q-0.78 1.34 -0.78 2.98 q0 1.56 0.84 2.88 q0.8 1.24 2.15 1.97 t2.91 0.73 q1.44 0 2.68 -0.62 t2.06 -1.72 l1.34 1.82 q-1.14 1.28 -2.73 1.99 t-3.37 0.71 q-2.22 0 -4.08 -1.08 q-1.82 -1.04 -2.86 -2.86 q-1.08 -1.86 -1.08 -4.08 q0 -2.14 1.14 -3.94 q1.08 -1.72 2.93 -2.73 t3.97 -1.01 q1.66 0 3.16 0.64 q1.46 0.6 2.58 1.72 z M424.20000000000005 14.02 l0 3.8 l9.2 0 l0 2.18 l-11.38 0 l0 -14.92 l10.5 0 l0 2.2 l-8.32 0 l0 4.52 q0.62 -0.36 1.38 -0.48 q0.56 -0.1 1.44 -0.1 l3.26 0 l0 2.22 l-3.26 0 q-0.82 0 -1.44 0.1 q-0.76 0.14 -1.38 0.48 z" stroke="#5267DF" stroke-width="1.2"></path></g></svg>
