<svg width="32" height="32" viewBox="0 0 32 32" fill="none" xmlns="http://www.w3.org/2000/svg">
<rect width="32" height="32" fill="#1A1A1A"/>
<path d="M15.2382 13.7463H17.0623C18.8864 13.7463 20.362 15.2432 20.362 17.0781V19.5131C20.362 23.0725 17.4995 25.9559 13.9812 25.9559H12.6832C12.3074 25.9628 12 25.6524 12 25.273V17.0229C12 15.2156 13.4483 13.7463 15.2382 13.7463Z" fill="white"/>
<path d="M17.1171 12.7463C18.9621 12.7463 20.4578 11.2361 20.4578 9.37315C20.4578 7.51021 18.9621 6 17.1171 6C15.2721 6 13.7764 7.51021 13.7764 9.37315C13.7764 11.2361 15.2721 12.7463 17.1171 12.7463Z" fill="white"/>
</svg>
