<?xml version="1.0" standalone="no"?>
<!DOCTYPE svg PUBLIC "-//W3C//DTD SVG 20010904//EN"
 "http://www.w3.org/TR/2001/REC-SVG-20010904/DTD/svg10.dtd">
<svg version="1.0" xmlns="http://www.w3.org/2000/svg"
 width="1280.000000pt" height="1280.000000pt" viewBox="0 0 1280.000000 1280.000000"
 preserveAspectRatio="xMidYMid meet">
<metadata>
Created by potrace 1.14, written by Peter Selinger 2001-2017
</metadata>
<g transform="translate(0.000000,1280.000000) scale(0.100000,-0.100000)"
fill="#000000" stroke="none">
<path d="M6618 12795 c-2 -2 -31 -6 -63 -9 -33 -2 -60 -5 -60 -6 0 -3 -5 -3
-75 -13 -52 -7 -237 -55 -296 -77 -29 -10 -55 -16 -58 -13 -3 4 -6 2 -6 -3 0
-5 -20 -15 -44 -22 -99 -30 -393 -195 -511 -289 -16 -13 -43 -33 -58 -46 -58
-45 -255 -244 -300 -302 -26 -33 -53 -67 -61 -75 -7 -8 -31 -42 -52 -75 -21
-33 -41 -62 -44 -65 -17 -17 -146 -270 -181 -355 -16 -39 -68 -196 -74 -225
-2 -8 -4 -15 -5 -15 -1 0 -3 -7 -5 -15 -2 -13 -20 -95 -32 -150 -2 -8 -5 -31
-8 -50 -2 -19 -6 -46 -9 -59 -8 -38 -18 -195 -18 -289 0 -165 14 -304 47 -452
3 -14 7 -36 10 -50 3 -14 14 -56 25 -95 12 -38 23 -77 25 -85 4 -16 30 -83 65
-170 65 -164 192 -372 325 -534 71 -87 241 -253 320 -313 109 -83 226 -162
243 -164 4 0 14 -6 22 -14 32 -28 325 -162 370 -168 8 -2 20 -6 25 -9 12 -7
154 -46 195 -54 14 -2 36 -7 50 -10 14 -3 39 -8 55 -11 17 -2 41 -6 55 -9 133
-24 492 -24 615 1 11 3 36 7 56 9 97 14 363 88 383 107 6 5 16 9 24 9 7 0 39
12 70 27 31 15 59 27 62 28 13 4 86 41 90 46 3 4 21 14 40 23 19 8 44 21 55
28 55 36 141 93 150 100 6 4 35 27 65 50 84 64 86 67 189 168 99 99 122 124
181 200 19 25 37 47 40 50 12 11 50 70 50 76 0 4 8 17 18 28 48 55 172 299
221 437 28 78 61 182 62 194 0 2 5 19 10 37 5 18 12 47 14 63 3 17 10 53 15
80 5 28 12 75 16 105 3 30 8 66 10 80 4 32 4 333 0 380 -10 100 -30 221 -51
310 -3 14 -8 36 -11 50 -18 88 -146 420 -166 428 -4 2 -8 12 -8 23 0 10 -4 19
-10 19 -5 0 -10 9 -10 20 0 11 -4 20 -10 20 -5 0 -10 5 -10 11 0 6 -13 30 -30
54 -16 24 -30 48 -30 54 0 6 -4 11 -8 11 -5 0 -15 12 -23 28 -12 25 -44 66
-132 177 -43 55 -233 242 -287 285 -25 19 -49 38 -55 43 -86 71 -359 232 -445
262 -3 1 -18 7 -35 15 -89 38 -263 93 -332 104 -11 2 -30 7 -41 10 -25 8 -44
12 -107 20 -28 4 -64 10 -80 12 -37 6 -422 14 -427 9z"/>
<path d="M5528 7845 c-2 -2 -40 -6 -83 -9 -262 -17 -507 -83 -750 -203 -122
-59 -114 -55 -240 -137 -171 -112 -320 -247 -462 -421 -90 -110 -78 -93 -141
-192 -136 -213 -257 -512 -287 -707 -2 -15 -7 -35 -9 -45 -3 -9 -8 -38 -12
-66 -3 -27 -9 -59 -12 -70 -4 -11 -8 -1275 -9 -2810 l-3 -2790 23 -66 c41
-119 112 -201 222 -254 38 -19 88 -37 110 -40 47 -7 1047 -7 1150 0 82 5 170
13 240 22 28 3 64 7 80 9 17 1 30 3 30 4 0 1 11 3 25 5 27 3 155 26 220 40
103 22 107 23 194 45 98 25 337 100 351 110 6 4 22 10 36 13 14 4 43 14 65 24
21 9 41 17 44 18 58 17 389 178 480 233 19 12 42 25 50 29 40 17 337 219 427
289 150 117 208 168 348 303 75 73 124 125 261 274 20 23 179 224 194 246 8
13 23 32 33 43 9 12 17 24 17 28 0 3 8 15 18 26 14 15 97 145 159 249 75 125
181 332 228 445 15 36 31 69 36 75 5 5 9 15 9 22 0 8 7 30 16 51 10 20 18 42
20 47 2 6 22 64 44 130 23 66 43 125 44 130 2 6 6 24 10 40 4 17 10 37 13 45
8 19 6 14 42 161 17 69 32 141 35 160 2 18 9 54 15 79 9 43 17 96 27 185 3 22
7 56 9 75 5 39 11 107 20 225 7 104 8 1905 0 1970 -18 161 -18 158 -31 218 -3
16 -7 38 -9 50 -10 67 -18 96 -71 252 -41 124 -120 297 -182 399 -23 37 -42
70 -42 72 0 2 -16 25 -36 51 -20 27 -45 61 -57 77 -86 117 -208 245 -322 339
-39 31 -77 63 -85 71 -8 7 -55 40 -105 73 -134 90 -267 157 -460 234 -49 19
-219 68 -265 75 -14 3 -32 6 -40 8 -69 13 -159 25 -245 32 -98 9 -337 10 -341
2 -3 -4 -15 -4 -27 0 -29 10 -379 8 -395 -2 -6 -4 -12 -4 -12 1 0 6 -277 8
-470 3 -8 0 -34 1 -57 3 -24 2 -43 -1 -43 -5 0 -5 -8 -4 -19 1 -10 6 -20 8
-23 6z"/>
</g>
</svg>
