<svg width="24" height="24" viewBox="0 0 24 24" fill="none" xmlns="http://www.w3.org/2000/svg">
<g id="bars/alt">
<g id="Icon">
<path d="M2 14C2 12.8954 2.89543 12 4 12C5.10457 12 6 12.8954 6 14V18C6 19.1046 5.10457 20 4 20C2.89543 20 2 19.1046 2 18V14Z" stroke="black" stroke-width="2"/>
<path d="M10 6C10 4.89543 10.8954 4 12 4C13.1046 4 14 4.89543 14 6V18C14 19.1046 13.1046 20 12 20C10.8954 20 10 19.1046 10 18V6Z" stroke="black" stroke-width="2"/>
<path d="M18 10C18 8.89543 18.8954 8 20 8C21.1046 8 22 8.89543 22 10V18C22 19.1046 21.1046 20 20 20C18.8954 20 18 19.1046 18 18V10Z" stroke="black" stroke-width="2"/>
</g>
</g>
</svg>
