<svg width="25" height="24" viewBox="0 0 25 24" fill="none" xmlns="http://www.w3.org/2000/svg">
<path d="M18.2617 2C19.3663 2 20.2617 2.89543 20.2617 4C20.2617 5.10457 19.3663 6 18.2617 6L6.26172 6C5.15715 6 4.26172 5.10457 4.26172 4C4.26172 2.89543 5.15715 2 6.26172 2L18.2617 2Z" stroke="#1A1A1A" stroke-width="2"/>
<path d="M18.2617 10C19.3663 10 20.2617 10.8954 20.2617 12C20.2617 13.1046 19.3663 14 18.2617 14L6.26172 14C5.15715 14 4.26172 13.1046 4.26172 12C4.26172 10.8954 5.15715 10 6.26172 10L18.2617 10Z" stroke="#1A1A1A" stroke-width="2"/>
<path d="M18.2617 18C19.3663 18 20.2617 18.8954 20.2617 20C20.2617 21.1046 19.3663 22 18.2617 22L6.26172 22C5.15715 22 4.26172 21.1046 4.26172 20C4.26172 18.8954 5.15715 18 6.26172 18L18.2617 18Z" stroke="#1A1A1A" stroke-width="2"/>
</svg>
