<svg width="19" height="22" viewBox="0 0 19 22" fill="none" xmlns="http://www.w3.org/2000/svg">
<path d="M15.2617 1C16.3663 1 17.2617 1.89543 17.2617 3C17.2617 4.10457 16.3663 5 15.2617 5L3.26172 5C2.15715 5 1.26172 4.10457 1.26172 3C1.26172 1.89543 2.15715 1 3.26172 1L15.2617 1Z" stroke="white" stroke-width="2"/>
<path d="M15.2617 9C16.3663 9 17.2617 9.89543 17.2617 11C17.2617 12.1046 16.3663 13 15.2617 13L3.26172 13C2.15715 13 1.26172 12.1046 1.26172 11C1.26172 9.89543 2.15715 9 3.26172 9L15.2617 9Z" stroke="white" stroke-width="2"/>
<path d="M15.2617 17C16.3663 17 17.2617 17.8954 17.2617 19C17.2617 20.1046 16.3663 21 15.2617 21L3.26172 21C2.15715 21 1.26172 20.1046 1.26172 19C1.26172 17.8954 2.15715 17 3.26172 17L15.2617 17Z" stroke="white" stroke-width="2"/>
</svg>
