<svg width="83" height="32" viewBox="0 0 83 32" fill="none" xmlns="http://www.w3.org/2000/svg">
    <path
        d="M18.3999 7.43146C18.3999 2.74641 21.6999 0 26.1299 0C30.5599 0 33.8599 2.74641 33.8599 7.43146C33.8599 12.1165 30.5599 14.8427 26.1299 14.8427C21.6999 14.8427 18.3999 12.1165 18.3999 7.43146ZM29.1599 7.33049C29.1599 5.35146 27.9799 3.97825 26.1299 3.97825C24.2799 3.97825 23.0799 5.35146 23.0799 7.33049C23.0799 9.30951 24.2799 10.6827 26.1299 10.6827C27.9799 10.6827 29.1599 9.30951 29.1599 7.33049Z"
        fill="black" />
    <path
        d="M40.7298 10.2182C41.0398 10.5312 41.4498 10.7432 42.0698 10.7432C42.6898 10.7432 43.0998 10.5312 43.4098 10.2182C43.7198 9.90519 43.8598 9.49121 43.8598 8.65315V0.232178H48.5598V8.45121C48.5598 10.7432 48.0398 12.0963 47.0098 13.1363C45.9798 14.1763 44.3298 14.8225 42.0598 14.8225C39.7898 14.8225 38.1398 14.1763 37.1098 13.1363C36.0798 12.0963 35.5598 10.7432 35.5598 8.45121V0.232178H40.2398V8.66325C40.2398 9.5215 40.3998 9.91529 40.7098 10.2283L40.7298 10.2182Z"
        fill="black" />
    <path
        d="M61.1899 1.27218C62.2199 1.99917 62.9399 3.25121 62.9399 4.80616C62.9399 6.36111 62.4799 7.29004 61.9499 7.96655C61.4399 8.61276 60.8699 8.95606 60.5699 9.13781L63.7699 14.5902H58.4099L56.1399 9.80422H55.5399V14.5902H50.8799V0.232178H57.0599C58.8099 0.232178 60.1499 0.545187 61.1799 1.27218H61.1899ZM57.7299 6.01781C57.9599 5.84616 58.2499 5.64422 58.2499 5.0182C58.2499 4.39218 57.9399 4.19024 57.7299 4.03878C57.5199 3.87723 57.2099 3.76616 56.6999 3.76616H55.5199V6.26014H56.6999C57.2199 6.26014 57.5499 6.15917 57.7299 6.00771V6.01781Z"
        fill="black" />
    <path d="M24.15 16.5592L26.83 24.8893L29.51 16.5592H34.4599L29.1 30.9173H24.5599L19.2 16.5592H24.15Z"
        fill="black" />
    <path
        d="M34 23.7585C34 19.0734 37.3 16.327 41.73 16.327C46.16 16.327 49.46 19.0734 49.46 23.7585C49.46 28.4435 46.16 31.1697 41.73 31.1697C37.3 31.1697 34 28.4435 34 23.7585ZM44.76 23.6575C44.76 21.6785 43.59 20.3053 41.73 20.3053C39.87 20.3053 38.68 21.6785 38.68 23.6575C38.68 25.6365 39.88 27.0097 41.73 27.0097C43.58 27.0097 44.76 25.6365 44.76 23.6575Z"
        fill="black" />
    <path d="M55.93 16.5592V30.9173H51.27V16.5592H55.93Z" fill="black" />
    <path
        d="M65.37 31.1696C61.14 31.1696 57.74 28.5443 57.74 23.7583C57.74 18.9723 61.14 16.347 65.37 16.347C68.57 16.347 70.11 17.7001 70.11 17.7001L68.87 21.6581C68.87 21.6581 67.43 20.4061 65.67 20.4061C63.91 20.4061 62.41 21.4461 62.41 23.6977C62.41 25.9494 64.02 26.9288 65.67 26.9288C67.32 26.9288 68.45 26.2422 69.07 25.6162L70.41 29.3622C69.89 29.8872 68.45 31.1696 65.36 31.1696H65.37Z"
        fill="black" />
    <path
        d="M81.9201 16.5592V20.2648H76.4601V21.8299H81.6101V25.5153H76.4601V27.1813H82.1301V30.9274H71.8201V16.5693H81.9201V16.5592Z"
        fill="black" />
    <path
        d="M4.74 13.207H7.41C10.08 13.207 12.24 15.3981 12.24 18.0839V21.6482C12.24 26.8583 8.05 31.0789 2.9 31.0789H1C0.45 31.089 0 30.6346 0 30.0793V18.0031C0 15.3577 2.12 13.207 4.74 13.207Z"
        fill="black" />
    <path
        d="M7.4901 11.2481C10.1908 11.2481 12.3801 9.03754 12.3801 6.31064C12.3801 3.58375 10.1908 1.37317 7.4901 1.37317C4.78943 1.37317 2.6001 3.58375 2.6001 6.31064C2.6001 9.03754 4.78943 11.2481 7.4901 11.2481Z"
        fill="black" />
</svg>