<?xml version="1.0" encoding="utf-8"?>

<svg xmlns="http://www.w3.org/2000/svg" width="112" height="43" viewBox="0 0 112 43" fill="none">
    <g clip-path="url(#clip0_811_1490)">
        <path
            d="M25.0918 10.1342C25.0918 3.74525 29.592 0 35.6331 0C41.6743 0 46.1745 3.74525 46.1745 10.1342C46.1745 16.5232 41.6743 20.2409 35.6331 20.2409C29.592 20.2409 25.0918 16.5232 25.0918 10.1342ZM39.7651 9.99652C39.7651 7.29774 38.156 5.42511 35.6331 5.42511C33.1103 5.42511 31.4739 7.29774 31.4739 9.99652C31.4739 12.6953 33.1103 14.5679 35.6331 14.5679C38.156 14.5679 39.7651 12.6953 39.7651 9.99652Z"
            fill="black" />
        <path
            d="M55.543 13.9346C55.9657 14.3614 56.5248 14.6506 57.3703 14.6506C58.2158 14.6506 58.7749 14.3614 59.1977 13.9346C59.6204 13.5077 59.8113 12.9432 59.8113 11.8003V0.316711H66.2207V11.5249C66.2207 14.6506 65.5115 16.4957 64.1069 17.9139C62.7023 19.3321 60.4523 20.2134 57.3567 20.2134C54.2611 20.2134 52.011 19.3321 50.6064 17.9139C49.2018 16.4957 48.4927 14.6506 48.4927 11.5249V0.316711H54.8748V11.8141C54.8748 12.9845 55.0929 13.5215 55.5157 13.9483L55.543 13.9346Z"
            fill="black" />
        <path
            d="M83.4439 1.73495C84.8485 2.72634 85.8304 4.43374 85.8304 6.55421C85.8304 8.67469 85.2031 9.94146 84.4803 10.864C83.7849 11.7452 83.0076 12.2134 82.5984 12.4612L86.9623 19.8967H79.6529L76.5573 13.37H75.7391V19.8967H69.3843V0.316711H77.8119C80.1984 0.316711 82.0257 0.74356 83.4303 1.73495H83.4439ZM78.7256 8.20653C79.0392 7.97245 79.4347 7.69706 79.4347 6.84337C79.4347 5.98967 79.0119 5.71428 78.7256 5.50774C78.4392 5.28743 78.0164 5.13597 77.321 5.13597H75.7118V8.53699H77.321C78.0301 8.53699 78.4801 8.3993 78.7256 8.19276V8.20653Z"
            fill="black" />
        <path
            d="M32.9334 22.5817L36.5881 33.9413L40.2428 22.5817H46.993L39.6837 42.1616H33.4925L26.1831 22.5817H32.9334Z"
            fill="black" />
        <path
            d="M46.3657 32.3992C46.3657 26.0102 50.8659 22.265 56.9071 22.265C62.9482 22.265 67.4484 26.0102 67.4484 32.3992C67.4484 38.7881 62.9482 42.5058 56.9071 42.5058C50.8659 42.5058 46.3657 38.7881 46.3657 32.3992ZM61.039 32.2615C61.039 29.5627 59.4435 27.6901 56.9071 27.6901C54.3706 27.6901 52.7478 29.5627 52.7478 32.2615C52.7478 34.9603 54.3842 36.8329 56.9071 36.8329C59.4299 36.8329 61.039 34.9603 61.039 32.2615Z"
            fill="black" />
        <path d="M76.2713 22.5817V42.1616H69.9165V22.5817H76.2713Z" fill="black" />
        <path
            d="M89.1447 42.5056C83.3763 42.5056 78.7397 38.9256 78.7397 32.3989C78.7397 25.8723 83.3763 22.2922 89.1447 22.2922C93.5085 22.2922 95.6086 24.1373 95.6086 24.1373L93.9176 29.5349C93.9176 29.5349 91.9539 27.8275 89.5538 27.8275C87.1537 27.8275 85.1082 29.2457 85.1082 32.3163C85.1082 35.3869 87.3037 36.7225 89.5538 36.7225C91.8039 36.7225 93.3449 35.7862 94.1904 34.9325L96.0177 40.0409C95.3086 40.7569 93.3449 42.5056 89.1311 42.5056H89.1447Z"
            fill="black" />
        <path
            d="M111.714 22.5817V27.635H104.268V29.7692H111.291V34.795H104.268V37.067H112V42.1754H97.9404V22.5954H111.714V22.5817Z"
            fill="black" />
        <path
            d="M6.4639 18.0103H10.105C13.746 18.0103 16.6916 20.9982 16.6916 24.6608V29.5214C16.6916 36.6264 10.9777 42.3819 3.95471 42.3819H1.36369C0.613661 42.3957 0 41.7761 0 41.0188V24.5507C0 20.9431 2.89103 18.0103 6.4639 18.0103Z"
            fill="#FFCD29" />
        <path
            d="M10.2139 15.339C13.8967 15.339 16.8823 12.3245 16.8823 8.60581C16.8823 4.88717 13.8967 1.87262 10.2139 1.87262C6.53098 1.87262 3.54541 4.88717 3.54541 8.60581C3.54541 12.3245 6.53098 15.339 10.2139 15.339Z"
            fill="#FFCD29" />
    </g>
    <defs>
        <clipPath id="clip0_811_1490">
            <rect width="112" height="42.5059" fill="white" />
        </clipPath>
    </defs>
</svg>