<svg width="583" height="210" viewBox="0 0 583 210" fill="none" xmlns="http://www.w3.org/2000/svg">
<path d="M93.0748 97.2085C94.4048 98.4685 95.9048 99.8485 97.3448 101.289C98.3948 102.339 99.3448 103.499 100.375 104.569C101.385 105.619 102.455 106.629 103.505 107.639C104.325 108.429 105.165 109.199 105.985 109.989C107.135 111.119 108.295 112.238 109.415 113.398C110.925 114.958 112.375 116.579 113.915 118.119C115.005 119.219 116.235 120.179 117.335 121.269C118.595 122.519 119.755 123.859 120.995 125.119C122.325 126.459 123.735 127.719 125.055 129.049C126.125 130.129 127.115 131.289 128.175 132.379C129.395 133.629 130.655 134.839 131.905 136.069C133.005 137.159 134.095 138.249 135.205 139.319C135.855 139.949 136.595 140.499 137.165 141.189C137.385 141.449 137.435 142.189 137.235 142.409C135.935 143.849 134.565 145.219 133.165 146.569C132.075 147.629 130.875 148.569 129.795 149.639C128.525 150.899 127.365 152.269 126.105 153.539C125.025 154.639 123.845 155.659 122.755 156.749C121.685 157.819 120.695 158.959 119.645 160.049C118.645 161.079 117.625 162.079 116.605 163.089C115.245 164.439 113.885 165.789 112.515 167.119C111.405 168.189 110.265 169.229 109.165 170.299C108.385 171.059 107.645 171.869 106.865 172.639C105.235 174.249 103.575 175.829 101.975 177.469C100.725 178.749 99.5548 180.109 98.3048 181.379C97.2448 182.459 96.0948 183.459 95.0048 184.519C94.6248 184.889 94.2948 185.309 93.9748 185.719C93.2348 186.669 92.7348 186.689 91.9648 185.859C90.6948 184.489 89.4148 183.139 88.1248 181.799C86.9848 180.609 85.8348 179.419 84.6648 178.259C83.4248 177.029 82.1348 175.849 80.8948 174.619C79.7548 173.479 78.6748 172.279 77.5348 171.139C76.3048 169.909 75.0148 168.729 73.7748 167.499C72.6248 166.349 71.5348 165.149 70.3848 163.999C69.1748 162.799 67.9248 161.639 66.7148 160.439C65.5448 159.279 64.4348 158.058 63.2648 156.898C62.0248 155.658 60.7348 154.469 59.4948 153.229C58.3648 152.099 57.2848 150.919 56.1548 149.789C54.9148 148.559 53.6348 147.369 52.3948 146.139C51.2548 144.999 50.2248 143.729 48.9948 142.699C48.0948 141.939 48.2348 141.659 49.0348 140.909C50.8248 139.249 52.4348 137.409 54.1348 135.659C55.8148 133.929 57.5248 132.229 59.2248 130.519C60.6148 129.119 62.0048 127.719 63.4248 126.349C65.0048 124.819 66.6448 123.359 68.1948 121.809C69.7248 120.289 71.1548 118.669 72.6648 117.129C73.7048 116.069 74.8548 115.109 75.8948 114.059C76.9748 112.969 77.9648 111.769 79.0548 110.689C80.1248 109.619 81.3148 108.679 82.3848 107.609C83.4548 106.539 84.4248 105.369 85.4948 104.299C86.5548 103.229 87.6948 102.239 88.7748 101.189C89.5748 100.409 90.3148 99.5685 91.1248 98.8085C91.7148 98.2585 92.3648 97.7785 93.0248 97.2385L93.0748 97.2085ZM89.7648 133.229C89.7648 133.729 89.7648 134.129 89.7648 134.519C89.7648 141.359 89.7648 148.209 89.7648 155.049C89.7648 156.159 90.2748 156.689 91.3848 156.689C92.3948 156.689 93.3948 156.689 94.4048 156.689C95.6848 156.689 96.1348 156.238 96.1348 154.958C96.1348 148.118 96.1348 141.269 96.1348 134.429C96.1348 134.049 96.1348 133.659 96.1348 133.229C98.3248 133.229 100.345 133.229 102.355 133.229C103.415 133.229 103.915 132.699 103.895 131.659C103.875 130.819 103.875 129.978 103.895 129.148C103.925 128.068 103.455 127.549 102.375 127.549C96.1348 127.549 89.8948 127.569 83.6548 127.519C82.6948 127.519 82.4148 127.889 82.4048 128.729C82.4048 129.699 82.4348 130.679 82.3148 131.639C82.1748 132.749 82.5048 133.229 83.6448 133.229C85.6448 133.229 87.6548 133.229 89.7748 133.229H89.7648Z" fill="white"/>
<path d="M96.2251 93.6686C97.6251 92.1986 98.9951 90.6886 100.425 89.2486C101.495 88.1786 102.685 87.2186 103.755 86.1486C104.815 85.0886 105.765 83.9086 106.835 82.8386C107.915 81.7686 109.105 80.8086 110.175 79.7286C111.245 78.6586 112.215 77.4786 113.275 76.3886C114.055 75.5786 114.925 74.8586 115.725 74.0686C116.585 73.2086 117.365 72.2786 118.235 71.4286C119.325 70.3686 120.475 69.3786 121.575 68.3386C122.375 67.5786 123.135 66.7886 123.895 65.9986C124.925 64.9286 125.915 63.8286 126.955 62.7686C128.045 61.6586 129.155 60.5686 130.265 59.4886C131.395 58.3986 132.565 57.3586 133.665 56.2386C134.735 55.1586 135.705 53.9786 136.775 52.8886C137.825 51.8286 138.885 50.7786 140.035 49.8286C141.305 48.7886 142.415 49.1086 143.175 50.5686C143.395 50.9886 143.675 51.5686 144.045 51.6786C144.945 51.9486 145.205 52.7786 145.775 53.3186C146.315 53.8186 146.905 54.2786 147.415 54.7986C148.675 56.0886 149.755 57.5986 151.195 58.6486C152.345 59.4786 152.785 60.9086 154.215 61.5086C155.005 61.8386 155.445 62.9386 156.135 63.6086C157.155 64.5986 158.265 65.4886 159.285 66.4686C159.595 66.7686 159.715 67.2586 160.025 67.5686C161.375 68.8786 162.795 70.1286 164.125 71.4586C165.285 72.6186 166.275 73.9786 167.525 75.0286C168.375 75.7486 168.865 76.8286 169.745 77.3586C171.205 78.2486 171.925 79.8086 173.335 80.7586C174.645 81.6386 175.475 83.1986 176.735 84.1786C177.865 85.0586 178.405 86.4686 179.835 87.1086C180.645 87.4786 181.085 88.5986 181.785 89.2886C182.775 90.2486 183.875 91.0986 184.875 92.0486C185.285 92.4486 185.565 92.9886 185.865 93.4886C185.935 93.5986 185.905 93.8686 185.815 93.9586C185.015 94.7286 184.165 95.4586 183.375 96.2386C182.335 97.2786 181.325 98.3486 180.305 99.4086C179.745 99.9886 179.205 100.579 178.635 101.149C177.575 102.179 176.495 103.189 175.435 104.219C174.215 105.389 172.975 106.539 171.795 107.749C170.585 108.979 169.475 110.309 168.265 111.539C167.135 112.669 165.885 113.679 164.755 114.819C163.695 115.889 162.765 117.099 161.695 118.169C160.405 119.459 159.025 120.649 157.715 121.929C156.505 123.109 155.365 124.349 154.155 125.539C152.925 126.749 151.645 127.909 150.425 129.129C149.205 130.359 148.075 131.689 146.845 132.919C145.715 134.049 144.515 135.099 143.365 136.209C142.825 136.729 142.285 137.249 141.825 137.829C141.245 138.579 140.825 138.349 140.275 137.789C139.205 136.719 138.055 135.729 136.985 134.659C135.925 133.589 134.945 132.429 133.885 131.359C132.815 130.279 131.685 129.269 130.595 128.219C130.045 127.689 129.525 127.129 128.985 126.599C127.835 125.479 126.665 124.379 125.535 123.239C124.965 122.659 124.505 121.979 123.935 121.399C122.915 120.359 121.835 119.369 120.795 118.349C119.925 117.479 119.075 116.579 118.215 115.699C117.675 115.149 117.135 114.609 116.585 114.069C115.965 113.459 115.325 112.859 114.705 112.249C113.615 111.189 112.525 110.139 111.455 109.059C110.605 108.199 109.795 107.309 108.955 106.439C108.175 105.639 107.365 104.849 106.565 104.059C105.475 102.969 104.385 101.869 103.285 100.779C102.205 99.7186 101.095 98.6686 100.015 97.6086C99.4551 97.0586 98.9051 96.4886 98.3551 95.9286C97.6351 95.1886 96.9251 94.4486 96.2051 93.6886L96.2251 93.6686ZM149.975 108.009C150.745 107.559 150.955 106.799 150.855 105.869C150.795 105.309 150.855 104.729 150.845 104.159C150.825 103.009 150.425 102.609 149.315 102.609C146.125 102.609 142.945 102.609 139.755 102.609C139.345 102.609 138.805 102.769 138.805 102.069C138.805 100.139 138.805 98.2086 138.805 96.1286H149.555C149.555 94.5486 149.525 93.1186 149.565 91.6786C149.585 90.8186 149.265 90.5286 148.395 90.5386C145.515 90.5886 142.625 90.5386 139.745 90.5686C139.005 90.5686 138.735 90.3686 138.765 89.5986C138.825 88.2886 138.815 86.9786 138.765 85.6786C138.735 84.9186 139.005 84.6886 139.745 84.6986C141.955 84.7386 144.175 84.7086 146.385 84.7086C147.655 84.7086 148.915 84.7086 150.235 84.7086V79.1186C144.915 79.1186 139.715 79.1186 134.525 79.1186C133.005 79.1186 132.655 79.4786 132.655 81.0686C132.655 89.3486 132.675 97.6386 132.635 105.919C132.635 106.849 132.775 107.599 133.435 108.029C134.255 107.929 134.935 107.779 135.615 107.769C139.845 107.749 144.065 107.749 148.295 107.769C148.805 107.769 149.325 107.919 149.985 108.019L149.975 108.009Z" fill="white"/>
<path d="M189.195 90.1485C188.005 88.9485 186.865 87.8086 185.745 86.6586C183.805 84.6586 181.905 82.6285 179.945 80.6485C178.835 79.5285 177.605 78.5286 176.505 77.4086C174.545 75.4286 172.665 73.3785 170.705 71.3985C169.505 70.1885 168.215 69.0686 167.005 67.8586C165.875 66.7186 164.835 65.4886 163.695 64.3486C162.425 63.0886 161.075 61.9086 159.785 60.6586C158.095 59.0186 156.425 57.3486 154.765 55.6886C153.075 53.9986 151.385 52.2986 149.695 50.5986C148.315 49.2086 146.915 47.8286 145.535 46.4486C145.245 46.1586 144.735 45.8186 144.775 45.5586C144.845 45.0886 145.165 44.5986 145.515 44.2386C146.585 43.1086 147.695 42.0086 148.805 40.9286C149.905 39.8586 151.055 38.8286 152.155 37.7386C152.985 36.9286 153.745 36.0386 154.555 35.2186C155.395 34.3786 156.295 33.5886 157.125 32.7386C158.185 31.6486 159.185 30.5086 160.235 29.4186C160.785 28.8486 161.425 28.3486 161.985 27.7886C162.865 26.9086 163.695 25.9886 164.565 25.0986C165.335 24.3186 166.145 23.5586 166.925 22.7886C168.015 21.7186 169.085 20.6386 170.175 19.5786C171.285 18.4986 172.445 17.4586 173.525 16.3586C174.595 15.2686 175.565 14.0786 176.645 12.9986C177.695 11.9486 178.835 10.9885 179.905 9.95854C180.735 9.14854 181.495 8.26858 182.315 7.43858C183.385 6.35858 184.485 5.29856 185.575 4.22856C186.615 3.19856 187.675 2.18859 188.685 1.12859C189.245 0.538587 189.645 0.578543 190.225 1.20854C190.985 2.03854 191.845 2.77858 192.655 3.55858C193.485 4.35858 194.325 5.16857 195.135 5.98857C195.985 6.84857 196.815 7.72855 197.655 8.58855C198.475 9.42855 199.295 10.2685 200.135 11.0885C201.235 12.1685 202.365 13.2086 203.465 14.2886C204.015 14.8186 204.525 15.3786 205.055 15.9386C205.635 16.5586 206.195 17.1986 206.785 17.8086C207.665 18.7186 208.545 19.6186 209.455 20.4986C210.525 21.5286 211.625 22.5186 212.695 23.5486C213.245 24.0786 213.775 24.6286 214.295 25.1786C215.345 26.2786 216.365 27.3986 217.435 28.4686C218.285 29.3286 219.205 30.1186 220.075 30.9486C220.975 31.8086 221.865 32.6586 222.735 33.5486C223.535 34.3686 224.285 35.2486 225.075 36.0786C225.805 36.8486 226.525 37.6186 227.295 38.3586C228.365 39.3886 229.475 40.3786 230.545 41.4086C231.575 42.3986 232.585 43.3986 233.585 44.4186C234.395 45.2486 234.355 45.4985 233.505 46.3385C231.875 47.9385 230.275 49.5686 228.645 51.1586C227.305 52.4586 225.905 53.6886 224.595 55.0086C223.285 56.3186 222.085 57.7386 220.775 59.0386C219.205 60.5886 217.535 62.0386 215.975 63.5986C214.455 65.1186 213.045 66.7585 211.515 68.2785C209.965 69.8285 208.295 71.2686 206.745 72.8186C205.435 74.1286 204.265 75.5586 202.955 76.8686C201.865 77.9686 200.635 78.9186 199.535 80.0086C198.335 81.1986 197.235 82.4886 196.045 83.6786C194.895 84.8286 193.665 85.8885 192.515 87.0285C191.685 87.8585 190.965 88.7986 190.135 89.6386C189.855 89.9186 189.415 90.0386 189.175 90.1586L189.195 90.1485ZM200.175 42.0186C200.175 42.0186 200.205 42.0186 200.215 42.0186C200.215 38.6286 200.205 35.2486 200.215 31.8586C200.215 31.0386 199.995 30.6186 199.065 30.6986C198.135 30.7786 197.185 30.7186 196.245 30.7186C194.585 30.7186 194.475 30.8286 194.475 32.4786C194.475 38.5786 194.455 44.6886 194.445 50.7886C194.445 52.0386 193.715 52.8286 192.815 53.5786C191.795 54.4386 190.565 54.2486 189.425 54.3186C188.335 54.3786 187.025 54.4786 186.175 53.9686C184.815 53.1386 183.845 51.7086 183.825 50.0086C183.755 45.0086 183.795 40.0186 183.795 35.0186C183.795 33.9086 183.795 32.8086 183.795 31.6986C183.795 31.0186 183.595 30.6585 182.805 30.7085C181.765 30.7785 180.725 30.7086 179.685 30.7286C178.545 30.7286 178.125 31.1486 178.125 32.2686C178.125 38.0386 178.085 43.8086 178.155 49.5686C178.175 51.0086 178.555 52.4386 178.775 53.8686C178.775 53.9286 178.795 54.0186 178.835 54.0486C179.645 54.7386 180.055 55.7586 180.675 56.5786C182.275 58.6986 184.445 59.4686 186.795 59.8486C188.425 60.1186 190.145 59.9986 191.805 59.8486C192.885 59.7586 194.045 59.4986 194.985 58.9786C196.155 58.3186 197.185 57.4286 198.145 56.3886C199.395 55.0386 199.995 53.4986 200.085 51.8686C200.265 48.5886 200.135 45.2986 200.135 42.0086L200.175 42.0186Z" fill="white"/>
<path d="M89.8649 93.4187C88.6849 94.6487 87.7749 95.6187 86.8349 96.5687C86.0349 97.3787 85.2249 98.1687 84.4149 98.9587C83.3249 100.029 82.2349 101.099 81.1449 102.169C80.0349 103.249 78.9049 104.319 77.8249 105.429C76.7649 106.519 75.7749 107.669 74.7149 108.759C73.9249 109.569 73.0649 110.299 72.2649 111.099C71.4049 111.959 70.6049 112.869 69.7449 113.729C68.9249 114.539 68.0549 115.299 67.2249 116.109C66.1549 117.149 65.1249 118.229 64.0649 119.279C63.2249 120.119 62.3649 120.939 61.5249 121.779C60.7049 122.589 59.8849 123.399 59.0849 124.229C58.2749 125.059 57.5049 125.919 56.6849 126.749C55.6049 127.829 54.5049 128.879 53.4249 129.959C52.5949 130.789 51.7849 131.649 50.9549 132.469C49.8749 133.539 48.7449 134.579 47.6749 135.659C46.9049 136.439 46.2449 137.339 45.4049 138.029C45.1449 138.249 44.3049 138.169 44.0349 137.909C42.7849 136.719 41.6649 135.389 40.4349 134.179C38.9649 132.719 37.4149 131.349 35.9449 129.899C34.8149 128.779 33.7849 127.559 32.6649 126.429C31.7549 125.529 30.7549 124.719 29.8249 123.839C29.0949 123.149 28.4149 122.399 27.7149 121.679C26.7049 120.639 25.7049 119.609 24.7049 118.559C23.5349 117.339 22.4149 116.079 21.2149 114.889C20.0049 113.699 18.6949 112.599 17.4849 111.409C16.3349 110.269 15.2849 109.019 14.1449 107.869C12.8749 106.599 11.5149 105.409 10.2549 104.129C8.43486 102.289 6.68486 100.379 4.85486 98.5487C3.59486 97.2787 2.24486 96.0887 0.93486 94.8587C0.63486 94.5787 0.32486 94.3087 0.0948598 93.9887C-0.0151402 93.8387 -0.0351402 93.4887 0.0648598 93.3687C0.77486 92.5587 1.26486 91.5487 2.33486 91.0387C2.72486 90.8587 2.87486 90.2387 3.21486 89.8987C3.82486 89.3087 4.56486 88.8487 5.14486 88.2387C6.10486 87.2287 6.97486 86.1387 7.90486 85.0987C8.15486 84.8187 8.49486 84.5987 8.77486 84.3487C10.2349 83.0087 11.7549 81.7387 12.8949 80.0887C13.0449 79.8687 13.3949 79.7987 13.6249 79.6287C14.7949 78.7687 15.8049 77.6487 16.7049 76.5987C17.7749 75.3487 19.0949 74.3787 20.1149 73.0687C21.1249 71.7887 22.5649 70.8487 23.7249 69.6787C24.6849 68.7187 25.5049 67.6187 26.4049 66.5987C26.6749 66.2887 26.9549 65.9887 27.2649 65.7287C28.5349 64.6187 30.0249 63.6887 31.0449 62.3787C32.0049 61.1387 33.2349 60.2087 34.2249 59.0187C35.1249 57.9387 36.2849 57.0887 37.3049 56.0987C37.7149 55.6987 38.0449 55.2187 38.4249 54.7887C38.6949 54.4787 38.9749 54.1787 39.2749 53.8987C40.2849 52.9687 41.3249 52.0787 42.3049 51.1287C42.7549 50.6987 43.0649 50.1387 43.4749 49.6587C44.1949 48.8287 44.8549 48.8987 45.6249 49.6787C46.6649 50.7287 47.8249 51.6787 48.8749 52.7187C49.9449 53.7887 50.9249 54.9387 51.9849 56.0187C52.8149 56.8587 53.7049 57.6287 54.5549 58.4587C55.3549 59.2387 56.1349 60.0487 56.9349 60.8387C58.0549 61.9487 59.2049 63.0187 60.2949 64.1487C61.3449 65.2287 62.3349 66.3787 63.3849 67.4587C64.4049 68.5087 65.4649 69.5087 66.5149 70.5287C67.3549 71.3487 68.2049 72.1487 69.0549 72.9687C70.1849 74.0587 71.3249 75.1487 72.4249 76.2687C73.4849 77.3487 74.4849 78.4887 75.5349 79.5787C76.5249 80.6087 77.5449 81.5987 78.5449 82.6187C79.6649 83.7487 80.7849 84.8887 81.9149 86.0087C82.9549 87.0387 84.0049 88.0487 85.0549 89.0687C85.8949 89.8887 86.7249 90.7187 87.5849 91.5087C88.3049 92.1687 89.0749 92.7687 89.8549 93.4287L89.8649 93.4187ZM50.3849 95.9487C50.2349 96.0087 50.0849 96.0787 49.9449 96.1387C49.3649 95.3187 48.7749 94.4987 48.1949 93.6787C46.8449 91.7687 45.4849 89.8687 44.1349 87.9587C43.9049 87.6387 43.6549 87.3287 43.4349 86.9887C42.8549 86.0887 42.3449 85.1487 41.7149 84.2787C40.9049 83.1587 39.9449 82.1587 39.1849 81.0087C38.4049 79.8187 37.6249 78.8187 35.9949 79.0987C35.6649 79.1587 35.3249 79.0987 34.9949 79.0987C33.6349 79.0987 33.5049 79.2387 33.5049 80.5987C33.5049 86.8987 33.5049 93.2087 33.5049 99.5087C33.5049 101.919 33.5049 104.339 33.5049 106.749C33.5049 107.369 34.2549 108.099 34.7849 108.039C35.8949 107.919 37.0149 107.759 38.1349 107.739C38.9549 107.739 39.2249 107.489 39.2149 106.649C39.1749 101.849 39.1949 97.0587 39.1949 92.2587C39.1949 91.8787 39.2249 91.4987 39.2449 91.1187C39.3649 91.0687 39.4849 91.0087 39.6049 90.9587C40.1449 91.6887 40.6949 92.4187 41.2249 93.1487C41.9449 94.1387 42.6449 95.1487 43.3649 96.1387C44.0949 97.1587 44.8649 98.1587 45.5649 99.1987C46.3949 100.439 47.1349 101.729 47.9849 102.949C48.4949 103.669 49.1949 104.259 49.7349 104.969C50.2849 105.709 50.6649 106.589 51.2649 107.269C51.5749 107.629 52.2049 107.849 52.7049 107.889C53.5149 107.949 54.3449 107.809 55.1749 107.749C56.0949 107.629 56.2749 106.889 56.1649 105.989C56.1049 105.489 56.1549 104.989 56.1549 104.479C56.1549 96.5687 56.1549 88.6487 56.1549 80.7387C56.1549 79.4787 55.7549 79.0787 54.4949 79.0787C53.7249 79.0787 52.9449 79.1287 52.1849 79.0687C51.2149 78.9787 50.4149 79.0987 50.2149 80.1687C50.4549 85.3987 50.3449 90.6587 50.4149 95.9087L50.3849 95.9487Z" fill="white"/>
<path d="M224.495 111.829H218.045V78.3289C219.565 78.3289 221.125 78.2888 222.675 78.3688C222.985 78.3888 223.325 78.8289 223.545 79.1389C224.575 80.6089 225.545 82.1288 226.595 83.5888C227.425 84.7488 228.355 85.8388 229.215 86.9788C229.505 87.3588 229.715 87.7888 229.985 88.1788C230.675 89.1788 231.395 90.1588 232.085 91.1588C232.845 92.2488 233.505 93.4288 234.355 94.4388C235.035 95.2588 235.235 96.4289 236.275 97.0089C236.525 97.1489 236.545 97.6988 236.675 98.0488C236.775 98.0688 236.875 98.0788 236.965 98.0988C237.065 97.6388 237.245 97.1788 237.255 96.7288C237.275 90.9888 237.265 85.2489 237.255 79.5189C237.255 79.1889 237.255 78.8588 237.255 78.2988H240.995C242.855 78.2988 243.785 79.2355 243.785 81.1088C243.785 90.8388 243.785 100.569 243.785 110.299C243.785 111.352 243.248 111.879 242.175 111.879C241.475 111.879 240.765 111.879 240.065 111.879C238.765 111.879 238.325 111.559 237.855 110.369C237.745 110.089 237.465 109.859 237.265 109.619C236.515 108.739 236.105 107.659 235.235 106.789C234.205 105.749 233.625 104.279 232.805 103.029C232.325 102.299 231.715 101.669 231.205 100.959C230.575 100.079 229.995 99.1688 229.395 98.2788C228.805 97.3988 228.185 96.5289 227.625 95.6389C227.035 94.7089 225.995 94.1088 225.735 92.9088C225.655 92.5588 225.065 92.3088 224.495 91.8388V111.839V111.829Z" fill="white"/>
<path d="M450.845 121.889H457.325C457.325 122.429 457.325 122.889 457.325 123.359C457.325 130.539 457.365 137.709 457.305 144.889C457.295 146.399 458.095 147.309 459.045 148.199C460.945 149.999 463.365 149.829 465.595 149.429C466.835 149.199 468.195 148.529 468.935 147.019C469.305 146.259 469.445 145.579 469.445 144.829C469.475 137.689 469.475 130.539 469.475 123.399C469.475 122.339 470.021 121.805 471.115 121.799C472.455 121.799 473.795 121.809 475.135 121.799C475.985 121.789 476.435 122.069 476.435 123.019C476.415 130.259 476.445 137.509 476.385 144.749C476.375 146.049 476.325 147.529 475.725 148.609C474.755 150.359 473.845 152.199 471.925 153.379C470.535 154.239 469.125 154.859 467.625 155.469C465.195 156.449 462.765 155.899 460.335 155.889C459.495 155.889 458.655 155.189 457.815 154.819C457.235 154.559 456.615 154.349 456.065 154.019C454.425 153.059 452.995 151.889 452.205 150.059C451.935 149.419 451.455 148.869 451.155 148.239C450.975 147.869 450.895 147.419 450.895 147.009C450.855 140.399 450.845 133.799 450.825 127.189C450.825 125.449 450.825 123.709 450.825 121.889H450.845Z" fill="white"/>
<path d="M224.475 141.869V148.849H238.495C238.565 149.409 238.655 149.829 238.665 150.239C238.685 151.609 238.625 152.989 238.685 154.359C238.715 155.149 238.485 155.399 237.675 155.399C233.855 155.359 230.025 155.379 226.205 155.379C223.895 155.379 221.575 155.379 219.265 155.379C218.875 155.379 218.475 155.379 218.025 155.379V121.879C218.405 121.859 218.795 121.809 219.175 121.809C225.145 121.809 231.115 121.809 237.085 121.809C238.405 121.809 238.515 121.929 238.515 123.249C238.515 124.519 238.465 125.799 238.535 127.069C238.585 128.069 238.065 128.229 237.245 128.229C233.525 128.209 229.795 128.229 226.075 128.229C224.475 128.229 224.455 128.249 224.455 129.869C224.455 131.309 224.505 132.759 224.435 134.199C224.385 135.189 224.905 135.389 225.715 135.389C229.005 135.389 232.285 135.389 235.575 135.389C236.075 135.389 236.575 135.389 237.205 135.389C237.205 137.359 237.205 139.229 237.205 141.099C237.205 141.809 236.645 141.729 236.185 141.729C232.835 141.729 229.475 141.729 226.125 141.729C225.595 141.729 225.075 141.819 224.485 141.879L224.475 141.869Z" fill="white"/>
<path d="M260.525 133.949C260.565 133.379 260.615 132.999 260.615 132.619C260.615 129.499 260.615 126.379 260.615 123.259C260.615 121.809 260.615 121.809 262.025 121.809C263.235 121.809 264.445 121.839 265.645 121.799C266.305 121.779 266.565 122.039 266.545 122.669C266.535 122.939 266.545 123.209 266.545 123.469C266.545 133.699 266.535 143.929 266.565 154.149C266.565 155.109 266.325 155.459 265.335 155.399C264.095 155.319 262.855 155.339 261.615 155.399C260.795 155.439 260.515 155.139 260.605 154.359C260.645 153.999 260.605 153.639 260.605 152.959C260.035 153.279 259.675 153.469 259.325 153.669C258.315 154.239 257.295 154.789 256.315 155.409C254.755 156.399 253.035 155.929 251.385 155.979C250.115 156.019 249.005 155.449 247.945 154.789C247.385 154.439 246.715 154.269 246.205 153.869C245.525 153.339 244.905 152.709 244.345 152.049C243.665 151.259 243.015 150.439 242.435 149.579C242.075 149.029 241.755 148.399 241.625 147.759C241.335 146.299 240.785 144.719 241.075 143.349C241.415 141.769 241.375 140.139 241.975 138.549C242.795 136.359 244.295 134.809 245.875 133.349C246.625 132.649 247.695 132.109 248.775 131.649C251.095 130.659 253.365 131.069 255.625 131.209C256.645 131.279 257.615 132.129 258.585 132.669C259.205 133.019 259.765 133.449 260.535 133.959L260.525 133.949ZM247.175 143.289C246.955 146.719 249.835 149.869 253.835 149.869C258.235 149.869 260.565 146.719 260.515 143.609C260.455 139.739 258.335 137.039 253.955 136.899C250.485 136.779 247.015 139.599 247.175 143.299V143.289Z" fill="white"/>
<path d="M382.335 90.3985C382.405 90.0385 382.565 89.6286 382.525 89.2486C382.395 88.1586 383.155 87.8985 383.905 87.8385C385.075 87.7385 386.255 87.7786 387.425 87.8186C388.355 87.8586 388.875 88.4586 388.875 89.3886C388.875 96.4286 388.875 103.479 388.875 110.519C388.875 111.859 388.875 111.859 387.555 111.869C385.945 111.869 384.345 111.869 382.645 111.869C382.585 111.119 382.535 110.429 382.465 109.479C381.705 109.909 380.975 110.149 380.505 110.639C379.745 111.439 378.945 111.859 377.835 111.929C376.645 112.009 375.445 112.519 374.285 112.439C372.365 112.289 370.425 111.969 368.885 110.549C368.305 110.019 367.555 109.679 366.975 109.149C366.405 108.629 365.875 108.019 365.475 107.359C364.745 106.149 364.105 104.879 363.465 103.609C363.355 103.389 363.365 103.079 363.365 102.819C363.345 101.279 363.215 99.7286 363.345 98.1986C363.455 96.8886 363.615 95.4785 364.195 94.3385C364.945 92.8785 365.925 91.5085 367.275 90.3985C367.985 89.8085 368.625 89.1286 369.475 88.7486C370.395 88.3286 371.335 87.9585 372.285 87.6185C372.935 87.3885 373.615 87.2585 374.275 87.0885C374.375 87.0585 374.475 87.0085 374.565 87.0285C375.755 87.2685 376.985 87.4385 378.135 87.7985C378.965 88.0585 379.735 88.5685 380.485 89.0285C381.095 89.3985 381.645 89.8786 382.345 90.3886L382.335 90.3985ZM375.805 106.169C375.825 106.269 375.855 106.369 375.875 106.469C376.985 106.139 378.095 105.829 379.195 105.459C381.185 104.789 381.995 103.059 382.415 101.289C382.865 99.3585 382.585 97.3985 381.135 95.7885C379.835 94.3385 378.385 93.2385 376.315 93.3385C375.775 93.3685 375.245 93.3585 374.705 93.3585C373.615 93.3585 372.785 93.9585 371.925 94.5385C371.135 95.0785 370.555 95.7286 370.165 96.6386C369.645 97.8286 368.935 98.9385 369.125 100.299C369.205 100.869 369.635 101.399 369.685 101.959C369.805 103.209 370.635 104.029 371.435 104.769C372.635 105.869 374.125 106.389 375.815 106.169H375.805Z" fill="white"/>
<path d="M267.715 90.3886C267.765 90.0086 267.885 89.6186 267.845 89.2486C267.715 88.1886 268.415 87.8885 269.205 87.8385C270.405 87.7585 271.625 87.7285 272.825 87.8485C273.555 87.9185 274.205 88.2585 274.205 89.2785C274.175 96.3585 274.195 103.439 274.185 110.519C274.185 111.819 274.135 111.869 272.825 111.869C271.315 111.869 269.805 111.869 268.295 111.859C268.195 111.859 268.105 111.819 267.915 111.779C267.875 111.109 267.835 110.429 267.785 109.449C266.985 109.939 266.295 110.249 265.735 110.729C265.035 111.329 264.365 111.759 263.405 111.949C262.015 112.219 260.655 112.739 259.225 112.479C257.135 112.099 255.225 111.419 253.395 110.139C252.005 109.169 251.345 107.769 250.225 106.699C249.695 106.189 249.655 105.189 249.265 104.479C248.045 102.209 248.585 99.7685 248.655 97.4085C248.705 95.9385 249.285 94.4886 250.225 93.2686C251.085 92.1486 251.875 90.9386 252.905 89.9986C253.705 89.2686 254.775 88.7585 255.805 88.3585C257.085 87.8485 258.455 87.5485 259.775 87.1585C259.835 87.1385 259.905 87.0785 259.955 87.0885C261.185 87.3885 262.415 87.6986 263.635 88.0186C263.775 88.0586 263.905 88.2686 264.025 88.2686C265.295 88.2086 266.005 89.2185 266.955 89.7785C267.175 89.9085 267.275 90.2186 267.435 90.4486C267.525 90.4386 267.625 90.4285 267.715 90.4085V90.3886ZM260.965 106.189C263.465 106.349 265.445 105.639 266.745 103.529C267.065 103.009 267.535 102.479 267.585 101.919C267.715 100.549 267.855 99.1085 267.565 97.7885C267.355 96.8085 266.625 95.9285 265.805 95.1185C264.955 94.2785 263.965 93.6385 262.985 93.4785C260.505 93.0785 258.055 93.1885 256.235 95.4585C255.225 96.7185 254.585 98.0985 254.445 99.6585C254.385 100.379 254.905 101.129 254.945 101.879C255.025 103.189 255.915 104.009 256.725 104.759C257.905 105.849 259.405 106.409 260.955 106.189H260.965Z" fill="white"/>
<path d="M342.555 152.999C342.035 153.249 341.655 153.349 341.375 153.569C340.405 154.339 339.345 154.919 338.225 155.459C336.355 156.359 334.455 155.939 332.565 155.929C331.865 155.929 331.125 155.559 330.465 155.219C328.845 154.369 327.395 153.369 326.145 151.939C324.995 150.619 324.035 149.189 323.605 147.609C323.165 145.969 323.325 144.159 323.275 142.419C323.255 141.749 323.355 141.079 323.415 140.409C323.505 139.239 324.145 138.289 324.605 137.249C325.295 135.659 326.535 134.599 327.695 133.489C328.505 132.719 329.585 132.209 330.645 131.679C332.725 130.649 334.805 131.129 336.885 131.099C338.315 131.079 339.475 131.919 340.605 132.729C341.155 133.119 341.755 133.449 342.485 133.899C342.515 133.379 342.575 132.999 342.565 132.619C342.515 131.699 342.885 131.249 343.855 131.289C344.965 131.329 346.065 131.289 347.175 131.289C348.255 131.289 348.505 131.559 348.505 132.679C348.505 135.769 348.505 138.849 348.505 141.939C348.505 146.059 348.485 150.189 348.525 154.309C348.525 155.149 348.265 155.429 347.435 155.389C346.165 155.329 344.885 155.329 343.615 155.389C342.765 155.429 342.455 155.129 342.565 154.299C342.615 153.949 342.565 153.579 342.565 152.979L342.555 152.999ZM328.885 143.419C329.175 144.289 329.475 145.159 329.765 146.029C330.315 147.669 331.385 149.049 332.995 149.449C335.115 149.979 337.385 150.239 339.425 148.949C341.215 147.819 342.265 146.099 342.485 144.059C342.615 142.879 342.355 141.519 341.845 140.439C340.905 138.459 339.105 137.379 336.985 136.899C335.365 136.529 333.735 136.979 332.425 137.719C330.365 138.879 329.105 140.799 328.895 143.399L328.885 143.419Z" fill="white"/>
<path d="M531.425 111.868V109.728C530.315 109.358 529.975 110.408 529.295 110.728C528.495 111.098 527.725 111.518 526.925 111.898C525.535 112.558 524.015 112.728 522.585 112.428C520.935 112.078 519.135 112.008 517.805 110.608C517.145 109.918 516.125 109.578 515.495 108.878C514.705 107.998 514.145 106.918 513.495 105.918C511.865 103.448 511.955 100.678 512.115 97.8984C512.195 96.3984 512.925 95.1384 513.455 93.7784C514.225 91.8084 515.895 90.6584 517.275 89.2484C517.795 88.7184 518.715 88.5484 519.475 88.2884C520.685 87.8684 521.915 87.5084 523.145 87.1284C523.325 87.0684 523.535 87.0384 523.725 87.0684C524.535 87.2184 525.365 87.3284 526.135 87.5984C527.905 88.2184 529.795 88.6384 530.925 90.3784C530.965 90.4384 531.105 90.4284 531.355 90.4984C531.385 90.0584 531.485 89.6384 531.435 89.2484C531.315 88.2084 531.955 87.8784 532.785 87.8284C533.955 87.7684 535.135 87.7884 536.305 87.8184C537.275 87.8384 537.365 88.5484 537.365 89.2984C537.365 94.0284 537.365 98.7584 537.365 103.478C537.365 105.858 537.345 108.238 537.375 110.618C537.385 111.528 537.145 111.948 536.125 111.888C534.625 111.798 533.115 111.868 531.455 111.868H531.425ZM524.715 93.3484C520.655 93.0284 518.005 96.5484 518.015 99.7884C518.035 103.148 520.505 106.178 524.645 106.288C528.555 106.388 531.365 103.228 531.465 99.8784C531.565 96.6484 528.215 92.9084 524.715 93.3584V93.3484Z" fill="white"/>
<path d="M443.975 102.719C444.475 103.559 444.845 104.329 445.365 104.969C445.725 105.409 446.255 105.779 446.785 105.989C447.755 106.359 448.765 106.619 449.785 106.839C450.265 106.949 450.785 106.839 451.285 106.859C452.885 106.919 454.115 106.069 455.275 105.169C456.005 104.599 456.585 104.589 457.325 105.169C457.845 105.579 458.525 105.809 459.125 106.119C459.645 106.389 460.205 106.609 460.665 106.969C460.815 107.079 460.815 107.619 460.685 107.829C459.955 108.979 458.905 109.769 457.745 110.449C457.105 110.819 456.495 111.239 455.865 111.639C455.785 111.689 455.705 111.779 455.615 111.789C453.285 112.009 451.015 112.869 448.635 112.439C447.615 112.259 446.535 112.179 445.605 111.779C444.495 111.309 443.515 110.519 442.455 109.909C440.925 109.019 440.015 107.569 439.015 106.199C438.655 105.699 438.325 105.089 438.235 104.489C437.935 102.399 437.015 100.369 437.505 98.2188C437.785 96.9788 438.445 95.8288 438.695 94.5888C439.105 92.6088 440.455 91.2888 441.845 90.1488C442.785 89.3788 443.795 88.4688 445.225 88.2788C446.745 88.0788 448.225 87.5088 449.725 87.1088C449.975 87.0388 450.265 87.0188 450.515 87.0688C451.355 87.2288 452.205 87.3688 453.005 87.6388C454.055 87.9988 455.025 88.5988 456.085 88.8988C457.865 89.3988 458.955 90.8388 459.885 92.1088C460.645 93.1488 461.335 94.4488 461.715 95.8788C462.175 97.5988 462.315 99.2688 462.285 100.999C462.265 102.119 461.805 102.559 460.695 102.569C455.595 102.569 450.505 102.569 445.405 102.569C444.925 102.569 444.445 102.659 443.965 102.709L443.975 102.719ZM443.655 97.5188H456.175C455.795 96.7588 455.445 96.2188 455.245 95.6288C454.775 94.2188 453.595 93.5788 452.355 93.3988C450.755 93.1788 449.095 93.3488 447.455 93.3688C447.225 93.3688 446.935 93.3888 446.785 93.5188C446.045 94.2088 445.295 94.8988 444.645 95.6688C444.245 96.1488 444.035 96.7788 443.645 97.5088L443.655 97.5188Z" fill="white"/>
<path d="M532.105 131.029C532.575 131.029 533.045 131.029 533.515 131.029C535.165 131.029 536.695 131.359 538.025 132.429C538.725 132.989 539.645 133.289 540.275 133.899C541.275 134.859 542.355 135.719 543.015 137.049C543.695 138.419 544.385 139.719 544.405 141.309C544.405 142.109 544.875 142.919 544.815 143.699C544.725 145.039 544.545 146.409 544.115 147.669C543.745 148.739 542.905 149.629 542.395 150.659C541.525 152.389 539.965 153.379 538.475 154.419C537.795 154.889 536.885 155.009 536.135 155.399C534.185 156.419 532.105 155.919 530.075 155.969C528.925 155.999 527.935 155.479 527.005 154.809C526.525 154.469 525.915 154.309 525.375 154.049C523.585 153.189 522.375 151.739 521.335 150.099C520.535 148.829 519.955 147.509 519.875 145.969C519.825 145.039 519.455 144.119 519.425 143.189C519.365 141.409 520.085 139.809 520.635 138.139C521.325 136.059 522.945 134.849 524.345 133.479C525.165 132.679 526.445 132.229 527.565 131.689C529.105 130.939 530.605 131.229 532.115 131.049L532.105 131.029ZM538.555 143.399C538.755 139.559 535.445 136.889 532.065 136.899C528.805 136.899 525.655 139.529 525.655 143.459C525.655 147.149 528.435 149.839 532.085 149.859C535.915 149.889 538.785 146.889 538.555 143.399Z" fill="white"/>
<path d="M332.705 99.8285C332.705 100.699 332.705 101.469 332.705 102.239C332.715 103.509 332.005 104.469 331.465 105.549C331.035 106.399 330.645 107.209 329.955 107.879C329.145 108.659 328.525 109.878 327.565 110.228C326.175 110.738 325.195 112.118 323.455 111.968C322.295 111.868 321.065 112.539 319.905 112.439C317.825 112.249 315.835 111.889 313.885 110.689C312.085 109.589 310.895 108.019 309.405 106.699C309.025 106.359 308.835 105.769 308.645 105.269C308.325 104.429 307.885 103.569 307.815 102.689C307.685 100.919 307.645 99.1285 307.815 97.3685C307.905 96.3485 308.395 95.3485 308.805 94.3785C309.105 93.6685 309.495 92.9685 309.965 92.3585C310.455 91.7085 311.045 91.1185 311.675 90.5985C312.575 89.8485 313.545 89.1885 314.485 88.4985C314.535 88.4585 314.605 88.4485 314.675 88.4285C315.965 88.1185 317.255 87.8185 318.545 87.5085C319.025 87.3985 319.495 87.2785 319.975 87.1585C320.005 87.1585 320.035 87.1085 320.065 87.1185C321.395 87.3685 322.725 87.5885 324.035 87.8685C324.455 87.9585 324.835 88.1985 325.235 88.3385C326.405 88.7585 327.525 89.2585 328.395 90.2085C328.885 90.7485 329.445 91.2185 329.925 91.7685C330.395 92.3085 330.855 92.8785 331.225 93.4885C332.445 95.4585 333.075 97.5885 332.715 99.8385L332.705 99.8285ZM320.295 93.1085C320.275 93.2085 320.255 93.2985 320.235 93.3985C318.495 93.0685 317.085 93.8585 315.865 94.8785C315.155 95.4685 314.375 96.3785 314.265 97.2285C313.945 99.7085 313.375 102.289 315.495 104.429C316.285 105.229 317.215 105.868 318.185 106.038C320.375 106.418 322.645 106.569 324.465 104.819C325.335 103.979 326.345 103.219 326.305 101.799C326.305 101.529 326.535 101.248 326.555 100.968C326.595 100.308 326.605 99.6385 326.555 98.9785C326.535 98.6585 326.285 98.3485 326.295 98.0485C326.395 96.0685 324.885 95.1185 323.625 94.1985C322.725 93.5385 321.405 93.4585 320.265 93.1185L320.295 93.1085Z" fill="white"/>
<path d="M394.935 131.089C395.775 131.089 396.615 131.039 397.445 131.099C398.585 131.189 399.525 131.859 400.555 132.289C402.425 133.069 403.695 134.469 404.955 135.909C405.415 136.429 405.745 137.089 406.065 137.719C406.485 138.539 406.835 139.399 407.195 140.249C407.305 140.509 407.405 140.809 407.405 141.089C407.425 142.699 407.505 144.319 407.375 145.919C407.305 146.759 406.925 147.589 406.575 148.369C406.255 149.099 405.835 149.789 405.375 150.439C404.865 151.149 404.325 151.869 403.685 152.449C402.985 153.089 402.185 153.639 401.355 154.119C400.505 154.619 399.555 154.929 398.695 155.409C396.915 156.409 395.005 155.939 393.145 155.949C391.865 155.949 390.645 155.519 389.565 154.729C389.075 154.369 388.375 154.289 387.875 153.929C386.815 153.169 385.425 152.519 384.895 151.459C384.325 150.329 383.515 149.329 383.055 148.079C382.005 145.259 382.255 142.459 382.705 139.719C382.965 138.109 383.845 136.479 385.225 135.289C385.865 134.739 386.245 133.699 386.945 133.459C388.175 133.039 389.025 132.069 390.305 131.659C391.865 131.159 393.365 131.059 394.925 131.079L394.935 131.089ZM401.165 143.429C401.315 141.759 400.865 140.339 399.705 139.059C398.555 137.789 397.065 137.309 395.535 136.899C394.115 136.519 392.745 137.159 391.555 137.719C389.465 138.699 388.635 140.759 388.355 142.929C388.155 144.499 388.815 145.929 389.595 147.319C390.285 148.549 391.325 149.299 392.555 149.539C393.905 149.799 395.345 149.659 396.745 149.619C398.525 149.569 399.325 148.109 400.365 146.999C401.345 145.949 401.025 144.639 401.165 143.439V143.429Z" fill="white"/>
<path d="M571.135 103.199C571.465 101.829 571.735 100.459 572.155 99.1387C572.485 98.0787 573.025 97.0987 573.405 96.0487C573.715 95.2087 573.875 94.3086 574.185 93.4686C574.655 92.1786 574.725 90.7587 575.515 89.5687C575.775 89.1787 575.425 88.4587 576.215 88.2987C576.735 88.1887 577.215 87.8687 577.725 87.8287C578.865 87.7587 580.005 87.8287 581.145 87.7987C581.825 87.7787 582.125 88.1686 582.055 88.7086C581.975 89.3586 581.705 89.9887 581.495 90.6187C581.225 91.4187 580.785 92.1787 580.675 92.9987C580.505 94.3087 579.875 95.3687 579.295 96.4987C578.835 97.3887 578.775 98.4786 578.485 99.4586C578.245 100.269 577.905 101.049 577.625 101.849C577.175 103.119 576.745 104.389 576.295 105.649C576.065 106.279 575.815 106.909 575.555 107.529C574.915 109.099 574.285 110.669 573.635 112.229C573.125 113.449 572.735 114.749 572.035 115.849C571.035 117.409 570.045 119.069 568.135 119.779C567.705 119.939 567.315 120.249 566.965 120.549C566.215 121.199 565.315 121.099 564.425 121.199C563.815 121.259 563.215 121.469 562.615 121.619C561.915 121.799 561.355 121.629 561.325 120.839C561.275 119.099 561.305 117.359 561.305 115.539C561.805 115.509 562.165 115.469 562.525 115.469C564.795 115.429 566.665 113.799 567.175 111.579C567.415 110.529 567.095 109.769 566.585 108.929C566.155 108.209 565.925 107.369 565.615 106.569C565.305 105.749 565.045 104.919 564.685 104.119C564.325 103.309 563.865 102.549 563.485 101.749C563.025 100.779 562.585 99.7987 562.165 98.8087C561.865 98.0987 561.655 97.3586 561.355 96.6486C560.665 95.0086 559.965 93.3787 559.245 91.7487C558.815 90.7787 558.315 89.8487 557.905 88.8787C557.845 88.7487 558.045 88.3587 558.195 88.2987C558.775 88.0887 559.375 87.8786 559.975 87.8386C561.005 87.7686 562.055 87.7686 563.095 87.8386C563.995 87.8986 564.585 88.2387 565.005 89.2487C565.605 90.6887 565.725 92.3687 566.895 93.5587C566.955 93.6187 566.955 93.7486 566.985 93.8386C567.275 94.8886 567.505 95.9687 567.875 96.9987C568.145 97.7387 568.675 98.3887 568.965 99.1287C569.345 100.129 569.665 101.159 569.875 102.199C570.025 102.969 570.295 103.369 571.115 103.209L571.135 103.199Z" fill="white"/>
<path d="M287.825 131.919C289.445 130.869 291.185 131.349 292.855 131.349C293.455 131.349 294.085 131.789 294.085 132.699C294.055 139.909 294.065 147.118 294.085 154.338C294.085 154.848 294.085 155.339 293.425 155.349C291.595 155.369 289.765 155.349 287.885 155.349C287.855 154.569 287.825 153.909 287.785 152.979C287.245 153.409 286.875 153.709 286.485 153.999C285.915 154.429 285.395 155.009 284.745 155.249C283.755 155.619 282.695 155.819 281.645 155.969C280.925 156.079 280.175 155.989 279.435 155.979C278.235 155.969 277.215 155.549 276.305 154.739C275.885 154.359 275.235 154.239 274.805 153.869C273.215 152.499 272.355 150.838 272.005 148.648C271.155 143.378 271.835 138.119 271.575 132.859C271.525 131.809 272.055 131.288 273.095 131.278C274.065 131.268 275.045 131.219 276.015 131.299C276.615 131.349 277.185 131.639 277.795 131.819C277.795 136.299 277.835 140.689 277.775 145.079C277.755 146.679 278.345 147.969 279.355 149.129C279.435 149.229 279.495 149.409 279.595 149.419C280.925 149.669 282.165 150.769 283.555 150.219C285.045 149.629 286.415 149.019 287.235 147.219C287.985 145.559 287.775 144.009 287.815 142.419C287.905 138.929 287.845 135.448 287.845 131.898L287.825 131.919Z" fill="white"/>
<path d="M487.975 131.939V133.139C489.015 133.719 489.415 132.699 489.965 132.319C490.825 131.719 491.675 131.139 492.725 131.089C494.195 131.019 495.675 131.019 497.145 131.089C498.575 131.149 499.785 131.909 500.755 132.849C501.795 133.839 502.615 135.059 503.525 136.189C503.565 136.239 503.575 136.309 503.585 136.379C503.795 137.779 504.165 139.179 504.185 140.579C504.265 145.179 504.205 149.769 504.235 154.369C504.235 155.049 504.025 155.379 503.355 155.389C501.615 155.389 499.875 155.389 498.005 155.389C497.985 154.949 497.945 154.569 497.945 154.179C497.945 149.919 497.945 145.659 497.945 141.399C497.945 139.959 497.325 138.749 496.415 137.729C496.025 137.289 495.315 136.999 494.715 136.909C492.295 136.539 490.125 136.779 488.575 139.429C488.065 140.299 487.965 141.049 487.955 141.899C487.925 145.989 487.935 150.089 487.935 154.179C487.935 154.539 487.935 154.899 487.935 155.369C485.985 155.369 484.155 155.369 482.325 155.369C481.555 155.369 481.645 154.809 481.645 154.299C481.645 148.999 481.645 143.699 481.645 138.399C481.645 136.519 481.695 134.639 481.625 132.759C481.585 131.769 482.285 131.359 482.915 131.359C484.575 131.359 486.325 130.879 487.975 131.959V131.939Z" fill="white"/>
<path d="M337.025 111.869V88.4085C338.575 87.3485 340.385 87.8586 342.095 87.8786C342.655 87.8786 343.525 88.2986 343.335 89.3186C343.315 89.4486 343.465 89.6786 343.605 89.7586C343.695 89.8086 343.945 89.7286 344.035 89.6286C345.365 88.1986 347.135 87.8485 348.945 87.4185C350.415 87.0685 351.775 87.3985 353.055 87.7385C354.555 88.1385 355.885 88.9686 357.025 90.2686C357.875 91.2386 358.165 92.3886 358.845 93.3686C359.035 93.6386 359.025 94.0786 359.025 94.4386C359.065 99.9386 359.085 105.439 359.135 110.939C359.135 111.599 358.945 111.899 358.215 111.869C356.615 111.819 355.015 111.849 353.315 111.849C353.285 111.259 353.235 110.759 353.235 110.269C353.235 106.239 353.335 102.219 353.185 98.1986C353.115 96.4086 352.695 94.7485 350.955 93.5985C350.725 93.4485 350.405 93.3685 350.115 93.3585C349.045 93.3285 347.965 93.3085 346.895 93.3385C345.635 93.3785 344.575 94.5185 343.955 95.5485C342.995 97.1385 343.355 98.7785 343.315 100.399C343.245 103.819 343.275 107.239 343.315 110.659C343.325 111.539 343.005 111.869 342.155 111.849C340.485 111.819 338.805 111.849 337.005 111.849L337.025 111.869Z" fill="white"/>
<path d="M417.585 133.049C418.595 133.709 418.985 132.679 419.615 132.399C420.535 131.999 421.395 131.279 422.345 131.159C423.925 130.949 425.555 131.079 427.165 131.099C427.725 131.099 428.985 131.839 429.675 132.369C430.005 132.629 430.525 132.659 430.805 132.949C431.395 133.579 431.865 134.309 432.405 134.989C433.755 136.699 433.855 138.709 433.845 140.769C433.825 145.259 433.845 149.759 433.845 154.249C433.845 154.579 433.845 154.909 433.845 155.339C431.885 155.339 430.015 155.359 428.155 155.339C427.465 155.339 427.535 154.789 427.535 154.309C427.535 150.349 427.535 146.399 427.535 142.439C427.535 141.669 427.495 140.899 427.435 140.129C427.295 138.489 425.775 136.989 424.135 136.829C422.665 136.689 421.195 136.699 419.955 137.559C419.285 138.019 418.595 138.679 418.315 139.409C417.885 140.529 417.615 141.779 417.585 142.979C417.495 146.769 417.525 150.559 417.575 154.349C417.585 155.209 417.305 155.449 416.485 155.409C415.215 155.349 413.935 155.339 412.665 155.409C411.825 155.459 411.655 155.119 411.665 154.359C411.685 147.149 411.675 139.939 411.675 132.729C411.675 131.459 411.845 131.309 413.145 131.299C414.015 131.299 414.885 131.299 415.765 131.299C417.475 131.299 417.505 131.329 417.585 133.049Z" fill="white"/>
<path d="M555.135 133.078C556.205 133.728 556.475 132.568 557.135 132.308C558.045 131.958 558.875 131.278 559.795 131.148C561.245 130.938 562.735 131.028 564.215 131.068C565.655 131.108 566.705 132.068 567.885 132.738C569.095 133.418 569.615 134.578 570.285 135.628C570.775 136.398 571.225 137.358 571.245 138.238C571.345 143.838 571.305 149.438 571.315 155.038C571.315 155.098 571.275 155.158 571.215 155.338C569.395 155.338 567.535 155.358 565.665 155.338C564.985 155.338 565.045 154.788 565.045 154.308C565.045 150.348 565.045 146.388 565.045 142.428C565.045 141.688 565.015 140.948 564.945 140.218C564.805 138.508 563.225 136.978 561.515 136.818C560.045 136.688 558.575 136.718 557.335 137.568C556.695 138.008 556.045 138.698 555.805 139.408C555.385 140.638 555.115 141.978 555.085 143.278C554.995 146.968 555.035 150.658 555.065 154.348C555.065 155.118 554.885 155.438 554.055 155.398C552.715 155.338 551.375 155.348 550.035 155.398C549.325 155.418 549.115 155.148 549.115 154.458C549.135 147.178 549.125 139.898 549.115 132.618C549.115 131.728 549.425 131.228 550.415 131.278C551.285 131.328 552.155 131.288 553.035 131.288C554.288 131.288 554.988 131.885 555.135 133.078Z" fill="white"/>
<path d="M430.995 111.829H424.555V84.7886H415.315V80.6286C415.315 79.0686 416.082 78.2886 417.615 78.2886C424.555 78.2886 431.505 78.2886 438.445 78.2886C439.005 78.2886 439.565 78.3686 440.195 78.4086C440.195 80.3086 440.195 82.1086 440.195 83.9186C440.195 84.7086 439.575 84.6886 439.045 84.6886C436.835 84.6986 434.615 84.6886 432.405 84.6886C431.975 84.6886 431.555 84.6886 431.005 84.6886V111.799L430.995 111.829Z" fill="white"/>
<path d="M321.305 137.278C320.145 137.948 319.095 138.508 318.095 139.148C316.655 140.068 315.935 139.919 314.825 138.679C314.335 138.129 313.545 137.639 312.835 137.539C311.455 137.359 310.015 137.339 308.625 137.509C307.315 137.669 306.215 138.439 305.565 139.639C305.115 140.459 304.625 141.309 304.455 142.199C304.285 143.039 304.405 143.969 304.585 144.819C304.765 145.639 305.025 146.548 305.545 147.158C306.605 148.388 307.665 149.759 309.605 149.629C310.435 149.569 311.285 149.628 312.115 149.598C313.565 149.548 314.625 148.768 315.545 147.708C315.835 147.368 316.215 147.109 316.555 146.809C317.725 147.529 318.825 148.288 320.005 148.898C321.505 149.668 321.685 150.449 320.435 151.619C319.845 152.169 319.205 152.669 318.575 153.179C318.005 153.639 317.465 154.159 316.825 154.499C316.105 154.879 315.235 154.988 314.545 155.408C312.925 156.378 311.185 155.899 309.505 155.979C308.015 156.039 306.635 155.608 305.405 154.708C305.015 154.418 304.465 154.359 304.075 154.079C302.995 153.309 301.925 152.528 300.935 151.658C300.485 151.258 300.225 150.649 299.905 150.109C299.475 149.369 299.065 148.619 298.675 147.859C298.575 147.659 298.495 147.419 298.495 147.189C298.485 144.749 298.395 142.299 298.535 139.859C298.585 139.069 299.215 138.299 299.615 137.539C299.905 136.989 300.185 136.409 300.585 135.939C301.495 134.859 302.285 133.649 303.705 133.079C304.205 132.879 304.575 132.379 305.005 132.009C305.055 131.969 305.105 131.908 305.155 131.898C306.215 131.618 307.255 131.219 308.335 131.109C309.665 130.959 311.015 131.049 312.355 131.039C314.365 131.019 316.085 131.849 317.615 133.049C318.835 133.999 319.965 135.068 321.075 136.148C321.305 136.368 321.225 136.898 321.295 137.278H321.305Z" fill="white"/>
<path d="M287.775 93.9786C287.775 94.5586 287.775 94.9886 287.775 95.4186C287.775 98.2986 287.775 101.189 287.795 104.069C287.805 105.599 288.305 106.069 289.855 106.139C290.555 106.169 291.265 106.199 291.965 106.149C292.685 106.099 292.915 106.419 292.905 107.079C292.885 108.419 292.875 109.759 292.905 111.099C292.915 111.719 292.655 111.909 292.065 111.899C290.655 111.869 289.245 111.869 287.845 111.899C286.035 111.939 284.675 111.199 283.405 109.909C282.645 109.129 282.355 108.269 281.915 107.369C281.245 105.969 281.445 104.589 281.425 103.199C281.375 100.189 281.405 97.1686 281.405 93.9886C280.355 93.9886 279.365 93.9486 278.375 93.9986C277.465 94.0386 277.115 93.6686 277.165 92.7586C277.215 91.6886 277.185 90.6086 277.185 89.5386C277.185 88.3586 277.675 87.8587 278.885 87.8287C280.571 87.782 281.415 86.9086 281.415 85.2086C281.415 84.7686 281.315 84.3086 281.435 83.9086C281.575 83.4786 281.845 82.9486 282.205 82.7786C282.985 82.4086 283.855 82.2286 284.695 81.9786C285.355 81.7786 286.025 81.5886 286.685 81.3686C287.335 81.1486 287.775 81.4186 287.785 82.1686C287.805 83.7486 287.815 85.3186 287.785 86.8986C287.765 87.5886 287.995 87.8686 288.705 87.8486C289.745 87.8086 290.785 87.7786 291.815 87.8686C292.195 87.8986 292.835 88.2886 292.845 88.5486C292.935 90.3386 292.895 92.1286 292.895 93.9986H287.795L287.775 93.9786Z" fill="white"/>
<path d="M497.225 106.118V111.808C494.995 111.808 492.755 112.118 490.675 111.698C489.265 111.408 487.965 110.368 487.075 108.818C485.825 106.638 485.865 104.398 485.865 102.088C485.865 99.7084 485.835 97.3285 485.875 94.9385C485.885 94.2085 485.685 93.8784 484.915 93.9584C484.345 94.0084 483.775 93.9684 483.205 93.9584C482.245 93.9584 481.765 93.4885 481.755 92.5185C481.735 91.4785 481.755 90.4384 481.755 89.3984C481.755 88.3384 482.265 87.8185 483.305 87.7985C485.855 87.7585 485.855 87.7585 485.865 85.1685C485.865 84.3785 485.605 83.4885 486.475 82.9285C486.555 82.8785 486.595 82.7485 486.675 82.7285C487.715 82.4485 488.765 82.1884 489.805 81.9084C490.535 81.7084 491.255 81.4785 492.195 81.1885C492.195 83.0485 492.195 84.7185 492.195 86.3785C492.195 87.3318 492.675 87.8085 493.635 87.8085C494.505 87.8085 495.385 87.8285 496.255 87.7985C496.945 87.7685 497.275 88.0985 497.285 88.7385C497.305 90.2185 497.285 91.6885 497.285 93.1685C497.285 93.7285 497.075 94.0085 496.445 93.9885C495.305 93.9385 494.165 93.9884 493.025 93.9684C492.435 93.9584 492.185 94.1285 492.185 94.7685C492.215 97.9185 492.185 101.078 492.215 104.228C492.215 105.448 492.805 106.038 494.065 106.108C495.065 106.158 496.075 106.118 497.215 106.118H497.225Z" fill="white"/>
<path d="M351.875 137.489C351.875 135.619 351.805 133.878 351.935 132.148C351.955 131.838 352.735 131.419 353.215 131.339C353.835 131.239 354.505 131.419 355.445 131.499C356.125 131.289 356.225 130.529 356.145 129.629C356.085 128.999 356.135 128.359 356.135 127.719C356.135 126.769 356.635 126.329 357.585 126.119C358.945 125.809 360.275 125.378 361.775 124.958C361.825 125.188 361.965 125.579 361.975 125.969C362.005 127.039 361.985 128.119 361.975 129.189C361.975 130.139 361.735 131.169 363.075 131.569C364.345 131.199 365.735 130.989 367.105 131.639C367.315 131.739 367.555 132.059 367.565 132.279C367.605 133.949 367.585 135.629 367.585 137.479C366.235 137.479 364.945 137.479 363.655 137.479C362.025 137.479 361.975 137.539 361.975 139.189C361.975 141.739 361.975 144.289 361.975 146.839C361.975 148.569 362.975 149.599 364.715 149.659C365.415 149.689 366.125 149.619 366.825 149.699C367.085 149.729 367.515 150.059 367.525 150.259C367.585 151.919 367.555 153.589 367.555 155.179C366.575 155.419 365.685 155.779 364.795 155.819C363.995 155.859 363.185 155.439 362.375 155.419C360.655 155.389 359.285 154.529 357.955 153.639C357.435 153.289 357.145 152.509 356.905 151.859C355.355 147.689 356.445 143.349 356.155 139.089C356.045 137.469 356.145 137.469 354.485 137.469C353.655 137.469 352.825 137.469 351.875 137.469V137.489Z" fill="white"/>
<path d="M437.975 182.949C437.975 182.249 437.945 181.559 437.975 180.859C438.015 180.049 438.355 179.589 439.285 179.599C440.225 179.609 440.315 180.189 440.305 180.859C440.295 187.869 440.255 194.879 440.255 201.879C440.255 202.959 439.525 203.669 439.105 204.549C438.685 205.419 438.225 206.169 437.405 206.699C436.795 207.089 436.265 207.589 435.655 207.979C435.205 208.259 434.705 208.519 434.195 208.619C432.695 208.919 431.145 209.429 429.665 209.309C427.765 209.149 425.845 208.609 424.045 207.939C422.455 207.339 422.025 206.609 420.475 204.159C420.995 203.819 421.485 203.409 422.045 203.149C422.965 202.719 423.365 203.619 423.795 204.079C424.725 205.079 425.645 205.759 427.095 206.029C428.455 206.279 429.815 206.729 431.175 206.479C433.365 206.079 435.435 205.499 436.735 203.289C437.835 201.439 437.975 199.539 437.975 197.549C436.955 196.919 436.595 197.899 436.205 198.319C434.635 199.979 432.875 201.069 430.505 200.949C429.465 200.899 428.425 200.929 427.385 200.899C426.235 200.869 425.275 200.419 424.405 199.639C423.715 199.019 422.715 198.699 422.135 198.019C421.465 197.239 420.445 196.759 420.195 195.559C420.005 194.599 419.405 193.709 419.025 192.779C418.925 192.539 418.915 192.259 418.905 191.989C418.885 190.979 418.835 189.979 418.895 188.969C418.975 187.609 419.595 186.409 420.095 185.159C420.745 183.529 421.935 182.439 423.215 181.419C423.845 180.919 424.675 180.669 425.345 180.199C426.965 179.059 428.785 179.649 430.525 179.499C433.215 179.269 435.015 180.819 436.735 182.569C436.995 182.829 437.365 182.979 437.685 183.189C437.775 183.109 437.875 183.029 437.965 182.949H437.975ZM429.675 198.079C430.985 197.889 432.445 198.509 433.615 197.419C434.475 196.619 435.425 195.919 436.255 195.099C436.555 194.809 436.525 194.189 436.815 193.889C437.765 192.929 437.725 191.609 437.895 190.479C438.055 189.379 437.545 188.189 437.325 187.039C437.315 186.979 437.285 186.909 437.245 186.859C436.555 185.949 435.975 184.939 435.155 184.159C434.175 183.239 433.145 182.269 431.605 182.319C430.165 182.359 428.725 182.339 427.285 182.369C426.965 182.369 426.575 182.419 426.325 182.589C425.525 183.169 424.755 183.789 424.005 184.439C422.905 185.399 422.105 186.659 421.825 188.009C421.535 189.389 421.655 190.889 421.795 192.309C421.875 193.069 422.265 193.879 422.735 194.479C423.505 195.459 424.395 196.369 425.365 197.159C425.985 197.659 426.675 198.229 427.645 198.079C428.305 197.979 428.985 198.059 429.655 198.059L429.675 198.079Z" fill="white"/>
<path d="M347.105 182.299C348.335 181.359 349.445 180.489 350.585 179.659C350.755 179.539 351.035 179.559 351.265 179.549C352.405 179.529 353.545 179.509 354.685 179.509C356.255 179.509 357.395 180.259 358.415 181.439C358.765 181.839 359.075 182.809 359.985 182.359C360.355 182.179 360.715 181.889 360.965 181.569C362.185 179.959 363.825 179.369 365.785 179.489C366.115 179.509 366.465 179.539 366.795 179.489C369.175 179.109 370.775 180.579 372.345 181.949C372.885 182.419 373.105 183.329 373.315 184.079C374.755 189.199 373.645 194.429 373.975 199.599C374.035 200.499 373.165 200.699 372.545 200.729C371.865 200.769 371.175 200.509 371.175 199.549C371.175 195.219 371.185 190.889 371.155 186.569C371.145 185.089 370.345 184.039 369.265 183.029C367.945 181.799 366.465 182.459 365.065 182.309C363.525 182.149 362.685 183.159 361.855 184.229C360.825 185.569 360.515 187.099 360.525 188.739C360.525 192.259 360.525 195.789 360.525 199.309C360.525 200.559 360.335 200.779 359.295 200.789C358.245 200.789 357.705 200.279 357.705 199.259C357.685 194.999 357.645 190.739 357.665 186.479C357.675 184.679 356.545 183.599 355.425 182.489C355.295 182.359 354.985 182.369 354.755 182.359C353.785 182.329 352.805 182.399 351.845 182.299C350.265 182.129 349.315 183.139 348.465 184.139C347.435 185.349 347.065 186.909 347.035 188.459C346.965 192.049 347.005 195.639 347.005 199.229C347.005 200.559 346.805 200.799 345.765 200.799C344.845 200.799 344.265 200.159 344.265 199.119C344.265 193.179 344.265 187.239 344.265 181.299C344.265 180.389 344.905 179.699 345.685 179.629C346.615 179.549 346.955 180.019 346.995 180.859C347.015 181.339 347.065 181.809 347.105 182.309V182.299Z" fill="white"/>
<path d="M400.275 111.808H394.045V77.0684H400.275V111.808Z" fill="white"/>
<path d="M549.155 111.869C547.305 111.869 545.595 111.879 543.885 111.869C543.155 111.869 542.945 111.399 542.955 110.719C542.975 108.669 542.955 106.629 542.955 104.579C542.955 99.5086 542.955 94.4486 542.955 89.3786C542.955 88.4786 543.535 87.8386 544.445 87.8186C545.555 87.7886 546.665 87.7886 547.765 87.8186C548.775 87.8486 549.215 88.3586 549.225 89.3686C549.225 89.8386 549.245 90.3086 549.295 90.7686C549.305 90.8986 549.455 91.0786 549.565 91.1086C549.655 91.1286 549.865 90.9986 549.915 90.8786C550.375 89.7386 551.315 88.9686 552.305 88.4986C553.495 87.9286 554.875 87.7386 556.385 87.3286C556.385 89.6886 556.385 91.7186 556.365 93.7486C556.365 93.8886 556.155 94.1086 556.005 94.1486C555.155 94.3786 554.255 94.4686 553.445 94.7786C552.025 95.3086 550.755 95.9686 549.885 97.4286C549.205 98.5586 549.255 99.6386 549.245 100.779C549.205 103.969 549.245 107.149 549.225 110.339C549.225 110.799 549.185 111.259 549.155 111.869Z" fill="white"/>
<path d="M487.965 191.759C482.175 191.759 476.415 191.759 470.665 191.759C470.555 191.759 470.455 191.899 470.415 191.919C470.585 192.649 470.615 193.389 470.925 193.959C471.505 195.009 471.905 196.249 473.255 196.699C473.645 196.829 474.095 197.099 474.285 197.439C474.685 198.169 475.335 198.029 475.925 198.049C477.365 198.099 478.815 197.959 480.245 198.119C481.845 198.289 482.725 197.229 483.755 196.399C484.095 196.129 484.285 195.629 484.655 195.439C484.985 195.269 485.465 195.379 485.865 195.399C485.945 195.399 485.985 195.639 486.095 195.709C486.545 195.989 487.615 195.739 487.155 196.789C486.935 197.279 486.445 197.679 486.015 198.049C485.225 198.729 484.435 199.449 483.555 199.999C482.895 200.409 482.095 200.789 481.335 200.829C479.335 200.939 477.315 200.959 475.315 200.829C474.475 200.769 473.605 200.389 472.935 199.679C472.555 199.279 471.865 199.169 471.425 198.799C470.295 197.849 469.335 196.829 468.635 195.419C467.545 193.229 467.115 191.019 467.425 188.669C467.555 187.659 468.055 186.699 468.445 185.729C468.685 185.139 469.165 184.619 469.315 184.009C469.585 182.939 470.475 182.399 471.175 181.789C472.195 180.909 473.465 180.319 474.645 179.629C474.825 179.519 475.105 179.559 475.335 179.559C476.775 179.539 478.225 179.589 479.655 179.499C481.465 179.389 482.895 180.299 484.155 181.309C485.315 182.239 486.295 183.469 487.135 184.709C487.625 185.439 487.835 186.449 487.915 187.349C488.045 188.729 487.945 190.129 487.945 191.749L487.965 191.759ZM470.215 188.679H485.685C485.455 188.289 485.205 188.069 485.215 187.859C485.275 186.599 484.625 185.759 483.845 184.839C482.545 183.319 481.195 182.089 479.025 182.279C478.725 182.309 478.425 182.259 478.125 182.259C476.355 182.279 474.565 182.169 473.225 183.709C472.825 184.169 472.055 184.369 471.795 184.869C471.175 186.039 470.765 187.309 470.225 188.669L470.215 188.679Z" fill="white"/>
<path d="M238.105 191.789C238.655 193.659 239.205 195.249 240.635 196.329C241.805 197.209 242.845 198.309 244.565 198.129C245.925 197.989 247.315 198.039 248.685 198.089C249.655 198.119 250.255 197.589 250.885 196.969C251.515 196.359 252.205 195.799 252.945 195.329C253.165 195.189 253.645 195.339 253.965 195.479C254.315 195.619 254.605 195.899 254.995 196.159C255.315 197.089 254.495 197.539 253.915 198.059C253.105 198.779 252.265 199.489 251.345 200.059C250.675 200.469 249.875 200.809 249.105 200.849C247.165 200.959 245.205 200.999 243.285 200.819C242.405 200.739 241.555 200.109 240.735 199.639C239.915 199.169 239.135 198.609 238.375 198.039C238.045 197.799 237.705 197.499 237.505 197.139C237.105 196.429 236.755 195.689 236.465 194.929C236.025 193.799 235.535 192.669 235.275 191.499C235.085 190.679 235.185 189.779 235.265 188.919C235.315 188.379 235.585 187.869 235.725 187.339C236.005 186.289 236.335 185.269 237.045 184.399C237.355 184.019 237.595 183.559 237.805 183.109C238.325 181.989 239.475 181.599 240.345 180.909C242.945 178.839 246.035 179.389 248.945 179.669C250.005 179.769 251.385 180.259 252.195 181.419C252.655 182.079 253.465 182.499 253.875 183.169C254.635 184.389 255.705 185.449 255.825 187.039C255.905 188.069 256.295 189.079 256.365 190.119C256.465 191.619 256.395 191.629 254.905 191.629C249.775 191.629 244.645 191.629 239.515 191.629C239.075 191.629 238.625 191.729 238.115 191.789H238.105ZM238.015 188.679H253.565C253.535 188.309 253.615 187.959 253.475 187.719C252.795 186.499 252.185 185.199 251.305 184.139C250.475 183.139 249.345 182.359 247.915 182.329C246.915 182.309 245.905 182.279 244.905 182.299C243.825 182.319 242.715 182.239 241.845 183.109C241.595 183.359 241.275 183.539 241.015 183.789C240.455 184.339 239.775 184.839 239.395 185.499C238.835 186.449 238.495 187.519 238.015 188.669V188.679Z" fill="white"/>
<path d="M472.435 91.2785C473.535 90.3085 474.365 89.5385 475.235 88.8285C475.515 88.5985 475.895 88.4485 476.245 88.3385C477.035 88.0685 477.825 87.7585 478.635 87.6285C479.845 87.4385 480.035 87.6685 480.035 88.8685C480.035 90.3085 480.065 91.7485 480.015 93.1885C480.005 93.4985 479.725 93.9685 479.465 94.0485C478.545 94.3585 477.535 94.4385 476.635 94.7785C475.825 95.0885 475.115 95.6485 474.345 96.0585C473.435 96.5385 473.235 97.3286 472.975 98.2686C471.895 102.199 472.715 106.179 472.445 110.129C472.415 110.529 472.425 110.929 472.385 111.329C472.375 111.489 472.295 111.639 472.245 111.819H466.625C466.605 111.389 466.565 110.999 466.565 110.609C466.565 103.469 466.565 96.3285 466.565 89.1885C466.565 87.9185 466.685 87.8085 467.925 87.7985C469.035 87.7985 470.135 87.8385 471.245 87.7885C472.145 87.7485 472.435 88.2285 472.445 89.0085C472.455 89.6885 472.445 90.3686 472.445 91.2686L472.435 91.2785Z" fill="white"/>
<path d="M327.615 183.349C327.675 182.469 327.725 181.849 327.745 181.239C327.765 180.439 328.505 179.619 329.225 179.629C330.065 179.639 330.545 180.219 330.545 181.229C330.545 187.259 330.545 193.299 330.545 199.329C330.545 200.089 330.605 200.849 329.455 200.799C328.425 200.749 327.755 200.189 327.745 199.239C327.745 198.769 327.775 198.289 327.695 197.839C327.675 197.719 327.195 197.519 327.125 197.579C326.575 198.059 326.115 198.629 325.565 199.099C324.465 200.029 323.285 200.869 321.755 200.909C320.645 200.939 319.545 200.909 318.435 200.949C316.955 200.999 315.755 200.329 314.455 199.709C312.855 198.949 312.005 197.489 310.715 196.459C310.275 196.109 310.165 195.339 309.885 194.779C308.775 192.569 309.095 190.189 309.235 187.879C309.295 186.919 309.955 186.009 310.295 185.059C310.625 184.149 311.265 183.499 311.915 182.819C312.975 181.719 314.075 180.809 315.525 180.139C317.835 179.069 320.155 179.539 322.455 179.649C323.495 179.699 324.565 180.549 325.505 181.199C326.215 181.689 326.745 182.449 327.605 183.359L327.615 183.349ZM319.835 198.109C321.135 197.849 322.605 198.579 323.765 197.399C324.335 196.819 325.085 196.429 325.685 195.869C326.125 195.459 326.515 194.949 326.815 194.429C327.265 193.659 327.845 192.949 327.725 191.919C327.615 190.999 327.575 190.019 327.755 189.109C328.125 187.249 326.905 185.859 325.985 184.799C324.765 183.409 323.135 181.919 320.845 182.269C320.385 182.339 319.905 182.279 319.435 182.249C317.575 182.129 315.885 182.559 314.535 183.889C313.085 185.319 311.815 186.859 311.935 189.099C311.995 190.169 311.825 191.269 312.035 192.309C312.225 193.259 312.675 194.209 313.215 195.029C313.715 195.799 314.485 196.369 315.265 196.939C316.265 197.659 317.175 198.199 318.425 198.109C318.895 198.069 319.365 198.109 319.835 198.109Z" fill="white"/>
<path d="M391.675 171.809C391.725 172.259 391.805 172.679 391.805 173.109C391.805 175.729 391.795 178.339 391.815 180.959C391.815 181.419 391.995 181.879 392.095 182.339C392.455 182.069 392.895 181.869 393.165 181.529C394.305 180.049 395.815 179.449 397.645 179.499C398.515 179.519 399.385 179.509 400.265 179.499C401.805 179.499 403.005 180.239 404.065 181.249C404.725 181.879 405.485 182.499 405.885 183.279C406.345 184.199 406.675 185.289 406.705 186.309C406.805 190.739 406.775 195.169 406.765 199.589C406.765 200.469 405.965 200.719 405.325 200.719C404.655 200.719 403.965 200.449 403.965 199.499C403.975 195.539 403.905 191.579 404.005 187.629C404.035 186.299 403.695 185.069 403.075 184.089C402.565 183.279 401.785 182.269 400.465 182.319C399.365 182.359 398.255 182.299 397.145 182.289C395.285 182.269 394.085 183.239 393.095 184.749C392.125 186.229 391.805 187.789 391.815 189.509C391.845 192.759 391.815 196.019 391.815 199.269C391.815 200.209 391.275 200.779 390.395 200.769C389.595 200.759 388.975 200.089 388.975 199.259C388.975 190.709 388.975 182.149 388.975 173.599C388.975 171.779 389.075 171.679 390.925 171.729C391.155 171.729 391.385 171.769 391.695 171.799L391.675 171.809Z" fill="white"/>
<path d="M446.045 171.849C448.495 171.459 448.715 171.649 448.715 173.959C448.715 176.439 448.715 178.919 448.725 181.409C448.725 181.719 448.875 182.019 448.955 182.319C449.165 182.139 449.385 181.979 449.575 181.789C451.065 180.399 452.635 179.249 454.855 179.479C455.655 179.559 456.465 179.489 457.265 179.509C459.155 179.559 460.535 180.589 461.645 181.969C463.215 183.919 463.885 186.149 463.785 188.699C463.645 192.249 463.755 195.809 463.755 199.359C463.755 200.129 463.135 200.739 462.345 200.769C461.555 200.799 460.955 200.189 460.955 199.359C460.955 195.299 461.045 191.239 460.905 187.189C460.835 185.339 460.015 183.649 458.335 182.579C458.095 182.429 457.765 182.369 457.475 182.359C456.335 182.319 455.195 182.339 454.065 182.279C452.035 182.179 450.695 183.409 449.705 184.869C449.095 185.769 448.825 187.049 448.785 188.179C448.665 191.869 448.725 195.559 448.705 199.249C448.705 200.159 448.125 200.799 447.315 200.769C446.435 200.739 445.915 200.179 445.915 199.239C445.915 190.549 445.915 181.869 445.915 173.179C445.915 172.719 445.995 172.259 446.035 171.829L446.045 171.849Z" fill="white"/>
<path d="M371.935 131.919C373.485 130.809 375.275 131.359 376.955 131.369C377.565 131.369 378.225 131.849 378.215 132.889C378.155 140.029 378.185 147.169 378.185 154.309C378.185 154.749 378.345 155.329 377.605 155.339C375.735 155.349 373.875 155.339 371.935 155.339V131.919Z" fill="white"/>
<path d="M507.885 111.809H501.625C501.595 111.259 501.535 110.769 501.535 110.279C501.535 103.309 501.535 96.3286 501.535 89.3586C501.535 88.4086 502.035 87.8587 503.005 87.8287C504.115 87.7987 505.215 87.7987 506.325 87.8287C507.415 87.8587 507.885 88.3886 507.885 89.4686C507.885 96.4086 507.885 103.349 507.885 110.289V111.809Z" fill="white"/>
<path d="M303.455 111.858C301.535 111.858 299.775 111.878 298.005 111.848C297.335 111.838 297.135 111.378 297.145 110.748C297.165 109.078 297.145 107.398 297.145 105.718C297.145 100.288 297.145 94.8684 297.145 89.4384C297.145 88.4784 297.715 87.8384 298.665 87.8184C299.735 87.7884 300.805 87.7884 301.885 87.8184C303.005 87.8484 303.445 88.3284 303.445 89.4584C303.445 96.3984 303.445 103.328 303.445 110.268C303.445 110.758 303.445 111.258 303.445 111.868L303.455 111.858Z" fill="white"/>
<path d="M515.185 143.589C515.185 147.139 515.155 150.689 515.205 154.239C515.215 155.089 515.015 155.449 514.095 155.399C512.755 155.329 511.415 155.359 510.075 155.389C509.475 155.399 509.245 155.199 509.245 154.579C509.255 147.209 509.245 139.839 509.245 132.469C509.245 131.639 509.625 131.259 510.475 131.279C511.615 131.309 512.755 131.319 513.895 131.279C514.875 131.249 515.185 131.729 515.185 132.629C515.175 136.279 515.185 139.929 515.185 143.579V143.589Z" fill="white"/>
<path d="M280.885 196.139C281.255 195.879 281.615 195.599 282.005 195.369C282.895 194.839 283.155 195.749 283.515 196.159C284.355 197.099 285.085 198.119 286.545 198.089C287.685 198.059 288.825 198.089 289.965 198.089C292.495 198.119 293.525 195.999 292.805 194.049C292.555 193.369 291.685 192.909 291.075 192.369C290.315 191.709 289.305 191.789 288.435 191.499C286.625 190.909 284.575 190.769 283.095 189.419C282.215 188.619 281.195 187.809 281.355 186.339C281.435 185.579 281.425 184.799 281.365 184.029C281.255 182.559 282.345 181.819 283.195 180.979C285.395 178.819 288.195 179.439 290.815 179.619C291.685 179.679 292.605 180.369 293.325 180.979C294.125 181.659 294.725 182.579 295.405 183.389C294.915 183.789 294.575 184.099 294.205 184.359C293.625 184.779 292.745 184.429 292.085 183.539C291.545 182.809 290.935 182.239 289.915 182.299C289.015 182.349 288.095 182.369 287.205 182.249C286.095 182.109 285.385 182.879 284.495 183.239C284.345 183.299 284.245 183.629 284.235 183.839C284.185 184.609 284.165 185.379 284.175 186.139C284.175 186.809 284.285 187.359 285.185 187.449C285.595 187.489 286.105 187.839 286.315 188.199C286.695 188.839 287.265 188.639 287.785 188.789C289.075 189.159 290.325 189.669 291.635 189.999C292.765 190.279 293.715 190.829 294.495 191.619C294.985 192.099 295.445 192.739 295.605 193.389C295.805 194.219 295.645 195.119 295.705 195.989C295.825 197.569 294.825 198.459 293.795 199.429C291.995 201.119 289.805 200.889 287.625 200.939C284.825 201.009 282.775 199.789 281.315 197.459C281.065 197.059 280.825 196.659 280.585 196.249L280.905 196.109L280.885 196.139Z" fill="white"/>
<path d="M234.265 198.019C234.205 199.039 234.685 200.019 233.585 200.549C233.305 200.689 232.965 200.769 232.645 200.769C228.355 200.779 224.055 200.779 219.765 200.769C218.505 200.769 218.005 200.249 218.005 198.989C218.005 190.529 218.005 182.079 218.005 173.619C218.005 171.689 218.005 171.678 219.975 171.718C220.205 171.718 220.435 171.739 220.765 171.759C220.805 172.289 220.865 172.779 220.865 173.269C220.865 180.989 220.865 188.698 220.865 196.418C220.865 197.908 220.955 197.999 222.475 197.999C225.895 197.999 229.315 197.999 232.745 197.999H234.265V198.019Z" fill="white"/>
<path d="M262.115 179.629C262.115 178.209 262.065 177.009 262.145 175.809C262.175 175.419 262.455 174.809 262.745 174.719C263.355 174.539 264.045 174.609 264.695 174.649C264.775 174.649 264.885 175.109 264.885 175.359C264.905 176.469 264.865 177.569 264.905 178.679C264.915 179.119 265.075 179.549 265.145 179.869C266.935 179.689 268.525 179.219 270.125 180.079C271.175 180.639 270.395 181.509 270.755 182.349H265.075C265.005 182.979 264.905 183.469 264.905 183.959C264.895 187.679 264.875 191.399 264.915 195.119C264.925 195.989 264.645 197.019 265.625 197.639C265.865 197.799 266.115 198.039 266.375 198.049C267.375 198.109 268.385 198.089 269.385 198.089C270.025 198.089 270.665 197.999 270.675 198.989C270.695 200.089 270.345 200.839 269.505 200.809C268.125 200.759 266.775 201.049 265.345 200.379C263.385 199.469 262.055 198.109 262.095 195.659C262.165 191.739 262.115 187.819 262.105 183.899C262.105 182.399 262.105 182.399 260.585 182.399C259.745 182.399 258.915 182.379 258.075 182.359C258.015 182.359 257.965 182.299 257.835 182.229C257.955 181.469 257.335 180.519 258.345 179.929C258.665 179.739 259.085 179.659 259.475 179.639C260.305 179.599 261.135 179.629 262.095 179.629H262.115Z" fill="white"/>
<path d="M501.445 179.589V182.279C501.045 182.299 500.755 182.329 500.455 182.339C498.295 182.419 496.725 183.779 495.705 185.749C495.115 186.889 495.125 187.969 495.115 189.099C495.075 192.519 495.105 195.939 495.095 199.359C495.095 200.229 494.555 200.779 493.715 200.789C492.945 200.789 492.305 200.149 492.305 199.369C492.305 193.299 492.305 187.239 492.305 181.169C492.305 180.349 493.005 179.619 493.745 179.639C494.535 179.669 495.095 180.279 495.095 181.119C495.095 181.319 495.065 181.529 495.115 181.719C495.175 181.949 495.305 182.159 495.405 182.369C495.555 182.239 495.715 182.119 495.855 181.979C497.385 180.469 499.055 179.249 501.445 179.589Z" fill="white"/>
<path d="M336.155 190.229C336.155 187.219 336.155 184.199 336.155 181.189C336.155 179.969 336.405 179.649 337.335 179.639C338.245 179.629 338.875 180.288 338.875 181.278C338.875 187.238 338.875 193.198 338.875 199.158C338.875 199.988 338.475 200.589 337.735 200.769C336.595 201.039 336.155 200.609 336.155 199.379C336.155 196.329 336.155 193.289 336.155 190.239V190.229Z" fill="white"/>
<path d="M414.625 190.309C414.625 193.329 414.625 196.339 414.625 199.359C414.625 200.199 413.985 200.809 413.135 200.779C412.425 200.759 411.805 200.129 411.805 199.389C411.805 193.289 411.805 187.189 411.805 181.089C411.805 180.319 412.485 179.609 413.195 179.629C413.985 179.649 414.625 180.269 414.625 181.059C414.625 184.139 414.625 187.229 414.625 190.309Z" fill="white"/>
<path d="M300.295 84.8284C298.225 84.8084 296.265 83.0684 296.405 81.1884C296.455 80.4784 296.845 79.7084 297.295 79.1284C298.105 78.0684 299.105 77.4284 300.615 77.5884C302.455 77.7784 304.205 79.4584 304.185 81.3584C304.165 83.5584 302.705 84.8584 300.295 84.8384V84.8284Z" fill="white"/>
<path d="M504.735 77.5085C505.325 77.6385 506.085 77.5885 506.465 77.9485C507.425 78.8385 508.635 79.6185 508.615 81.2085C508.595 83.1985 506.825 84.7385 504.665 84.8485C502.435 84.9685 500.845 83.0885 500.855 81.2285C500.865 79.2485 502.605 77.6085 504.735 77.4985V77.5085Z" fill="white"/>
<path d="M375.105 120.889C375.895 121.239 376.895 121.399 377.425 121.989C378.105 122.739 378.655 123.789 378.805 124.779C379.055 126.429 376.695 128.759 375.035 128.619C372.835 128.429 371.185 127.159 371.165 124.749C371.155 122.819 372.965 121.119 374.995 121.129C375.035 121.049 375.075 120.969 375.105 120.889Z" fill="white"/>
<path d="M515.805 124.759C516.075 127.109 514.355 128.409 512.305 128.459C510.255 128.499 508.615 127.139 508.535 124.939C508.445 122.479 510.265 121.189 512.095 121.129C514.065 121.069 516.185 122.409 515.815 124.759H515.805Z" fill="white"/>
<path d="M274.735 180.999C275.015 179.969 275.225 179.189 275.445 178.409C275.485 178.249 275.535 178.089 275.565 177.919C275.845 176.179 276.125 174.449 276.405 172.709C276.505 172.099 276.815 171.739 277.465 171.739C278.005 171.739 278.545 171.699 279.065 171.759C279.785 171.849 279.885 172.299 279.665 172.929C279.485 173.409 279.405 173.929 279.225 174.409C278.675 175.859 278.835 177.519 277.935 178.869C277.805 179.069 277.815 179.379 277.785 179.649C277.635 180.979 277.625 180.999 276.245 180.999C275.855 180.999 275.465 180.999 274.745 180.999H274.735Z" fill="white"/>
<path d="M339.705 173.549C339.555 173.769 339.415 173.949 339.295 174.149C339.065 174.509 338.885 175.149 338.605 175.199C337.805 175.319 336.945 175.299 336.155 175.129C335.875 175.069 335.575 174.429 335.555 174.039C335.535 173.499 335.165 172.759 336.055 172.429C336.415 172.299 336.675 171.899 337.035 171.779C337.995 171.479 338.545 172.209 339.135 172.779C339.335 172.979 339.475 173.239 339.715 173.559L339.705 173.549Z" fill="white"/>
<path d="M413.215 175.379C411.855 175.379 411.085 174.829 411.065 173.829C411.045 173.029 412.385 171.739 413.205 171.749C413.995 171.759 415.245 172.979 415.245 173.749C415.255 174.859 414.615 175.379 413.205 175.389L413.215 175.379Z" fill="white"/>
</svg>
