<?xml version="1.0" encoding="utf-8"?>
<svg viewBox="60.9331 117.037 106.674 45.149" width="106.674" height="45.149" xmlns="http://www.w3.org/2000/svg">
  <defs>
    <clipPath id="clip0_811_1490">
      <rect width="112" height="42.5059" fill="white"/>
    </clipPath>
  </defs>
  <g clip-path="url(#clip0_811_1490)" transform="matrix(1, 0, 0, 1, 55.60714340209961, 119.05323028564453)">
    <path d="M 12.073 19.831 C 15.756 19.831 18.741 16.817 18.741 13.098 C 18.741 9.379 15.756 6.365 12.073 6.365 C 8.39 6.365 5.404 9.379 5.404 13.098 C 5.404 16.817 8.39 19.831 12.073 19.831 Z" style="fill: rgb(255, 41, 41);"/>
    <path d="M 39.56 -5.28 L 39.56 -25.33 L 54.05 -25.33 L 54.05 -22.96 L 42.21 -22.96 L 42.21 -16.82 L 53.3 -16.82 L 53.3 -14.47 L 42.21 -14.47 L 42.21 -7.65 L 54.51 -7.65 L 54.51 -5.28 Z M 57.85 -5.28 L 57.85 -19.8 L 60.06 -19.8 L 60.06 -17.74 Q 61.66 -20.13 64.68 -20.13 Q 66 -20.13 67.1 -19.66 Q 68.2 -19.19 68.74 -18.42 Q 69.29 -17.66 69.51 -16.6 Q 69.65 -15.92 69.65 -14.21 L 69.65 -5.28 L 67.19 -5.28 L 67.19 -14.12 Q 67.19 -15.62 66.9 -16.37 Q 66.61 -17.11 65.88 -17.55 Q 65.15 -18 64.16 -18 Q 62.59 -18 61.45 -17 Q 60.31 -16 60.31 -13.21 L 60.31 -5.28 Z M 78.8 -7.49 L 79.16 -5.31 Q 78.12 -5.09 77.3 -5.09 Q 75.96 -5.09 75.22 -5.52 Q 74.48 -5.94 74.18 -6.63 Q 73.88 -7.32 73.88 -9.54 L 73.88 -17.89 L 72.07 -17.89 L 72.07 -19.8 L 73.88 -19.8 L 73.88 -23.4 L 76.33 -24.88 L 76.33 -19.8 L 78.8 -19.8 L 78.8 -17.89 L 76.33 -17.89 L 76.33 -9.4 Q 76.33 -8.35 76.46 -8.05 Q 76.59 -7.74 76.88 -7.57 Q 77.17 -7.39 77.72 -7.39 Q 78.13 -7.39 78.8 -7.49 Z M 91.13 -9.96 L 93.68 -9.65 Q 93.08 -7.42 91.45 -6.19 Q 89.82 -4.96 87.29 -4.96 Q 84.11 -4.96 82.24 -6.92 Q 80.38 -8.88 80.38 -12.42 Q 80.38 -16.08 82.26 -18.11 Q 84.15 -20.13 87.16 -20.13 Q 90.07 -20.13 91.91 -18.15 Q 93.76 -16.17 93.76 -12.57 Q 93.76 -12.35 93.75 -11.91 L 82.92 -11.91 Q 83.05 -9.52 84.27 -8.25 Q 85.49 -6.98 87.31 -6.98 Q 88.66 -6.98 89.62 -7.69 Q 90.57 -8.4 91.13 -9.96 Z M 83.05 -13.94 L 91.16 -13.94 Q 91 -15.77 90.23 -16.69 Q 89.06 -18.11 87.18 -18.11 Q 85.49 -18.11 84.33 -16.97 Q 83.18 -15.84 83.05 -13.94 Z M 96.75 -5.28 L 96.75 -19.8 L 98.96 -19.8 L 98.96 -17.6 Q 99.81 -19.15 100.53 -19.64 Q 101.25 -20.13 102.11 -20.13 Q 103.35 -20.13 104.64 -19.34 L 103.79 -17.06 Q 102.89 -17.59 101.99 -17.59 Q 101.18 -17.59 100.54 -17.1 Q 99.89 -16.62 99.62 -15.76 Q 99.21 -14.44 99.21 -12.89 L 99.21 -5.28 Z M 113.76 0.31 L 113.49 -2 Q 114.3 -1.78 114.9 -1.78 Q 115.72 -1.78 116.21 -2.06 Q 116.7 -2.33 117.02 -2.82 Q 117.25 -3.19 117.77 -4.66 Q 117.84 -4.86 117.99 -5.26 L 112.48 -19.8 L 115.13 -19.8 L 118.15 -11.4 Q 118.74 -9.8 119.21 -8.03 Q 119.63 -9.73 120.22 -11.34 L 123.32 -19.8 L 125.78 -19.8 L 120.26 -5.04 Q 119.37 -2.65 118.88 -1.74 Q 118.22 -0.53 117.37 0.04 Q 116.53 0.61 115.35 0.61 Q 114.64 0.61 113.76 0.31 Z M 126.94 -12.54 Q 126.94 -16.58 129.19 -18.52 Q 131.06 -20.13 133.75 -20.13 Q 136.75 -20.13 138.65 -18.17 Q 140.55 -16.21 140.55 -12.75 Q 140.55 -9.95 139.71 -8.34 Q 138.87 -6.73 137.26 -5.84 Q 135.65 -4.96 133.75 -4.96 Q 130.7 -4.96 128.82 -6.91 Q 126.94 -8.87 126.94 -12.54 Z M 129.47 -12.54 Q 129.47 -9.75 130.69 -8.37 Q 131.91 -6.98 133.75 -6.98 Q 135.59 -6.98 136.8 -8.37 Q 138.02 -9.77 138.02 -12.63 Q 138.02 -15.32 136.79 -16.71 Q 135.57 -18.09 133.75 -18.09 Q 131.91 -18.09 130.69 -16.71 Q 129.47 -15.33 129.47 -12.54 Z M 152.96 -5.28 L 152.96 -7.42 Q 151.26 -4.96 148.35 -4.96 Q 147.06 -4.96 145.95 -5.45 Q 144.84 -5.94 144.3 -6.69 Q 143.76 -7.43 143.54 -8.51 Q 143.39 -9.24 143.39 -10.81 L 143.39 -19.8 L 145.85 -19.8 L 145.85 -11.75 Q 145.85 -9.82 146 -9.15 Q 146.23 -8.18 146.98 -7.63 Q 147.73 -7.08 148.84 -7.08 Q 149.95 -7.08 150.92 -7.64 Q 151.89 -8.21 152.29 -9.19 Q 152.7 -10.16 152.7 -12.02 L 152.7 -19.8 L 155.16 -19.8 L 155.16 -5.28 Z M 158.98 -5.28 L 158.98 -19.8 L 161.19 -19.8 L 161.19 -17.6 Q 162.04 -19.15 162.76 -19.64 Q 163.48 -20.13 164.34 -20.13 Q 165.58 -20.13 166.87 -19.34 L 166.02 -17.06 Q 165.12 -17.59 164.22 -17.59 Q 163.41 -17.59 162.77 -17.1 Q 162.12 -16.62 161.85 -15.76 Q 161.44 -14.44 161.44 -12.89 L 161.44 -5.28 Z M 181.48 -7.49 L 181.83 -5.31 Q 180.79 -5.09 179.97 -5.09 Q 178.63 -5.09 177.89 -5.52 Q 177.16 -5.94 176.86 -6.63 Q 176.55 -7.32 176.55 -9.54 L 176.55 -17.89 L 174.75 -17.89 L 174.75 -19.8 L 176.55 -19.8 L 176.55 -23.4 L 179 -24.88 L 179 -19.8 L 181.48 -19.8 L 181.48 -17.89 L 179 -17.89 L 179 -9.4 Q 179 -8.35 179.13 -8.05 Q 179.26 -7.74 179.56 -7.57 Q 179.85 -7.39 180.4 -7.39 Q 180.81 -7.39 181.48 -7.49 Z M 193.83 -9.96 L 196.37 -9.65 Q 195.77 -7.42 194.14 -6.19 Q 192.51 -4.96 189.98 -4.96 Q 186.8 -4.96 184.93 -6.92 Q 183.07 -8.88 183.07 -12.42 Q 183.07 -16.08 184.95 -18.11 Q 186.84 -20.13 189.85 -20.13 Q 192.76 -20.13 194.61 -18.15 Q 196.45 -16.17 196.45 -12.57 Q 196.45 -12.35 196.44 -11.91 L 185.61 -11.91 Q 185.75 -9.52 186.96 -8.25 Q 188.18 -6.98 190 -6.98 Q 191.35 -6.98 192.31 -7.69 Q 193.27 -8.4 193.83 -9.96 Z M 185.75 -13.94 L 193.85 -13.94 Q 193.69 -15.77 192.92 -16.69 Q 191.75 -18.11 189.87 -18.11 Q 188.18 -18.11 187.02 -16.97 Q 185.87 -15.84 185.75 -13.94 Z M 197.81 -5.28 L 203.12 -12.83 L 198.21 -19.8 L 201.28 -19.8 L 203.51 -16.4 Q 204.14 -15.43 204.52 -14.77 Q 205.13 -15.67 205.63 -16.37 L 208.08 -19.8 L 211.02 -19.8 L 206 -12.97 L 211.4 -5.28 L 208.38 -5.28 L 205.4 -9.8 L 204.61 -11.01 L 200.79 -5.28 Z M 218.83 -7.49 L 219.18 -5.31 Q 218.14 -5.09 217.32 -5.09 Q 215.98 -5.09 215.25 -5.52 Q 214.51 -5.94 214.21 -6.63 Q 213.91 -7.32 213.91 -9.54 L 213.91 -17.89 L 212.1 -17.89 L 212.1 -19.8 L 213.91 -19.8 L 213.91 -23.4 L 216.35 -24.88 L 216.35 -19.8 L 218.83 -19.8 L 218.83 -17.89 L 216.35 -17.89 L 216.35 -9.4 Q 216.35 -8.35 216.48 -8.05 Q 216.61 -7.74 216.91 -7.57 Q 217.2 -7.39 217.75 -7.39 Q 218.16 -7.39 218.83 -7.49 Z M 229 -5.28 L 229 -25.33 L 231.47 -25.33 L 231.47 -18.14 Q 233.19 -20.13 235.81 -20.13 Q 237.43 -20.13 238.62 -19.5 Q 239.8 -18.86 240.32 -17.74 Q 240.83 -16.62 240.83 -14.49 L 240.83 -5.28 L 238.37 -5.28 L 238.37 -14.49 Q 238.37 -16.33 237.57 -17.17 Q 236.77 -18.01 235.31 -18.01 Q 234.21 -18.01 233.25 -17.45 Q 232.29 -16.88 231.88 -15.91 Q 231.47 -14.94 231.47 -13.23 L 231.47 -5.28 Z M 254.52 -9.96 L 257.07 -9.65 Q 256.47 -7.42 254.84 -6.19 Q 253.21 -4.96 250.68 -4.96 Q 247.5 -4.96 245.63 -6.92 Q 243.76 -8.88 243.76 -12.42 Q 243.76 -16.08 245.65 -18.11 Q 247.54 -20.13 250.55 -20.13 Q 253.46 -20.13 255.3 -18.15 Q 257.15 -16.17 257.15 -12.57 Q 257.15 -12.35 257.14 -11.91 L 246.31 -11.91 Q 246.44 -9.52 247.66 -8.25 Q 248.88 -6.98 250.7 -6.98 Q 252.05 -6.98 253.01 -7.69 Q 253.96 -8.4 254.52 -9.96 Z M 246.44 -13.94 L 254.55 -13.94 Q 254.39 -15.77 253.62 -16.69 Q 252.45 -18.11 250.57 -18.11 Q 248.88 -18.11 247.72 -16.97 Q 246.57 -15.84 246.44 -13.94 Z M 260.12 -5.28 L 260.12 -19.8 L 262.34 -19.8 L 262.34 -17.6 Q 263.19 -19.15 263.9 -19.64 Q 264.62 -20.13 265.48 -20.13 Q 266.73 -20.13 268.01 -19.34 L 267.16 -17.06 Q 266.26 -17.59 265.36 -17.59 Q 264.55 -17.59 263.91 -17.1 Q 263.27 -16.62 262.99 -15.76 Q 262.58 -14.44 262.58 -12.89 L 262.58 -5.28 Z M 279.4 -9.96 L 281.95 -9.65 Q 281.35 -7.42 279.72 -6.19 Q 278.09 -4.96 275.56 -4.96 Q 272.38 -4.96 270.51 -6.92 Q 268.64 -8.88 268.64 -12.42 Q 268.64 -16.08 270.53 -18.11 Q 272.42 -20.13 275.43 -20.13 Q 278.34 -20.13 280.18 -18.15 Q 282.03 -16.17 282.03 -12.57 Q 282.03 -12.35 282.02 -11.91 L 271.19 -11.91 Q 271.32 -9.52 272.54 -8.25 Q 273.76 -6.98 275.58 -6.98 Q 276.93 -6.98 277.89 -7.69 Q 278.84 -8.4 279.4 -9.96 Z M 271.32 -13.94 L 279.43 -13.94 Q 279.27 -15.77 278.5 -16.69 Q 277.33 -18.11 275.45 -18.11 Q 273.76 -18.11 272.6 -16.97 Q 271.45 -15.84 271.32 -13.94 Z" style="fill: rgb(255,250,250);"/>
    <path style="fill: rgb(255,250,250); stroke: rgb(186, 218, 85);"/>
    <path d="M 59.43 -4.52 L 59.43 -6.35 Q 58.05 -4.19 55.37 -4.19 Q 53.63 -4.19 52.17 -5.15 Q 50.72 -6.1 49.92 -7.82 Q 49.12 -9.54 49.12 -11.77 Q 49.12 -13.94 49.84 -15.71 Q 50.57 -17.48 52.02 -18.42 Q 53.47 -19.37 55.26 -19.37 Q 56.57 -19.37 57.59 -18.81 Q 58.62 -18.26 59.26 -17.37 L 59.26 -24.56 L 61.71 -24.56 L 61.71 -4.52 Z M 51.65 -11.77 Q 51.65 -8.98 52.82 -7.6 Q 54 -6.21 55.6 -6.21 Q 57.21 -6.21 58.34 -7.53 Q 59.47 -8.85 59.47 -11.56 Q 59.47 -14.54 58.32 -15.94 Q 57.17 -17.33 55.49 -17.33 Q 53.85 -17.33 52.75 -15.99 Q 51.65 -14.65 51.65 -11.77 Z M 74.99 -4.52 L 74.99 -6.35 Q 73.61 -4.19 70.93 -4.19 Q 69.2 -4.19 67.74 -5.15 Q 66.28 -6.1 65.48 -7.82 Q 64.68 -9.54 64.68 -11.77 Q 64.68 -13.94 65.41 -15.71 Q 66.13 -17.48 67.58 -18.42 Q 69.03 -19.37 70.82 -19.37 Q 72.13 -19.37 73.16 -18.81 Q 74.19 -18.26 74.83 -17.37 L 74.83 -24.56 L 77.28 -24.56 L 77.28 -4.52 Z M 67.21 -11.77 Q 67.21 -8.98 68.39 -7.6 Q 69.56 -6.21 71.16 -6.21 Q 72.78 -6.21 73.91 -7.53 Q 75.03 -8.85 75.03 -11.56 Q 75.03 -14.54 73.88 -15.94 Q 72.74 -17.33 71.05 -17.33 Q 69.41 -17.33 68.31 -15.99 Q 67.21 -14.65 67.21 -11.77 Z" style="fill: rgb(255,250,250);"/>
    <path d="M 119.49 -12.95 L 119.49 -32.99 L 133.99 -32.99 L 133.99 -30.63 L 122.15 -30.63 L 122.15 -24.49 L 133.23 -24.49 L 133.23 -22.14 L 122.15 -22.14 L 122.15 -15.32 L 134.45 -15.32 L 134.45 -12.95 Z M 137.78 -12.95 L 137.78 -27.47 L 140 -27.47 L 140 -25.41 Q 141.6 -27.8 144.62 -27.8 Q 145.93 -27.8 147.03 -27.33 Q 148.13 -26.85 148.68 -26.09 Q 149.23 -25.32 149.45 -24.27 Q 149.58 -23.59 149.58 -21.88 L 149.58 -12.95 L 147.12 -12.95 L 147.12 -21.78 Q 147.12 -23.29 146.84 -24.03 Q 146.55 -24.78 145.82 -25.22 Q 145.09 -25.66 144.1 -25.66 Q 142.53 -25.66 141.39 -24.67 Q 140.25 -23.67 140.25 -20.88 L 140.25 -12.95 Z M 158.74 -15.15 L 159.09 -12.98 Q 158.05 -12.76 157.23 -12.76 Q 155.89 -12.76 155.16 -13.18 Q 154.42 -13.61 154.12 -14.3 Q 153.82 -14.99 153.82 -17.2 L 153.82 -25.56 L 152.01 -25.56 L 152.01 -27.47 L 153.82 -27.47 L 153.82 -31.07 L 156.26 -32.54 L 156.26 -27.47 L 158.74 -27.47 L 158.74 -25.56 L 156.26 -25.56 L 156.26 -17.07 Q 156.26 -16.01 156.39 -15.71 Q 156.52 -15.41 156.82 -15.23 Q 157.11 -15.06 157.66 -15.06 Q 158.07 -15.06 158.74 -15.15 Z M 171.07 -17.63 L 173.61 -17.31 Q 173.01 -15.08 171.39 -13.85 Q 169.76 -12.62 167.23 -12.62 Q 164.04 -12.62 162.18 -14.58 Q 160.31 -16.55 160.31 -20.09 Q 160.31 -23.75 162.2 -25.77 Q 164.09 -27.8 167.09 -27.8 Q 170.01 -27.8 171.85 -25.82 Q 173.7 -23.83 173.7 -20.24 Q 173.7 -20.02 173.68 -19.58 L 162.86 -19.58 Q 162.99 -17.19 164.21 -15.92 Q 165.43 -14.65 167.24 -14.65 Q 168.6 -14.65 169.55 -15.36 Q 170.51 -16.07 171.07 -17.63 Z M 162.99 -21.6 L 171.1 -21.6 Q 170.94 -23.44 170.17 -24.35 Q 168.99 -25.77 167.12 -25.77 Q 165.43 -25.77 164.27 -24.64 Q 163.11 -23.5 162.99 -21.6 Z M 176.69 -12.95 L 176.69 -27.47 L 178.9 -27.47 L 178.9 -25.27 Q 179.75 -26.81 180.47 -27.31 Q 181.18 -27.8 182.05 -27.8 Q 183.29 -27.8 184.57 -27 L 183.73 -24.72 Q 182.82 -25.25 181.92 -25.25 Q 181.12 -25.25 180.47 -24.77 Q 179.83 -24.28 179.56 -23.42 Q 179.15 -22.11 179.15 -20.55 L 179.15 -12.95 Z M 193.7 -7.36 L 193.43 -9.67 Q 194.23 -9.45 194.84 -9.45 Q 195.66 -9.45 196.15 -9.72 Q 196.64 -10 196.95 -10.49 Q 197.19 -10.86 197.71 -12.32 Q 197.78 -12.53 197.93 -12.92 L 192.42 -27.47 L 195.07 -27.47 L 198.09 -19.06 Q 198.68 -17.46 199.14 -15.7 Q 199.57 -17.39 200.15 -19.01 L 203.26 -27.47 L 205.72 -27.47 L 200.2 -12.7 Q 199.31 -10.31 198.81 -9.41 Q 198.16 -8.19 197.31 -7.62 Q 196.46 -7.06 195.29 -7.06 Q 194.58 -7.06 193.7 -7.36 Z M 206.88 -20.21 Q 206.88 -24.24 209.12 -26.18 Q 211 -27.8 213.69 -27.8 Q 216.68 -27.8 218.58 -25.84 Q 220.48 -23.87 220.48 -20.41 Q 220.48 -17.61 219.64 -16.01 Q 218.8 -14.4 217.2 -13.51 Q 215.59 -12.62 213.69 -12.62 Q 210.64 -12.62 208.76 -14.58 Q 206.88 -16.53 206.88 -20.21 Z M 209.41 -20.21 Q 209.41 -17.42 210.63 -16.03 Q 211.84 -14.65 213.69 -14.65 Q 215.52 -14.65 216.74 -16.04 Q 217.96 -17.43 217.96 -20.29 Q 217.96 -22.99 216.73 -24.37 Q 215.51 -25.76 213.69 -25.76 Q 211.84 -25.76 210.63 -24.38 Q 209.41 -23 209.41 -20.21 Z M 232.89 -12.95 L 232.89 -15.08 Q 231.2 -12.62 228.29 -12.62 Q 227 -12.62 225.89 -13.11 Q 224.77 -13.61 224.23 -14.35 Q 223.69 -15.1 223.47 -16.18 Q 223.32 -16.9 223.32 -18.47 L 223.32 -27.47 L 225.78 -27.47 L 225.78 -19.42 Q 225.78 -17.49 225.94 -16.82 Q 226.17 -15.85 226.92 -15.29 Q 227.67 -14.74 228.78 -14.74 Q 229.89 -14.74 230.86 -15.31 Q 231.83 -15.88 232.23 -16.85 Q 232.63 -17.83 232.63 -19.69 L 232.63 -27.47 L 235.1 -27.47 L 235.1 -12.95 Z M 238.92 -12.95 L 238.92 -27.47 L 241.13 -27.47 L 241.13 -25.27 Q 241.98 -26.81 242.7 -27.31 Q 243.41 -27.8 244.28 -27.8 Q 245.52 -27.8 246.81 -27 L 245.96 -24.72 Q 245.06 -25.25 244.15 -25.25 Q 243.35 -25.25 242.7 -24.77 Q 242.06 -24.28 241.79 -23.42 Q 241.38 -22.11 241.38 -20.55 L 241.38 -12.95 Z M 261.41 -15.15 L 261.77 -12.98 Q 260.73 -12.76 259.91 -12.76 Q 258.57 -12.76 257.83 -13.18 Q 257.09 -13.61 256.79 -14.3 Q 256.49 -14.99 256.49 -17.2 L 256.49 -25.56 L 254.69 -25.56 L 254.69 -27.47 L 256.49 -27.47 L 256.49 -31.07 L 258.94 -32.54 L 258.94 -27.47 L 261.41 -27.47 L 261.41 -25.56 L 258.94 -25.56 L 258.94 -17.07 Q 258.94 -16.01 259.07 -15.71 Q 259.2 -15.41 259.49 -15.23 Q 259.79 -15.06 260.33 -15.06 Q 260.74 -15.06 261.41 -15.15 Z M 273.76 -17.63 L 276.31 -17.31 Q 275.7 -15.08 274.08 -13.85 Q 272.45 -12.62 269.92 -12.62 Q 266.74 -12.62 264.87 -14.58 Q 263 -16.55 263 -20.09 Q 263 -23.75 264.89 -25.77 Q 266.78 -27.8 269.78 -27.8 Q 272.7 -27.8 274.54 -25.82 Q 276.39 -23.83 276.39 -20.24 Q 276.39 -20.02 276.37 -19.58 L 265.55 -19.58 Q 265.68 -17.19 266.9 -15.92 Q 268.12 -14.65 269.93 -14.65 Q 271.29 -14.65 272.25 -15.36 Q 273.2 -16.07 273.76 -17.63 Z M 265.68 -21.6 L 273.79 -21.6 Q 273.63 -23.44 272.86 -24.35 Q 271.68 -25.77 269.81 -25.77 Q 268.12 -25.77 266.96 -24.64 Q 265.81 -23.5 265.68 -21.6 Z M 277.75 -12.95 L 283.05 -20.5 L 278.14 -27.47 L 281.22 -27.47 L 283.45 -24.07 Q 284.08 -23.09 284.46 -22.44 Q 285.06 -23.34 285.57 -24.04 L 288.02 -27.47 L 290.96 -27.47 L 285.94 -20.63 L 291.34 -12.95 L 288.32 -12.95 L 285.34 -17.46 L 284.54 -18.68 L 280.73 -12.95 Z M 298.76 -15.15 L 299.12 -12.98 Q 298.08 -12.76 297.26 -12.76 Q 295.92 -12.76 295.18 -13.18 Q 294.44 -13.61 294.14 -14.3 Q 293.84 -14.99 293.84 -17.2 L 293.84 -25.56 L 292.04 -25.56 L 292.04 -27.47 L 293.84 -27.47 L 293.84 -31.07 L 296.29 -32.54 L 296.29 -27.47 L 298.76 -27.47 L 298.76 -25.56 L 296.29 -25.56 L 296.29 -17.07 Q 296.29 -16.01 296.42 -15.71 Q 296.55 -15.41 296.84 -15.23 Q 297.14 -15.06 297.68 -15.06 Q 298.09 -15.06 298.76 -15.15 Z M 308.94 -12.95 L 308.94 -32.99 L 311.4 -32.99 L 311.4 -25.8 Q 313.12 -27.8 315.75 -27.8 Q 317.36 -27.8 318.55 -27.16 Q 319.74 -26.53 320.25 -25.41 Q 320.77 -24.28 320.77 -22.15 L 320.77 -12.95 L 318.31 -12.95 L 318.31 -22.15 Q 318.31 -24 317.51 -24.84 Q 316.71 -25.68 315.24 -25.68 Q 314.15 -25.68 313.19 -25.11 Q 312.22 -24.54 311.81 -23.57 Q 311.4 -22.6 311.4 -20.89 L 311.4 -12.95 Z M 334.46 -17.63 L 337 -17.31 Q 336.4 -15.08 334.78 -13.85 Q 333.15 -12.62 330.62 -12.62 Q 327.43 -12.62 325.57 -14.58 Q 323.7 -16.55 323.7 -20.09 Q 323.7 -23.75 325.59 -25.77 Q 327.48 -27.8 330.48 -27.8 Q 333.4 -27.8 335.24 -25.82 Q 337.09 -23.83 337.09 -20.24 Q 337.09 -20.02 337.07 -19.58 L 326.24 -19.58 Q 326.38 -17.19 327.6 -15.92 Q 328.82 -14.65 330.63 -14.65 Q 331.99 -14.65 332.94 -15.36 Q 333.9 -16.07 334.46 -17.63 Z M 326.38 -21.6 L 334.49 -21.6 Q 334.32 -23.44 333.56 -24.35 Q 332.38 -25.77 330.51 -25.77 Q 328.82 -25.77 327.66 -24.64 Q 326.5 -23.5 326.38 -21.6 Z M 340.06 -12.95 L 340.06 -27.47 L 342.28 -27.47 L 342.28 -25.27 Q 343.12 -26.81 343.84 -27.31 Q 344.56 -27.8 345.42 -27.8 Q 346.66 -27.8 347.95 -27 L 347.1 -24.72 Q 346.2 -25.25 345.3 -25.25 Q 344.49 -25.25 343.85 -24.77 Q 343.2 -24.28 342.93 -23.42 Q 342.52 -22.11 342.52 -20.55 L 342.52 -12.95 Z M 359.34 -17.63 L 361.88 -17.31 Q 361.28 -15.08 359.66 -13.85 Q 358.03 -12.62 355.5 -12.62 Q 352.31 -12.62 350.45 -14.58 Q 348.58 -16.55 348.58 -20.09 Q 348.58 -23.75 350.47 -25.77 Q 352.35 -27.8 355.36 -27.8 Q 358.27 -27.8 360.12 -25.82 Q 361.97 -23.83 361.97 -20.24 Q 361.97 -20.02 361.95 -19.58 L 351.12 -19.58 Q 351.26 -17.19 352.48 -15.92 Q 353.69 -14.65 355.51 -14.65 Q 356.87 -14.65 357.82 -15.36 Q 358.78 -16.07 359.34 -17.63 Z M 351.26 -21.6 L 359.37 -21.6 Q 359.2 -23.44 358.44 -24.35 Q 357.26 -25.77 355.39 -25.77 Q 353.69 -25.77 352.54 -24.64 Q 351.38 -23.5 351.26 -21.6 Z" style="fill: rgb(255,250,250);"/>
    <path d="M 72.21 -19.58 L 72.21 -39.62 L 86.7 -39.62 L 86.7 -37.25 L 74.86 -37.25 L 74.86 -31.12 L 85.95 -31.12 L 85.95 -28.76 L 74.86 -28.76 L 74.86 -21.94 L 87.16 -21.94 L 87.16 -19.58 Z M 90.5 -19.58 L 90.5 -34.1 L 92.71 -34.1 L 92.71 -32.03 Q 94.31 -34.42 97.33 -34.42 Q 98.64 -34.42 99.75 -33.95 Q 100.85 -33.48 101.39 -32.71 Q 101.94 -31.95 102.16 -30.9 Q 102.3 -30.21 102.3 -28.5 L 102.3 -19.58 L 99.83 -19.58 L 99.83 -28.41 Q 99.83 -29.91 99.55 -30.66 Q 99.26 -31.4 98.53 -31.85 Q 97.8 -32.29 96.81 -32.29 Q 95.24 -32.29 94.1 -31.29 Q 92.96 -30.29 92.96 -27.51 L 92.96 -19.58 Z M 111.45 -21.78 L 111.81 -19.6 Q 110.77 -19.38 109.95 -19.38 Q 108.61 -19.38 107.87 -19.81 Q 107.13 -20.23 106.83 -20.92 Q 106.53 -21.61 106.53 -23.83 L 106.53 -32.18 L 104.72 -32.18 L 104.72 -34.1 L 106.53 -34.1 L 106.53 -37.69 L 108.98 -39.17 L 108.98 -34.1 L 111.45 -34.1 L 111.45 -32.18 L 108.98 -32.18 L 108.98 -23.69 Q 108.98 -22.64 109.11 -22.34 Q 109.24 -22.04 109.53 -21.86 Q 109.82 -21.68 110.37 -21.68 Q 110.78 -21.68 111.45 -21.78 Z M 123.78 -24.25 L 126.33 -23.94 Q 125.73 -21.71 124.1 -20.48 Q 122.47 -19.25 119.94 -19.25 Q 116.76 -19.25 114.89 -21.21 Q 113.02 -23.17 113.02 -26.71 Q 113.02 -30.38 114.91 -32.4 Q 116.8 -34.42 119.81 -34.42 Q 122.72 -34.42 124.56 -32.44 Q 126.41 -30.46 126.41 -26.86 Q 126.41 -26.64 126.4 -26.21 L 115.57 -26.21 Q 115.7 -23.81 116.92 -22.54 Q 118.14 -21.27 119.96 -21.27 Q 121.31 -21.27 122.27 -21.98 Q 123.22 -22.69 123.78 -24.25 Z M 115.7 -28.23 L 123.81 -28.23 Q 123.65 -30.06 122.88 -30.98 Q 121.71 -32.4 119.83 -32.4 Q 118.14 -32.4 116.98 -31.27 Q 115.83 -30.13 115.7 -28.23 Z M 129.4 -19.58 L 129.4 -34.1 L 131.61 -34.1 L 131.61 -31.89 Q 132.46 -33.44 133.18 -33.93 Q 133.9 -34.42 134.76 -34.42 Q 136 -34.42 137.29 -33.63 L 136.44 -31.35 Q 135.54 -31.88 134.63 -31.88 Q 133.83 -31.88 133.19 -31.4 Q 132.54 -30.91 132.27 -30.05 Q 131.86 -28.74 131.86 -27.18 L 131.86 -19.58 Z M 146.41 -13.98 L 146.14 -16.29 Q 146.95 -16.08 147.55 -16.08 Q 148.37 -16.08 148.86 -16.35 Q 149.35 -16.62 149.67 -17.12 Q 149.9 -17.48 150.42 -18.95 Q 150.49 -19.15 150.64 -19.55 L 145.13 -34.1 L 147.78 -34.1 L 150.8 -25.69 Q 151.39 -24.09 151.85 -22.32 Q 152.28 -24.02 152.87 -25.63 L 155.97 -34.1 L 158.43 -34.1 L 152.91 -19.33 Q 152.02 -16.94 151.53 -16.03 Q 150.87 -14.82 150.02 -14.25 Q 149.17 -13.68 148 -13.68 Q 147.29 -13.68 146.41 -13.98 Z M 159.59 -26.84 Q 159.59 -30.87 161.84 -32.81 Q 163.71 -34.42 166.4 -34.42 Q 169.4 -34.42 171.3 -32.46 Q 173.2 -30.5 173.2 -27.04 Q 173.2 -24.24 172.36 -22.63 Q 171.52 -21.03 169.91 -20.14 Q 168.3 -19.25 166.4 -19.25 Q 163.35 -19.25 161.47 -21.2 Q 159.59 -23.16 159.59 -26.84 Z M 162.12 -26.84 Q 162.12 -24.05 163.34 -22.66 Q 164.56 -21.27 166.4 -21.27 Q 168.23 -21.27 169.45 -22.67 Q 170.67 -24.06 170.67 -26.92 Q 170.67 -29.61 169.44 -31 Q 168.22 -32.39 166.4 -32.39 Q 164.56 -32.39 163.34 -31.01 Q 162.12 -29.62 162.12 -26.84 Z M 185.61 -19.58 L 185.61 -21.71 Q 183.91 -19.25 181 -19.25 Q 179.71 -19.25 178.6 -19.74 Q 177.48 -20.23 176.94 -20.98 Q 176.4 -21.72 176.19 -22.8 Q 176.04 -23.53 176.04 -25.1 L 176.04 -34.1 L 178.5 -34.1 L 178.5 -26.04 Q 178.5 -24.12 178.65 -23.45 Q 178.88 -22.47 179.63 -21.92 Q 180.38 -21.37 181.49 -21.37 Q 182.6 -21.37 183.57 -21.93 Q 184.54 -22.5 184.94 -23.48 Q 185.35 -24.46 185.35 -26.32 L 185.35 -34.1 L 187.81 -34.1 L 187.81 -19.58 Z M 191.63 -19.58 L 191.63 -34.1 L 193.84 -34.1 L 193.84 -31.89 Q 194.69 -33.44 195.41 -33.93 Q 196.13 -34.42 196.99 -34.42 Q 198.23 -34.42 199.52 -33.63 L 198.67 -31.35 Q 197.77 -31.88 196.86 -31.88 Q 196.06 -31.88 195.42 -31.4 Q 194.77 -30.91 194.5 -30.05 Q 194.09 -28.74 194.09 -27.18 L 194.09 -19.58 Z M 214.13 -21.78 L 214.48 -19.6 Q 213.44 -19.38 212.62 -19.38 Q 211.28 -19.38 210.54 -19.81 Q 209.81 -20.23 209.5 -20.92 Q 209.2 -21.61 209.2 -23.83 L 209.2 -32.18 L 207.4 -32.18 L 207.4 -34.1 L 209.2 -34.1 L 209.2 -37.69 L 211.65 -39.17 L 211.65 -34.1 L 214.13 -34.1 L 214.13 -32.18 L 211.65 -32.18 L 211.65 -23.69 Q 211.65 -22.64 211.78 -22.34 Q 211.91 -22.04 212.2 -21.86 Q 212.5 -21.68 213.05 -21.68 Q 213.46 -21.68 214.13 -21.78 Z M 226.47 -24.25 L 229.02 -23.94 Q 228.42 -21.71 226.79 -20.48 Q 225.16 -19.25 222.63 -19.25 Q 219.45 -19.25 217.58 -21.21 Q 215.72 -23.17 215.72 -26.71 Q 215.72 -30.38 217.6 -32.4 Q 219.49 -34.42 222.5 -34.42 Q 225.41 -34.42 227.25 -32.44 Q 229.1 -30.46 229.1 -26.86 Q 229.1 -26.64 229.09 -26.21 L 218.26 -26.21 Q 218.39 -23.81 219.61 -22.54 Q 220.83 -21.27 222.65 -21.27 Q 224 -21.27 224.96 -21.98 Q 225.91 -22.69 226.47 -24.25 Z M 218.39 -28.23 L 226.5 -28.23 Q 226.34 -30.06 225.57 -30.98 Q 224.4 -32.4 222.52 -32.4 Q 220.83 -32.4 219.67 -31.27 Q 218.52 -30.13 218.39 -28.23 Z M 230.46 -19.58 L 235.76 -27.12 L 230.86 -34.1 L 233.93 -34.1 L 236.16 -30.69 Q 236.79 -29.72 237.17 -29.06 Q 237.77 -29.97 238.28 -30.66 L 240.73 -34.1 L 243.67 -34.1 L 238.65 -27.26 L 244.05 -19.58 L 241.03 -19.58 L 238.05 -24.09 L 237.26 -25.3 L 233.44 -19.58 Z M 251.48 -21.78 L 251.83 -19.6 Q 250.79 -19.38 249.97 -19.38 Q 248.63 -19.38 247.89 -19.81 Q 247.16 -20.23 246.86 -20.92 Q 246.55 -21.61 246.55 -23.83 L 246.55 -32.18 L 244.75 -32.18 L 244.75 -34.1 L 246.55 -34.1 L 246.55 -37.69 L 249 -39.17 L 249 -34.1 L 251.48 -34.1 L 251.48 -32.18 L 249 -32.18 L 249 -23.69 Q 249 -22.64 249.13 -22.34 Q 249.26 -22.04 249.56 -21.86 Q 249.85 -21.68 250.4 -21.68 Q 250.81 -21.68 251.48 -21.78 Z M 261.65 -19.58 L 261.65 -39.62 L 264.11 -39.62 L 264.11 -32.43 Q 265.84 -34.42 268.46 -34.42 Q 270.08 -34.42 271.26 -33.79 Q 272.45 -33.15 272.97 -32.03 Q 273.48 -30.91 273.48 -28.78 L 273.48 -19.58 L 271.02 -19.58 L 271.02 -28.78 Q 271.02 -30.62 270.22 -31.46 Q 269.42 -32.3 267.96 -32.3 Q 266.86 -32.3 265.9 -31.74 Q 264.93 -31.17 264.52 -30.2 Q 264.11 -29.23 264.11 -27.52 L 264.11 -19.58 Z M 287.17 -24.25 L 289.72 -23.94 Q 289.12 -21.71 287.49 -20.48 Q 285.86 -19.25 283.33 -19.25 Q 280.15 -19.25 278.28 -21.21 Q 276.41 -23.17 276.41 -26.71 Q 276.41 -30.38 278.3 -32.4 Q 280.19 -34.42 283.2 -34.42 Q 286.11 -34.42 287.95 -32.44 Q 289.8 -30.46 289.8 -26.86 Q 289.8 -26.64 289.78 -26.21 L 278.96 -26.21 Q 279.09 -23.81 280.31 -22.54 Q 281.53 -21.27 283.35 -21.27 Q 284.7 -21.27 285.66 -21.98 Q 286.61 -22.69 287.17 -24.25 Z M 279.09 -28.23 L 287.2 -28.23 Q 287.04 -30.06 286.27 -30.98 Q 285.1 -32.4 283.22 -32.4 Q 281.53 -32.4 280.37 -31.27 Q 279.22 -30.13 279.09 -28.23 Z M 292.77 -19.58 L 292.77 -34.1 L 294.99 -34.1 L 294.99 -31.89 Q 295.83 -33.44 296.55 -33.93 Q 297.27 -34.42 298.13 -34.42 Q 299.38 -34.42 300.66 -33.63 L 299.81 -31.35 Q 298.91 -31.88 298.01 -31.88 Q 297.2 -31.88 296.56 -31.4 Q 295.92 -30.91 295.64 -30.05 Q 295.23 -28.74 295.23 -27.18 L 295.23 -19.58 Z M 312.05 -24.25 L 314.6 -23.94 Q 313.99 -21.71 312.37 -20.48 Q 310.74 -19.25 308.21 -19.25 Q 305.03 -19.25 303.16 -21.21 Q 301.29 -23.17 301.29 -26.71 Q 301.29 -30.38 303.18 -32.4 Q 305.07 -34.42 308.07 -34.42 Q 310.99 -34.42 312.83 -32.44 Q 314.68 -30.46 314.68 -26.86 Q 314.68 -26.64 314.66 -26.21 L 303.84 -26.21 Q 303.97 -23.81 305.19 -22.54 Q 306.41 -21.27 308.23 -21.27 Q 309.58 -21.27 310.54 -21.98 Q 311.49 -22.69 312.05 -24.25 Z M 303.97 -28.23 L 312.08 -28.23 Q 311.92 -30.06 311.15 -30.98 Q 309.98 -32.4 308.1 -32.4 Q 306.41 -32.4 305.25 -31.27 Q 304.1 -30.13 303.97 -28.23 Z" style="fill: rgb(255,250,250);"/>
    <path d="M 11.995 36.793 C 15.677 36.793 18.663 33.779 18.663 30.06 C 18.663 26.341 15.677 23.327 11.995 23.327 C 8.312 23.327 5.326 26.341 5.326 30.06 C 5.326 33.779 8.312 36.793 11.995 36.793 Z" style="fill: rgb(255, 41, 41);"/>
  </g>
  <path d="M 75.04 139.04 L 75.04 123.26 L 81.06 123.26 Q 82.42 123.26 83.58 123.64 Q 84.74 124.02 85.59 124.74 Q 86.44 125.47 86.93 126.56 Q 87.41 127.65 87.41 129.08 L 87.41 133.24 Q 87.41 134.64 86.93 135.73 Q 86.44 136.81 85.59 137.54 Q 84.74 138.28 83.58 138.66 Q 82.42 139.04 81.06 139.04 Z M 78.9 136.09 L 80.72 136.09 Q 81.57 136.09 82.19 135.84 Q 82.81 135.59 83.14 135.01 Q 83.48 134.44 83.48 133.43 L 83.48 128.85 Q 83.48 127.84 83.14 127.26 Q 82.81 126.69 82.19 126.42 Q 81.57 126.16 80.72 126.16 L 78.9 126.16 Z M 88.12 139.04 L 88.12 123.26 L 99.07 123.26 L 98.65 126.2 L 91.89 126.2 L 91.89 129.54 L 98.21 129.54 L 98.21 132.39 L 91.89 132.39 L 91.89 136 L 98.72 136 L 99.11 139.04 Z M 100 139.04 L 100 123.26 L 104.65 123.26 L 106.03 133.33 L 106.12 133.33 L 107.5 123.26 L 112.15 123.26 L 112.15 139.04 L 108.81 139.04 L 108.81 127.74 L 108.7 127.74 L 107.16 139.04 L 104.6 139.04 L 103.08 127.74 L 102.97 127.74 L 102.97 139.04 Z M 118.48 139.27 Q 117.1 139.27 115.96 138.84 Q 114.82 138.42 114 137.58 Q 113.17 136.74 112.71 135.5 Q 112.25 134.25 112.25 132.57 L 112.25 129.75 Q 112.25 128.07 112.71 126.81 Q 113.17 125.56 114.01 124.72 Q 114.85 123.88 115.97 123.45 Q 117.1 123.03 118.46 123.03 L 119.1 123.03 Q 120.46 123.03 121.6 123.45 Q 122.74 123.88 123.56 124.73 Q 124.39 125.58 124.85 126.82 Q 125.31 128.07 125.31 129.75 L 125.31 132.57 Q 125.31 134.23 124.85 135.48 Q 124.39 136.74 123.56 137.58 Q 122.74 138.42 121.61 138.84 Q 120.48 139.27 119.1 139.27 Z M 118.78 136.35 Q 119.33 136.35 119.82 136.19 Q 120.3 136.02 120.64 135.66 Q 120.99 135.29 121.18 134.71 Q 121.38 134.14 121.38 133.29 L 121.38 128.99 Q 121.38 128.14 121.18 127.56 Q 120.99 126.99 120.64 126.63 Q 120.3 126.27 119.82 126.1 Q 119.33 125.93 118.78 125.93 Q 118.23 125.93 117.76 126.1 Q 117.29 126.27 116.94 126.63 Q 116.6 126.99 116.4 127.56 Q 116.2 128.14 116.2 128.99 L 116.2 133.29 Q 116.2 134.14 116.4 134.71 Q 116.6 135.29 116.94 135.66 Q 117.29 136.02 117.76 136.19 Q 118.23 136.35 118.78 136.35 Z" style="fill: rgb(255,250,250); text-transform: uppercase;"/>
  <path d="M 80.41 156.42 Q 79.03 156.42 77.89 155.99 Q 76.75 155.57 75.92 154.73 Q 75.09 153.89 74.63 152.64 Q 74.17 151.4 74.17 149.72 L 74.17 146.89 Q 74.17 145.22 74.63 143.96 Q 75.09 142.71 75.93 141.87 Q 76.77 141.03 77.9 140.6 Q 79.03 140.18 80.38 140.18 L 81.03 140.18 Q 82.38 140.18 83.52 140.6 Q 84.66 141.03 85.49 141.88 Q 86.32 142.73 86.78 143.97 Q 87.24 145.22 87.24 146.89 L 87.24 149.72 Q 87.24 151.38 86.78 152.63 Q 86.32 153.89 85.49 154.73 Q 84.66 155.57 83.53 155.99 Q 82.41 156.42 81.03 156.42 Z M 80.71 153.5 Q 81.26 153.5 81.74 153.33 Q 82.22 153.17 82.57 152.81 Q 82.91 152.44 83.11 151.86 Q 83.3 151.29 83.3 150.44 L 83.3 146.14 Q 83.3 145.28 83.11 144.71 Q 82.91 144.13 82.57 143.78 Q 82.22 143.42 81.74 143.25 Q 81.26 143.08 80.71 143.08 Q 80.15 143.08 79.68 143.25 Q 79.21 143.42 78.87 143.78 Q 78.52 144.13 78.32 144.71 Q 78.13 145.28 78.13 146.14 L 78.13 150.44 Q 78.13 151.29 78.32 151.86 Q 78.52 152.44 78.87 152.81 Q 79.21 153.17 79.68 153.33 Q 80.15 153.5 80.71 153.5 Z M 98.59 156.37 Q 97.76 156.37 97.12 156.11 Q 96.48 155.84 96.12 155.2 Q 95.76 154.55 95.76 153.4 Q 95.76 152.74 95.63 152.14 Q 95.49 151.54 95.21 151.1 Q 94.94 150.67 94.5 150.41 Q 94.06 150.16 93.46 150.16 L 91.49 150.16 L 91.49 156.19 L 87.74 156.19 L 87.74 140.41 L 95.12 140.41 Q 96.52 140.41 97.6 140.95 Q 98.68 141.49 99.28 142.43 Q 99.88 143.38 99.88 144.64 Q 99.88 146.14 99.12 147.19 Q 98.36 148.25 97.1 148.5 L 97.1 148.62 Q 97.95 148.87 98.5 149.45 Q 99.05 150.02 99.32 150.77 Q 99.58 151.52 99.58 152.32 Q 99.58 153.79 99.85 154.42 Q 100.11 155.04 100.75 155.22 L 100.75 156.03 Q 100.29 156.23 99.72 156.3 Q 99.14 156.37 98.59 156.37 Z M 91.49 147.29 L 94.08 147.29 Q 95.17 147.29 95.66 146.7 Q 96.15 146.11 96.15 145.24 Q 96.15 144.41 95.67 143.87 Q 95.19 143.33 94.18 143.33 L 91.49 143.33 Z M 105.56 156.42 Q 104.27 156.42 103.18 155.99 Q 102.08 155.57 101.27 154.73 Q 100.45 153.89 100 152.64 Q 99.55 151.4 99.55 149.72 L 99.55 146.89 Q 99.55 145.22 100 143.96 Q 100.45 142.71 101.28 141.87 Q 102.11 141.03 103.24 140.6 Q 104.38 140.18 105.76 140.18 L 106.41 140.18 Q 107.65 140.18 108.71 140.57 Q 109.76 140.96 110.56 141.71 Q 111.35 142.46 111.8 143.55 Q 112.25 144.64 112.25 146.02 L 108.66 146.02 Q 108.66 145.22 108.43 144.56 Q 108.2 143.9 107.64 143.49 Q 107.07 143.08 106.08 143.08 Q 105.33 143.08 104.75 143.38 Q 104.18 143.67 103.84 144.34 Q 103.51 145.01 103.51 146.14 L 103.51 150.44 Q 103.51 151.29 103.7 151.86 Q 103.9 152.44 104.24 152.81 Q 104.59 153.17 105.06 153.33 Q 105.53 153.5 106.08 153.5 Q 106.82 153.5 107.41 153.25 Q 107.99 153.01 108.34 152.43 Q 108.68 151.84 108.68 150.83 L 108.68 150.14 L 105.88 150.14 L 105.88 147.56 L 112.25 147.56 L 112.25 153.04 Q 112.25 154.05 112.28 154.75 Q 112.32 155.45 112.41 156.19 L 110.29 156.19 L 109.72 154.39 Q 109.19 155.34 108.1 155.88 Q 107 156.42 105.81 156.42 Z" style="fill: rgb(255,250,250); text-transform: uppercase;"/>
</svg>