<svg width="583" height="209" viewBox="0 0 583 209" fill="none" xmlns="http://www.w3.org/2000/svg">
<path d="M93.0748 96.4985C94.4048 97.7585 95.9048 99.1385 97.3448 100.579C98.3948 101.629 99.3448 102.789 100.375 103.859C101.385 104.909 102.455 105.919 103.505 106.929C104.325 107.719 105.165 108.489 105.985 109.279C107.135 110.409 108.295 111.529 109.415 112.689C110.925 114.249 112.375 115.869 113.915 117.409C115.005 118.509 116.235 119.469 117.335 120.559C118.595 121.809 119.755 123.149 120.995 124.409C122.325 125.749 123.735 127.009 125.055 128.339C126.125 129.419 127.115 130.579 128.175 131.669C129.395 132.919 130.655 134.129 131.905 135.359C133.005 136.449 134.095 137.539 135.205 138.609C135.855 139.239 136.595 139.789 137.165 140.479C137.385 140.739 137.435 141.479 137.235 141.699C135.935 143.139 134.565 144.509 133.165 145.859C132.075 146.919 130.875 147.859 129.795 148.929C128.525 150.189 127.365 151.559 126.105 152.829C125.025 153.929 123.845 154.949 122.755 156.039C121.685 157.109 120.695 158.249 119.645 159.339C118.645 160.369 117.625 161.369 116.605 162.379C115.245 163.729 113.885 165.079 112.515 166.409C111.405 167.479 110.265 168.519 109.165 169.589C108.385 170.349 107.645 171.159 106.865 171.929C105.235 173.539 103.575 175.119 101.975 176.759C100.725 178.039 99.5548 179.399 98.3048 180.669C97.2448 181.749 96.0948 182.749 95.0048 183.809C94.6248 184.179 94.2948 184.599 93.9748 185.009C93.2348 185.959 92.7348 185.979 91.9648 185.149C90.6948 183.779 89.4148 182.429 88.1248 181.089C86.9848 179.899 85.8348 178.709 84.6648 177.549C83.4248 176.319 82.1348 175.139 80.8948 173.909C79.7548 172.769 78.6748 171.569 77.5348 170.429C76.3048 169.199 75.0148 168.019 73.7748 166.789C72.6248 165.639 71.5348 164.439 70.3848 163.289C69.1748 162.089 67.9248 160.929 66.7148 159.729C65.5448 158.569 64.4348 157.349 63.2648 156.189C62.0248 154.949 60.7348 153.759 59.4948 152.519C58.3648 151.389 57.2848 150.209 56.1548 149.079C54.9148 147.849 53.6348 146.659 52.3948 145.429C51.2548 144.289 50.2248 143.019 48.9948 141.989C48.0948 141.229 48.2348 140.949 49.0348 140.199C50.8248 138.539 52.4348 136.699 54.1348 134.949C55.8148 133.219 57.5248 131.519 59.2248 129.809C60.6148 128.409 62.0048 127.009 63.4248 125.639C65.0048 124.109 66.6448 122.649 68.1948 121.099C69.7248 119.579 71.1548 117.959 72.6648 116.419C73.7048 115.359 74.8548 114.399 75.8948 113.349C76.9748 112.259 77.9648 111.059 79.0548 109.979C80.1248 108.909 81.3148 107.969 82.3848 106.899C83.4548 105.829 84.4248 104.659 85.4948 103.589C86.5548 102.519 87.6948 101.529 88.7748 100.479C89.5748 99.6985 90.3148 98.8585 91.1248 98.0985C91.7148 97.5485 92.3648 97.0685 93.0248 96.5285L93.0748 96.4985ZM89.7648 132.519C89.7648 133.019 89.7648 133.419 89.7648 133.809C89.7648 140.649 89.7648 147.499 89.7648 154.339C89.7648 155.449 90.2748 155.979 91.3848 155.979C92.3948 155.979 93.3948 155.979 94.4048 155.979C95.6848 155.979 96.1348 155.529 96.1348 154.249C96.1348 147.409 96.1348 140.559 96.1348 133.719C96.1348 133.339 96.1348 132.949 96.1348 132.519C98.3248 132.519 100.345 132.519 102.355 132.519C103.415 132.519 103.915 131.989 103.895 130.949C103.875 130.109 103.875 129.269 103.895 128.439C103.925 127.359 103.455 126.839 102.375 126.839C96.1348 126.839 89.8948 126.859 83.6548 126.809C82.6948 126.809 82.4148 127.179 82.4048 128.019C82.4048 128.989 82.4348 129.969 82.3148 130.929C82.1748 132.039 82.5048 132.519 83.6448 132.519C85.6448 132.519 87.6548 132.519 89.7748 132.519H89.7648Z" fill="#560095"/>
<path d="M96.2251 92.9587C97.6251 91.4887 98.9951 89.9787 100.425 88.5387C101.495 87.4687 102.685 86.5087 103.755 85.4387C104.815 84.3787 105.765 83.1987 106.835 82.1287C107.915 81.0587 109.105 80.0987 110.175 79.0187C111.245 77.9487 112.215 76.7687 113.275 75.6787C114.055 74.8687 114.925 74.1487 115.725 73.3587C116.585 72.4987 117.365 71.5687 118.235 70.7187C119.325 69.6587 120.475 68.6687 121.575 67.6287C122.375 66.8687 123.135 66.0787 123.895 65.2887C124.925 64.2187 125.915 63.1187 126.955 62.0587C128.045 60.9487 129.155 59.8587 130.265 58.7787C131.395 57.6887 132.565 56.6487 133.665 55.5287C134.735 54.4487 135.705 53.2687 136.775 52.1787C137.825 51.1187 138.885 50.0687 140.035 49.1187C141.305 48.0787 142.415 48.3987 143.175 49.8587C143.395 50.2787 143.675 50.8587 144.045 50.9687C144.945 51.2387 145.205 52.0687 145.775 52.6087C146.315 53.1087 146.905 53.5687 147.415 54.0887C148.675 55.3787 149.755 56.8887 151.195 57.9387C152.345 58.7687 152.785 60.1987 154.215 60.7987C155.005 61.1287 155.445 62.2287 156.135 62.8987C157.155 63.8887 158.265 64.7786 159.285 65.7586C159.595 66.0586 159.715 66.5487 160.025 66.8587C161.375 68.1687 162.795 69.4187 164.125 70.7487C165.285 71.9087 166.275 73.2687 167.525 74.3187C168.375 75.0387 168.865 76.1187 169.745 76.6487C171.205 77.5387 171.925 79.0987 173.335 80.0487C174.645 80.9287 175.475 82.4887 176.735 83.4687C177.865 84.3487 178.405 85.7587 179.835 86.3987C180.645 86.7687 181.085 87.8887 181.785 88.5787C182.775 89.5387 183.875 90.3887 184.875 91.3387C185.285 91.7387 185.565 92.2787 185.865 92.7787C185.935 92.8887 185.905 93.1587 185.815 93.2487C185.015 94.0187 184.165 94.7487 183.375 95.5287C182.335 96.5687 181.325 97.6387 180.305 98.6987C179.745 99.2787 179.205 99.8687 178.635 100.439C177.575 101.469 176.495 102.479 175.435 103.509C174.215 104.679 172.975 105.829 171.795 107.039C170.585 108.269 169.475 109.599 168.265 110.829C167.135 111.959 165.885 112.969 164.755 114.109C163.695 115.179 162.765 116.389 161.695 117.459C160.405 118.749 159.025 119.939 157.715 121.219C156.505 122.399 155.365 123.639 154.155 124.829C152.925 126.039 151.645 127.199 150.425 128.419C149.205 129.649 148.075 130.979 146.845 132.209C145.715 133.339 144.515 134.389 143.365 135.499C142.825 136.019 142.285 136.539 141.825 137.119C141.245 137.869 140.825 137.639 140.275 137.079C139.205 136.009 138.055 135.019 136.985 133.949C135.925 132.879 134.945 131.719 133.885 130.649C132.815 129.569 131.685 128.559 130.595 127.509C130.045 126.979 129.525 126.419 128.985 125.889C127.835 124.769 126.665 123.669 125.535 122.529C124.965 121.949 124.505 121.269 123.935 120.689C122.915 119.649 121.835 118.659 120.795 117.639C119.925 116.769 119.075 115.869 118.215 114.989C117.675 114.439 117.135 113.899 116.585 113.359C115.965 112.749 115.325 112.149 114.705 111.539C113.615 110.479 112.525 109.429 111.455 108.349C110.605 107.489 109.795 106.599 108.955 105.729C108.175 104.929 107.365 104.139 106.565 103.349C105.475 102.259 104.385 101.159 103.285 100.069C102.205 99.0087 101.095 97.9587 100.015 96.8987C99.4551 96.3487 98.9051 95.7787 98.3551 95.2187C97.6351 94.4787 96.9251 93.7387 96.2051 92.9787L96.2251 92.9587ZM149.975 107.299C150.745 106.849 150.955 106.089 150.855 105.159C150.795 104.599 150.855 104.019 150.845 103.449C150.825 102.299 150.425 101.899 149.315 101.899C146.125 101.899 142.945 101.899 139.755 101.899C139.345 101.899 138.805 102.059 138.805 101.359C138.805 99.4287 138.805 97.4987 138.805 95.4187H149.555C149.555 93.8387 149.525 92.4087 149.565 90.9687C149.585 90.1087 149.265 89.8187 148.395 89.8287C145.515 89.8787 142.625 89.8287 139.745 89.8587C139.005 89.8587 138.735 89.6587 138.765 88.8887C138.825 87.5787 138.815 86.2687 138.765 84.9687C138.735 84.2087 139.005 83.9787 139.745 83.9887C141.955 84.0287 144.175 83.9987 146.385 83.9987C147.655 83.9987 148.915 83.9987 150.235 83.9987V78.4087C144.915 78.4087 139.715 78.4087 134.525 78.4087C133.005 78.4087 132.655 78.7687 132.655 80.3587C132.655 88.6387 132.675 96.9287 132.635 105.209C132.635 106.139 132.775 106.889 133.435 107.319C134.255 107.219 134.935 107.069 135.615 107.059C139.845 107.039 144.065 107.039 148.295 107.059C148.805 107.059 149.325 107.209 149.985 107.309L149.975 107.299Z" fill="black"/>
<path d="M189.195 89.4386C188.005 88.2386 186.865 87.0986 185.745 85.9486C183.805 83.9486 181.905 81.9186 179.945 79.9386C178.835 78.8186 177.605 77.8186 176.505 76.6986C174.545 74.7186 172.665 72.6686 170.705 70.6886C169.505 69.4786 168.215 68.3586 167.005 67.1486C165.875 66.0086 164.835 64.7786 163.695 63.6386C162.425 62.3786 161.075 61.1986 159.785 59.9486C158.095 58.3086 156.425 56.6386 154.765 54.9786C153.075 53.2886 151.385 51.5886 149.695 49.8886C148.315 48.4986 146.915 47.1186 145.535 45.7386C145.245 45.4486 144.735 45.1086 144.775 44.8486C144.845 44.3786 145.165 43.8886 145.515 43.5286C146.585 42.3986 147.695 41.2986 148.805 40.2186C149.905 39.1486 151.055 38.1186 152.155 37.0286C152.985 36.2186 153.745 35.3286 154.555 34.5086C155.395 33.6686 156.295 32.8786 157.125 32.0286C158.185 30.9386 159.185 29.7986 160.235 28.7086C160.785 28.1386 161.425 27.6386 161.985 27.0786C162.865 26.1986 163.695 25.2786 164.565 24.3886C165.335 23.6086 166.145 22.8486 166.925 22.0786C168.015 21.0086 169.085 19.9286 170.175 18.8686C171.285 17.7886 172.445 16.7486 173.525 15.6486C174.595 14.5586 175.565 13.3686 176.645 12.2886C177.695 11.2386 178.835 10.2786 179.905 9.24861C180.735 8.43861 181.495 7.55861 182.315 6.72861C183.385 5.64861 184.485 4.58861 185.575 3.51861C186.615 2.48861 187.675 1.47861 188.685 0.418606C189.245 -0.171394 189.645 -0.131394 190.225 0.498606C190.985 1.32861 191.845 2.06861 192.655 2.84861C193.485 3.64861 194.325 4.45861 195.135 5.27861C195.985 6.13861 196.815 7.01861 197.655 7.87861C198.475 8.71861 199.295 9.55861 200.135 10.3786C201.235 11.4586 202.365 12.4986 203.465 13.5786C204.015 14.1086 204.525 14.6686 205.055 15.2286C205.635 15.8486 206.195 16.4886 206.785 17.0986C207.665 18.0086 208.545 18.9086 209.455 19.7886C210.525 20.8186 211.625 21.8086 212.695 22.8386C213.245 23.3686 213.775 23.9186 214.295 24.4686C215.345 25.5686 216.365 26.6886 217.435 27.7586C218.285 28.6186 219.205 29.4086 220.075 30.2386C220.975 31.0986 221.865 31.9486 222.735 32.8386C223.535 33.6586 224.285 34.5386 225.075 35.3686C225.805 36.1386 226.525 36.9086 227.295 37.6486C228.365 38.6786 229.475 39.6686 230.545 40.6986C231.575 41.6886 232.585 42.6886 233.585 43.7086C234.395 44.5386 234.355 44.7886 233.505 45.6286C231.875 47.2286 230.275 48.8586 228.645 50.4486C227.305 51.7486 225.905 52.9786 224.595 54.2986C223.285 55.6086 222.085 57.0286 220.775 58.3286C219.205 59.8786 217.535 61.3286 215.975 62.8886C214.455 64.4086 213.045 66.0486 211.515 67.5686C209.965 69.1186 208.295 70.5586 206.745 72.1086C205.435 73.4186 204.265 74.8486 202.955 76.1586C201.865 77.2586 200.635 78.2086 199.535 79.2986C198.335 80.4886 197.235 81.7786 196.045 82.9686C194.895 84.1186 193.665 85.1786 192.515 86.3186C191.685 87.1486 190.965 88.0886 190.135 88.9286C189.855 89.2086 189.415 89.3286 189.175 89.4486L189.195 89.4386ZM200.175 41.3086C200.175 41.3086 200.205 41.3086 200.215 41.3086C200.215 37.9186 200.205 34.5386 200.215 31.1486C200.215 30.3286 199.995 29.9086 199.065 29.9886C198.135 30.0686 197.185 30.0086 196.245 30.0086C194.585 30.0086 194.475 30.1186 194.475 31.7686C194.475 37.8686 194.455 43.9786 194.445 50.0786C194.445 51.3286 193.715 52.1186 192.815 52.8686C191.795 53.7286 190.565 53.5386 189.425 53.6086C188.335 53.6686 187.025 53.7686 186.175 53.2586C184.815 52.4286 183.845 50.9986 183.825 49.2986C183.755 44.2986 183.795 39.3086 183.795 34.3086C183.795 33.1986 183.795 32.0986 183.795 30.9886C183.795 30.3086 183.595 29.9486 182.805 29.9986C181.765 30.0686 180.725 29.9986 179.685 30.0186C178.545 30.0186 178.125 30.4386 178.125 31.5586C178.125 37.3286 178.085 43.0986 178.155 48.8586C178.175 50.2986 178.555 51.7286 178.775 53.1586C178.775 53.2186 178.795 53.3086 178.835 53.3386C179.645 54.0286 180.055 55.0486 180.675 55.8686C182.275 57.9886 184.445 58.7586 186.795 59.1386C188.425 59.4086 190.145 59.2886 191.805 59.1386C192.885 59.0486 194.045 58.7886 194.985 58.2686C196.155 57.6086 197.185 56.7186 198.145 55.6786C199.395 54.3286 199.995 52.7886 200.085 51.1586C200.265 47.8786 200.135 44.5886 200.135 41.2986L200.175 41.3086Z" fill="black"/>
<path d="M89.8649 92.7087C88.6849 93.9387 87.7749 94.9087 86.8349 95.8587C86.0349 96.6687 85.2249 97.4587 84.4149 98.2487C83.3249 99.3187 82.2349 100.389 81.1449 101.459C80.0349 102.539 78.9049 103.609 77.8249 104.719C76.7649 105.809 75.7749 106.959 74.7149 108.049C73.9249 108.859 73.0649 109.589 72.2649 110.389C71.4049 111.249 70.6049 112.159 69.7449 113.019C68.9249 113.829 68.0549 114.589 67.2249 115.399C66.1549 116.439 65.1249 117.519 64.0649 118.569C63.2249 119.409 62.3649 120.229 61.5249 121.069C60.7049 121.879 59.8849 122.689 59.0849 123.519C58.2749 124.349 57.5049 125.209 56.6849 126.039C55.6049 127.119 54.5049 128.169 53.4249 129.249C52.5949 130.079 51.7849 130.939 50.9549 131.759C49.8749 132.829 48.7449 133.869 47.6749 134.949C46.9049 135.729 46.2449 136.629 45.4049 137.319C45.1449 137.539 44.3049 137.459 44.0349 137.199C42.7849 136.009 41.6649 134.679 40.4349 133.469C38.9649 132.009 37.4149 130.639 35.9449 129.189C34.8149 128.069 33.7849 126.849 32.6649 125.719C31.7549 124.819 30.7549 124.009 29.8249 123.129C29.0949 122.439 28.4149 121.689 27.7149 120.969C26.7049 119.929 25.7049 118.899 24.7049 117.849C23.5349 116.629 22.4149 115.369 21.2149 114.179C20.0049 112.989 18.6949 111.889 17.4849 110.699C16.3349 109.559 15.2849 108.309 14.1449 107.159C12.8749 105.889 11.5149 104.699 10.2549 103.419C8.43486 101.579 6.68486 99.6687 4.85486 97.8387C3.59486 96.5687 2.24486 95.3787 0.93486 94.1487C0.63486 93.8687 0.32486 93.5987 0.0948598 93.2787C-0.0151402 93.1287 -0.0351402 92.7787 0.0648598 92.6587C0.77486 91.8487 1.26486 90.8387 2.33486 90.3287C2.72486 90.1487 2.87486 89.5287 3.21486 89.1887C3.82486 88.5987 4.56486 88.1387 5.14486 87.5287C6.10486 86.5187 6.97486 85.4287 7.90486 84.3887C8.15486 84.1087 8.49486 83.8887 8.77486 83.6387C10.2349 82.2987 11.7549 81.0287 12.8949 79.3787C13.0449 79.1587 13.3949 79.0887 13.6249 78.9187C14.7949 78.0587 15.8049 76.9387 16.7049 75.8887C17.7749 74.6387 19.0949 73.6687 20.1149 72.3587C21.1249 71.0787 22.5649 70.1387 23.7249 68.9687C24.6849 68.0087 25.5049 66.9087 26.4049 65.8887C26.6749 65.5787 26.9549 65.2787 27.2649 65.0187C28.5349 63.9087 30.0249 62.9787 31.0449 61.6687C32.0049 60.4287 33.2349 59.4987 34.2249 58.3087C35.1249 57.2287 36.2849 56.3787 37.3049 55.3887C37.7149 54.9887 38.0449 54.5087 38.4249 54.0787C38.6949 53.7687 38.9749 53.4687 39.2749 53.1887C40.2849 52.2587 41.3249 51.3687 42.3049 50.4187C42.7549 49.9887 43.0649 49.4287 43.4749 48.9487C44.1949 48.1187 44.8549 48.1887 45.6249 48.9687C46.6649 50.0187 47.8249 50.9687 48.8749 52.0087C49.9449 53.0787 50.9249 54.2287 51.9849 55.3087C52.8149 56.1487 53.7049 56.9187 54.5549 57.7487C55.3549 58.5287 56.1349 59.3387 56.9349 60.1287C58.0549 61.2387 59.2049 62.3087 60.2949 63.4387C61.3449 64.5187 62.3349 65.6687 63.3849 66.7487C64.4049 67.7987 65.4649 68.7987 66.5149 69.8187C67.3549 70.6387 68.2049 71.4387 69.0549 72.2587C70.1849 73.3487 71.3249 74.4387 72.4249 75.5587C73.4849 76.6387 74.4849 77.7787 75.5349 78.8687C76.5249 79.8987 77.5449 80.8887 78.5449 81.9087C79.6649 83.0387 80.7849 84.1787 81.9149 85.2987C82.9549 86.3287 84.0049 87.3387 85.0549 88.3587C85.8949 89.1787 86.7249 90.0087 87.5849 90.7987C88.3049 91.4587 89.0749 92.0587 89.8549 92.7187L89.8649 92.7087ZM50.3849 95.2387C50.2349 95.2987 50.0849 95.3687 49.9449 95.4287C49.3649 94.6087 48.7749 93.7887 48.1949 92.9687C46.8449 91.0587 45.4849 89.1587 44.1349 87.2487C43.9049 86.9287 43.6549 86.6187 43.4349 86.2787C42.8549 85.3787 42.3449 84.4387 41.7149 83.5687C40.9049 82.4487 39.9449 81.4487 39.1849 80.2987C38.4049 79.1087 37.6249 78.1087 35.9949 78.3887C35.6649 78.4487 35.3249 78.3887 34.9949 78.3887C33.6349 78.3887 33.5049 78.5287 33.5049 79.8887C33.5049 86.1887 33.5049 92.4987 33.5049 98.7987C33.5049 101.209 33.5049 103.629 33.5049 106.039C33.5049 106.659 34.2549 107.389 34.7849 107.329C35.8949 107.209 37.0149 107.049 38.1349 107.029C38.9549 107.029 39.2249 106.779 39.2149 105.939C39.1749 101.139 39.1949 96.3487 39.1949 91.5487C39.1949 91.1687 39.2249 90.7887 39.2449 90.4087C39.3649 90.3587 39.4849 90.2987 39.6049 90.2487C40.1449 90.9787 40.6949 91.7087 41.2249 92.4387C41.9449 93.4287 42.6449 94.4387 43.3649 95.4287C44.0949 96.4487 44.8649 97.4487 45.5649 98.4887C46.3949 99.7287 47.1349 101.019 47.9849 102.239C48.4949 102.959 49.1949 103.549 49.7349 104.259C50.2849 104.999 50.6649 105.879 51.2649 106.559C51.5749 106.919 52.2049 107.139 52.7049 107.179C53.5149 107.239 54.3449 107.099 55.1749 107.039C56.0949 106.919 56.2749 106.179 56.1649 105.279C56.1049 104.779 56.1549 104.279 56.1549 103.769C56.1549 95.8587 56.1549 87.9387 56.1549 80.0287C56.1549 78.7687 55.7549 78.3687 54.4949 78.3687C53.7249 78.3687 52.9449 78.4187 52.1849 78.3587C51.2149 78.2687 50.4149 78.3887 50.2149 79.4587C50.4549 84.6887 50.3449 89.9487 50.4149 95.1987L50.3849 95.2387Z" fill="black"/>
<path d="M224.495 111.118H218.045V77.6184C219.565 77.6184 221.125 77.5784 222.675 77.6584C222.985 77.6784 223.325 78.1184 223.545 78.4284C224.575 79.8984 225.545 81.4184 226.595 82.8784C227.425 84.0384 228.355 85.1284 229.215 86.2684C229.505 86.6484 229.715 87.0784 229.985 87.4684C230.675 88.4684 231.395 89.4484 232.085 90.4484C232.845 91.5384 233.505 92.7184 234.355 93.7284C235.035 94.5484 235.235 95.7184 236.275 96.2984C236.525 96.4384 236.545 96.9884 236.675 97.3384C236.775 97.3584 236.875 97.3684 236.965 97.3884C237.065 96.9284 237.245 96.4684 237.255 96.0184C237.275 90.2784 237.265 84.5384 237.255 78.8084C237.255 78.4784 237.255 78.1484 237.255 77.5884H240.995C242.855 77.5884 243.785 78.5251 243.785 80.3984C243.785 90.1284 243.785 99.8584 243.785 109.588C243.785 110.642 243.248 111.168 242.175 111.168C241.475 111.168 240.765 111.168 240.065 111.168C238.765 111.168 238.325 110.848 237.855 109.658C237.745 109.378 237.465 109.148 237.265 108.908C236.515 108.028 236.105 106.948 235.235 106.078C234.205 105.038 233.625 103.568 232.805 102.318C232.325 101.588 231.715 100.958 231.205 100.248C230.575 99.3684 229.995 98.4584 229.395 97.5684C228.805 96.6884 228.185 95.8184 227.625 94.9284C227.035 93.9984 225.995 93.3984 225.735 92.1984C225.655 91.8484 225.065 91.5984 224.495 91.1284V111.128V111.118Z" fill="black"/>
<path d="M450.845 121.179H457.325C457.325 121.719 457.325 122.179 457.325 122.649C457.325 129.829 457.365 136.999 457.305 144.179C457.295 145.689 458.095 146.599 459.045 147.489C460.945 149.289 463.365 149.119 465.595 148.719C466.835 148.489 468.195 147.819 468.935 146.309C469.305 145.549 469.445 144.869 469.445 144.119C469.475 136.979 469.475 129.829 469.475 122.689C469.475 121.629 470.021 121.095 471.115 121.089C472.455 121.089 473.795 121.099 475.135 121.089C475.985 121.079 476.435 121.359 476.435 122.309C476.415 129.549 476.445 136.799 476.385 144.039C476.375 145.339 476.325 146.819 475.725 147.899C474.755 149.649 473.845 151.489 471.925 152.669C470.535 153.529 469.125 154.149 467.625 154.759C465.195 155.739 462.765 155.189 460.335 155.179C459.495 155.179 458.655 154.479 457.815 154.109C457.235 153.849 456.615 153.639 456.065 153.309C454.425 152.349 452.995 151.179 452.205 149.349C451.935 148.709 451.455 148.159 451.155 147.529C450.975 147.159 450.895 146.709 450.895 146.299C450.855 139.689 450.845 133.089 450.825 126.479C450.825 124.739 450.825 122.999 450.825 121.179H450.845Z" fill="black"/>
<path d="M224.475 141.159V148.139H238.495C238.565 148.699 238.655 149.119 238.665 149.529C238.685 150.899 238.625 152.279 238.685 153.649C238.715 154.439 238.485 154.689 237.675 154.689C233.855 154.649 230.025 154.669 226.205 154.669C223.895 154.669 221.575 154.669 219.265 154.669C218.875 154.669 218.475 154.669 218.025 154.669V121.169C218.405 121.149 218.795 121.099 219.175 121.099C225.145 121.099 231.115 121.099 237.085 121.099C238.405 121.099 238.515 121.219 238.515 122.539C238.515 123.809 238.465 125.089 238.535 126.359C238.585 127.359 238.065 127.519 237.245 127.519C233.525 127.499 229.795 127.519 226.075 127.519C224.475 127.519 224.455 127.539 224.455 129.159C224.455 130.599 224.505 132.049 224.435 133.489C224.385 134.479 224.905 134.679 225.715 134.679C229.005 134.679 232.285 134.679 235.575 134.679C236.075 134.679 236.575 134.679 237.205 134.679C237.205 136.649 237.205 138.519 237.205 140.389C237.205 141.099 236.645 141.019 236.185 141.019C232.835 141.019 229.475 141.019 226.125 141.019C225.595 141.019 225.075 141.109 224.485 141.169L224.475 141.159Z" fill="black"/>
<path d="M260.525 133.238C260.565 132.668 260.615 132.288 260.615 131.908C260.615 128.788 260.615 125.668 260.615 122.548C260.615 121.098 260.615 121.098 262.025 121.098C263.235 121.098 264.445 121.128 265.645 121.088C266.305 121.068 266.565 121.328 266.545 121.958C266.535 122.228 266.545 122.498 266.545 122.758C266.545 132.988 266.535 143.218 266.565 153.438C266.565 154.398 266.325 154.748 265.335 154.688C264.095 154.608 262.855 154.628 261.615 154.688C260.795 154.728 260.515 154.428 260.605 153.648C260.645 153.288 260.605 152.928 260.605 152.248C260.035 152.568 259.675 152.758 259.325 152.958C258.315 153.528 257.295 154.078 256.315 154.698C254.755 155.688 253.035 155.218 251.385 155.268C250.115 155.308 249.005 154.738 247.945 154.078C247.385 153.728 246.715 153.558 246.205 153.158C245.525 152.628 244.905 151.998 244.345 151.338C243.665 150.548 243.015 149.728 242.435 148.868C242.075 148.318 241.755 147.688 241.625 147.048C241.335 145.588 240.785 144.008 241.075 142.638C241.415 141.058 241.375 139.428 241.975 137.838C242.795 135.648 244.295 134.098 245.875 132.638C246.625 131.938 247.695 131.398 248.775 130.938C251.095 129.948 253.365 130.358 255.625 130.498C256.645 130.568 257.615 131.418 258.585 131.958C259.205 132.308 259.765 132.738 260.535 133.248L260.525 133.238ZM247.175 142.578C246.955 146.008 249.835 149.158 253.835 149.158C258.235 149.158 260.565 146.008 260.515 142.898C260.455 139.028 258.335 136.328 253.955 136.188C250.485 136.068 247.015 138.888 247.175 142.588V142.578Z" fill="black"/>
<path d="M382.335 89.6886C382.405 89.3286 382.565 88.9186 382.525 88.5386C382.395 87.4486 383.155 87.1886 383.905 87.1286C385.075 87.0286 386.255 87.0686 387.425 87.1086C388.355 87.1486 388.875 87.7486 388.875 88.6786C388.875 95.7186 388.875 102.769 388.875 109.809C388.875 111.149 388.875 111.149 387.555 111.159C385.945 111.159 384.345 111.159 382.645 111.159C382.585 110.409 382.535 109.719 382.465 108.769C381.705 109.199 380.975 109.439 380.505 109.929C379.745 110.729 378.945 111.149 377.835 111.219C376.645 111.299 375.445 111.809 374.285 111.729C372.365 111.579 370.425 111.259 368.885 109.839C368.305 109.309 367.555 108.969 366.975 108.439C366.405 107.919 365.875 107.309 365.475 106.649C364.745 105.439 364.105 104.169 363.465 102.899C363.355 102.679 363.365 102.369 363.365 102.109C363.345 100.569 363.215 99.0186 363.345 97.4886C363.455 96.1786 363.615 94.7686 364.195 93.6286C364.945 92.1686 365.925 90.7986 367.275 89.6886C367.985 89.0986 368.625 88.4186 369.475 88.0386C370.395 87.6186 371.335 87.2486 372.285 86.9086C372.935 86.6786 373.615 86.5486 374.275 86.3786C374.375 86.3486 374.475 86.2986 374.565 86.3186C375.755 86.5586 376.985 86.7286 378.135 87.0886C378.965 87.3486 379.735 87.8586 380.485 88.3186C381.095 88.6886 381.645 89.1686 382.345 89.6786L382.335 89.6886ZM375.805 105.459C375.825 105.559 375.855 105.659 375.875 105.759C376.985 105.429 378.095 105.119 379.195 104.749C381.185 104.079 381.995 102.349 382.415 100.579C382.865 98.6486 382.585 96.6886 381.135 95.0786C379.835 93.6286 378.385 92.5286 376.315 92.6286C375.775 92.6586 375.245 92.6486 374.705 92.6486C373.615 92.6486 372.785 93.2486 371.925 93.8286C371.135 94.3686 370.555 95.0186 370.165 95.9286C369.645 97.1186 368.935 98.2286 369.125 99.5886C369.205 100.159 369.635 100.689 369.685 101.249C369.805 102.499 370.635 103.319 371.435 104.059C372.635 105.159 374.125 105.679 375.815 105.459H375.805Z" fill="black"/>
<path d="M267.715 89.6786C267.765 89.2986 267.885 88.9086 267.845 88.5386C267.715 87.4786 268.415 87.1786 269.205 87.1286C270.405 87.0486 271.625 87.0186 272.825 87.1386C273.555 87.2086 274.205 87.5486 274.205 88.5686C274.175 95.6486 274.195 102.729 274.185 109.809C274.185 111.109 274.135 111.159 272.825 111.159C271.315 111.159 269.805 111.159 268.295 111.149C268.195 111.149 268.105 111.109 267.915 111.069C267.875 110.399 267.835 109.719 267.785 108.739C266.985 109.229 266.295 109.539 265.735 110.019C265.035 110.619 264.365 111.049 263.405 111.239C262.015 111.509 260.655 112.029 259.225 111.769C257.135 111.389 255.225 110.709 253.395 109.429C252.005 108.459 251.345 107.059 250.225 105.989C249.695 105.479 249.655 104.479 249.265 103.769C248.045 101.499 248.585 99.0586 248.655 96.6986C248.705 95.2286 249.285 93.7786 250.225 92.5586C251.085 91.4386 251.875 90.2286 252.905 89.2886C253.705 88.5586 254.775 88.0486 255.805 87.6486C257.085 87.1386 258.455 86.8386 259.775 86.4486C259.835 86.4286 259.905 86.3686 259.955 86.3786C261.185 86.6786 262.415 86.9886 263.635 87.3086C263.775 87.3486 263.905 87.5586 264.025 87.5586C265.295 87.4986 266.005 88.5086 266.955 89.0686C267.175 89.1986 267.275 89.5086 267.435 89.7386C267.525 89.7286 267.625 89.7186 267.715 89.6986V89.6786ZM260.965 105.479C263.465 105.639 265.445 104.929 266.745 102.819C267.065 102.299 267.535 101.769 267.585 101.209C267.715 99.8386 267.855 98.3986 267.565 97.0786C267.355 96.0986 266.625 95.2186 265.805 94.4086C264.955 93.5686 263.965 92.9286 262.985 92.7686C260.505 92.3686 258.055 92.4786 256.235 94.7486C255.225 96.0086 254.585 97.3886 254.445 98.9486C254.385 99.6686 254.905 100.419 254.945 101.169C255.025 102.479 255.915 103.299 256.725 104.049C257.905 105.139 259.405 105.699 260.955 105.479H260.965Z" fill="black"/>
<path d="M342.555 152.278C342.035 152.528 341.655 152.628 341.375 152.848C340.405 153.618 339.345 154.198 338.225 154.738C336.355 155.638 334.455 155.218 332.565 155.208C331.865 155.208 331.125 154.838 330.465 154.498C328.845 153.648 327.395 152.648 326.145 151.218C324.995 149.898 324.035 148.468 323.605 146.888C323.165 145.248 323.325 143.438 323.275 141.698C323.255 141.028 323.355 140.358 323.415 139.688C323.505 138.518 324.145 137.568 324.605 136.528C325.295 134.938 326.535 133.878 327.695 132.768C328.505 131.998 329.585 131.488 330.645 130.958C332.725 129.928 334.805 130.408 336.885 130.378C338.315 130.358 339.475 131.198 340.605 132.008C341.155 132.398 341.755 132.728 342.485 133.178C342.515 132.658 342.575 132.278 342.565 131.898C342.515 130.978 342.885 130.528 343.855 130.568C344.965 130.608 346.065 130.568 347.175 130.568C348.255 130.568 348.505 130.838 348.505 131.958C348.505 135.048 348.505 138.128 348.505 141.218C348.505 145.338 348.485 149.468 348.525 153.588C348.525 154.428 348.265 154.708 347.435 154.668C346.165 154.608 344.885 154.608 343.615 154.668C342.765 154.708 342.455 154.408 342.565 153.578C342.615 153.228 342.565 152.858 342.565 152.258L342.555 152.278ZM328.885 142.708C329.175 143.578 329.475 144.448 329.765 145.318C330.315 146.958 331.385 148.338 332.995 148.738C335.115 149.268 337.385 149.528 339.425 148.238C341.215 147.108 342.265 145.388 342.485 143.348C342.615 142.168 342.355 140.808 341.845 139.728C340.905 137.748 339.105 136.668 336.985 136.188C335.365 135.818 333.735 136.268 332.425 137.008C330.365 138.168 329.105 140.088 328.895 142.688L328.885 142.708Z" fill="black"/>
<path d="M531.425 111.158V109.018C530.315 108.648 529.975 109.698 529.295 110.018C528.495 110.388 527.725 110.808 526.925 111.188C525.535 111.848 524.015 112.018 522.585 111.718C520.935 111.368 519.135 111.298 517.805 109.898C517.145 109.208 516.125 108.868 515.495 108.168C514.705 107.288 514.145 106.208 513.495 105.208C511.865 102.738 511.955 99.9684 512.115 97.1884C512.195 95.6884 512.925 94.4284 513.455 93.0684C514.225 91.0984 515.895 89.9484 517.275 88.5384C517.795 88.0084 518.715 87.8384 519.475 87.5784C520.685 87.1584 521.915 86.7984 523.145 86.4184C523.325 86.3584 523.535 86.3284 523.725 86.3584C524.535 86.5084 525.365 86.6184 526.135 86.8884C527.905 87.5084 529.795 87.9284 530.925 89.6684C530.965 89.7284 531.105 89.7184 531.355 89.7884C531.385 89.3484 531.485 88.9284 531.435 88.5384C531.315 87.4984 531.955 87.1684 532.785 87.1184C533.955 87.0584 535.135 87.0784 536.305 87.1084C537.275 87.1284 537.365 87.8384 537.365 88.5884C537.365 93.3184 537.365 98.0484 537.365 102.768C537.365 105.148 537.345 107.528 537.375 109.908C537.385 110.818 537.145 111.238 536.125 111.178C534.625 111.088 533.115 111.158 531.455 111.158H531.425ZM524.715 92.6384C520.655 92.3184 518.005 95.8384 518.015 99.0784C518.035 102.438 520.505 105.468 524.645 105.578C528.555 105.678 531.365 102.518 531.465 99.1684C531.565 95.9384 528.215 92.1985 524.715 92.6485V92.6384Z" fill="black"/>
<path d="M443.975 102.009C444.475 102.849 444.845 103.619 445.365 104.259C445.725 104.699 446.255 105.069 446.785 105.279C447.755 105.649 448.765 105.909 449.785 106.129C450.265 106.239 450.785 106.129 451.285 106.149C452.885 106.209 454.115 105.359 455.275 104.459C456.005 103.889 456.585 103.879 457.325 104.459C457.845 104.869 458.525 105.099 459.125 105.409C459.645 105.679 460.205 105.899 460.665 106.259C460.815 106.369 460.815 106.909 460.685 107.119C459.955 108.269 458.905 109.059 457.745 109.739C457.105 110.109 456.495 110.529 455.865 110.929C455.785 110.979 455.705 111.069 455.615 111.079C453.285 111.299 451.015 112.159 448.635 111.729C447.615 111.549 446.535 111.469 445.605 111.069C444.495 110.599 443.515 109.809 442.455 109.199C440.925 108.309 440.015 106.859 439.015 105.489C438.655 104.989 438.325 104.379 438.235 103.779C437.935 101.689 437.015 99.6588 437.505 97.5088C437.785 96.2688 438.445 95.1188 438.695 93.8788C439.105 91.8988 440.455 90.5788 441.845 89.4388C442.785 88.6688 443.795 87.7588 445.225 87.5688C446.745 87.3688 448.225 86.7988 449.725 86.3988C449.975 86.3288 450.265 86.3088 450.515 86.3588C451.355 86.5188 452.205 86.6588 453.005 86.9288C454.055 87.2888 455.025 87.8888 456.085 88.1888C457.865 88.6888 458.955 90.1288 459.885 91.3988C460.645 92.4388 461.335 93.7388 461.715 95.1688C462.175 96.8888 462.315 98.5588 462.285 100.289C462.265 101.409 461.805 101.849 460.695 101.859C455.595 101.859 450.505 101.859 445.405 101.859C444.925 101.859 444.445 101.949 443.965 101.999L443.975 102.009ZM443.655 96.8088H456.175C455.795 96.0488 455.445 95.5088 455.245 94.9188C454.775 93.5088 453.595 92.8688 452.355 92.6888C450.755 92.4688 449.095 92.6388 447.455 92.6588C447.225 92.6588 446.935 92.6788 446.785 92.8088C446.045 93.4988 445.295 94.1888 444.645 94.9588C444.245 95.4388 444.035 96.0688 443.645 96.7988L443.655 96.8088Z" fill="black"/>
<path d="M532.105 130.318C532.575 130.318 533.045 130.318 533.515 130.318C535.165 130.318 536.695 130.648 538.025 131.718C538.725 132.278 539.645 132.578 540.275 133.188C541.275 134.148 542.355 135.008 543.015 136.338C543.695 137.708 544.385 139.008 544.405 140.598C544.405 141.398 544.875 142.208 544.815 142.988C544.725 144.328 544.545 145.698 544.115 146.958C543.745 148.028 542.905 148.918 542.395 149.948C541.525 151.678 539.965 152.668 538.475 153.708C537.795 154.178 536.885 154.298 536.135 154.688C534.185 155.708 532.105 155.208 530.075 155.258C528.925 155.288 527.935 154.768 527.005 154.098C526.525 153.758 525.915 153.598 525.375 153.338C523.585 152.478 522.375 151.028 521.335 149.388C520.535 148.118 519.955 146.798 519.875 145.258C519.825 144.328 519.455 143.408 519.425 142.478C519.365 140.698 520.085 139.098 520.635 137.428C521.325 135.348 522.945 134.138 524.345 132.768C525.165 131.968 526.445 131.518 527.565 130.978C529.105 130.228 530.605 130.518 532.115 130.338L532.105 130.318ZM538.555 142.678C538.755 138.838 535.445 136.168 532.065 136.178C528.805 136.178 525.655 138.808 525.655 142.738C525.655 146.428 528.435 149.118 532.085 149.138C535.915 149.168 538.785 146.168 538.555 142.678Z" fill="black"/>
<path d="M332.705 99.1185C332.705 99.9885 332.705 100.759 332.705 101.529C332.715 102.799 332.005 103.759 331.465 104.839C331.035 105.689 330.645 106.499 329.955 107.169C329.145 107.949 328.525 109.169 327.565 109.519C326.175 110.029 325.195 111.409 323.455 111.259C322.295 111.159 321.065 111.829 319.905 111.729C317.825 111.539 315.835 111.179 313.885 109.979C312.085 108.879 310.895 107.309 309.405 105.989C309.025 105.649 308.835 105.059 308.645 104.559C308.325 103.719 307.885 102.859 307.815 101.979C307.685 100.209 307.645 98.4185 307.815 96.6585C307.905 95.6385 308.395 94.6386 308.805 93.6686C309.105 92.9586 309.495 92.2586 309.965 91.6486C310.455 90.9986 311.045 90.4086 311.675 89.8886C312.575 89.1386 313.545 88.4786 314.485 87.7886C314.535 87.7486 314.605 87.7386 314.675 87.7186C315.965 87.4086 317.255 87.1085 318.545 86.7985C319.025 86.6885 319.495 86.5685 319.975 86.4485C320.005 86.4485 320.035 86.3985 320.065 86.4085C321.395 86.6585 322.725 86.8785 324.035 87.1585C324.455 87.2485 324.835 87.4886 325.235 87.6286C326.405 88.0486 327.525 88.5486 328.395 89.4986C328.885 90.0386 329.445 90.5086 329.925 91.0586C330.395 91.5986 330.855 92.1686 331.225 92.7786C332.445 94.7486 333.075 96.8786 332.715 99.1286L332.705 99.1185ZM320.295 92.3986C320.275 92.4986 320.255 92.5885 320.235 92.6885C318.495 92.3585 317.085 93.1486 315.865 94.1686C315.155 94.7586 314.375 95.6685 314.265 96.5185C313.945 98.9985 313.375 101.579 315.495 103.719C316.285 104.519 317.215 105.159 318.185 105.329C320.375 105.709 322.645 105.859 324.465 104.109C325.335 103.269 326.345 102.509 326.305 101.089C326.305 100.819 326.535 100.539 326.555 100.259C326.595 99.5985 326.605 98.9285 326.555 98.2685C326.535 97.9485 326.285 97.6385 326.295 97.3385C326.395 95.3585 324.885 94.4086 323.625 93.4886C322.725 92.8286 321.405 92.7485 320.265 92.4085L320.295 92.3986Z" fill="black"/>
<path d="M394.935 130.378C395.775 130.378 396.615 130.328 397.445 130.388C398.585 130.478 399.525 131.148 400.555 131.578C402.425 132.358 403.695 133.758 404.955 135.198C405.415 135.718 405.745 136.378 406.065 137.008C406.485 137.828 406.835 138.688 407.195 139.538C407.305 139.798 407.405 140.098 407.405 140.378C407.425 141.988 407.505 143.608 407.375 145.208C407.305 146.048 406.925 146.878 406.575 147.658C406.255 148.388 405.835 149.078 405.375 149.728C404.865 150.438 404.325 151.158 403.685 151.738C402.985 152.378 402.185 152.928 401.355 153.408C400.505 153.908 399.555 154.218 398.695 154.698C396.915 155.698 395.005 155.228 393.145 155.238C391.865 155.238 390.645 154.808 389.565 154.018C389.075 153.658 388.375 153.578 387.875 153.218C386.815 152.458 385.425 151.808 384.895 150.748C384.325 149.618 383.515 148.618 383.055 147.368C382.005 144.548 382.255 141.748 382.705 139.008C382.965 137.398 383.845 135.768 385.225 134.578C385.865 134.028 386.245 132.988 386.945 132.748C388.175 132.328 389.025 131.358 390.305 130.948C391.865 130.448 393.365 130.348 394.925 130.368L394.935 130.378ZM401.165 142.718C401.315 141.048 400.865 139.628 399.705 138.348C398.555 137.078 397.065 136.598 395.535 136.188C394.115 135.808 392.745 136.448 391.555 137.008C389.465 137.988 388.635 140.048 388.355 142.218C388.155 143.788 388.815 145.218 389.595 146.608C390.285 147.838 391.325 148.588 392.555 148.828C393.905 149.088 395.345 148.948 396.745 148.908C398.525 148.858 399.325 147.398 400.365 146.288C401.345 145.238 401.025 143.928 401.165 142.728V142.718Z" fill="black"/>
<path d="M571.135 102.489C571.465 101.119 571.735 99.7487 572.155 98.4287C572.485 97.3687 573.025 96.3887 573.405 95.3387C573.715 94.4987 573.875 93.5987 574.185 92.7587C574.655 91.4687 574.725 90.0487 575.515 88.8587C575.775 88.4687 575.425 87.7487 576.215 87.5887C576.735 87.4787 577.215 87.1587 577.725 87.1187C578.865 87.0487 580.005 87.1187 581.145 87.0887C581.825 87.0687 582.125 87.4587 582.055 87.9987C581.975 88.6487 581.705 89.2787 581.495 89.9087C581.225 90.7087 580.785 91.4687 580.675 92.2887C580.505 93.5987 579.875 94.6587 579.295 95.7887C578.835 96.6787 578.775 97.7687 578.485 98.7487C578.245 99.5587 577.905 100.339 577.625 101.139C577.175 102.409 576.745 103.679 576.295 104.939C576.065 105.569 575.815 106.199 575.555 106.819C574.915 108.389 574.285 109.959 573.635 111.519C573.125 112.739 572.735 114.039 572.035 115.139C571.035 116.699 570.045 118.359 568.135 119.069C567.705 119.229 567.315 119.539 566.965 119.839C566.215 120.489 565.315 120.389 564.425 120.489C563.815 120.549 563.215 120.759 562.615 120.909C561.915 121.089 561.355 120.919 561.325 120.129C561.275 118.389 561.305 116.649 561.305 114.829C561.805 114.799 562.165 114.759 562.525 114.759C564.795 114.719 566.665 113.089 567.175 110.869C567.415 109.819 567.095 109.059 566.585 108.219C566.155 107.499 565.925 106.659 565.615 105.859C565.305 105.039 565.045 104.209 564.685 103.409C564.325 102.599 563.865 101.839 563.485 101.039C563.025 100.069 562.585 99.0887 562.165 98.0987C561.865 97.3887 561.655 96.6487 561.355 95.9387C560.665 94.2987 559.965 92.6687 559.245 91.0387C558.815 90.0687 558.315 89.1387 557.905 88.1687C557.845 88.0387 558.045 87.6487 558.195 87.5887C558.775 87.3787 559.375 87.1687 559.975 87.1287C561.005 87.0587 562.055 87.0587 563.095 87.1287C563.995 87.1887 564.585 87.5287 565.005 88.5387C565.605 89.9787 565.725 91.6587 566.895 92.8487C566.955 92.9087 566.955 93.0387 566.985 93.1287C567.275 94.1787 567.505 95.2587 567.875 96.2887C568.145 97.0287 568.675 97.6787 568.965 98.4187C569.345 99.4187 569.665 100.449 569.875 101.489C570.025 102.259 570.295 102.659 571.115 102.499L571.135 102.489Z" fill="black"/>
<path d="M287.825 131.209C289.445 130.159 291.185 130.639 292.855 130.639C293.455 130.639 294.085 131.079 294.085 131.989C294.055 139.199 294.065 146.409 294.085 153.629C294.085 154.139 294.085 154.629 293.425 154.639C291.595 154.659 289.765 154.639 287.885 154.639C287.855 153.859 287.825 153.199 287.785 152.269C287.245 152.699 286.875 152.999 286.485 153.289C285.915 153.719 285.395 154.299 284.745 154.539C283.755 154.909 282.695 155.109 281.645 155.259C280.925 155.369 280.175 155.279 279.435 155.269C278.235 155.259 277.215 154.839 276.305 154.029C275.885 153.649 275.235 153.529 274.805 153.159C273.215 151.789 272.355 150.129 272.005 147.939C271.155 142.669 271.835 137.409 271.575 132.149C271.525 131.099 272.055 130.579 273.095 130.569C274.065 130.559 275.045 130.509 276.015 130.589C276.615 130.639 277.185 130.929 277.795 131.109C277.795 135.589 277.835 139.979 277.775 144.369C277.755 145.969 278.345 147.259 279.355 148.419C279.435 148.519 279.495 148.699 279.595 148.709C280.925 148.959 282.165 150.059 283.555 149.509C285.045 148.919 286.415 148.309 287.235 146.509C287.985 144.849 287.775 143.299 287.815 141.709C287.905 138.219 287.845 134.739 287.845 131.189L287.825 131.209Z" fill="black"/>
<path d="M487.975 131.229V132.429C489.015 133.009 489.415 131.989 489.965 131.609C490.825 131.009 491.675 130.429 492.725 130.379C494.195 130.309 495.675 130.309 497.145 130.379C498.575 130.439 499.785 131.199 500.755 132.139C501.795 133.129 502.615 134.349 503.525 135.479C503.565 135.529 503.575 135.599 503.585 135.669C503.795 137.069 504.165 138.469 504.185 139.869C504.265 144.469 504.205 149.059 504.235 153.659C504.235 154.339 504.025 154.669 503.355 154.679C501.615 154.679 499.875 154.679 498.005 154.679C497.985 154.239 497.945 153.859 497.945 153.469C497.945 149.209 497.945 144.949 497.945 140.689C497.945 139.249 497.325 138.039 496.415 137.019C496.025 136.579 495.315 136.289 494.715 136.199C492.295 135.829 490.125 136.069 488.575 138.719C488.065 139.589 487.965 140.339 487.955 141.189C487.925 145.279 487.935 149.379 487.935 153.469C487.935 153.829 487.935 154.189 487.935 154.659C485.985 154.659 484.155 154.659 482.325 154.659C481.555 154.659 481.645 154.099 481.645 153.589C481.645 148.289 481.645 142.989 481.645 137.689C481.645 135.809 481.695 133.929 481.625 132.049C481.585 131.059 482.285 130.649 482.915 130.649C484.575 130.649 486.325 130.169 487.975 131.249V131.229Z" fill="black"/>
<path d="M337.025 111.159V87.6986C338.575 86.6386 340.385 87.1486 342.095 87.1686C342.655 87.1686 343.525 87.5886 343.335 88.6086C343.315 88.7386 343.465 88.9686 343.605 89.0486C343.695 89.0986 343.945 89.0186 344.035 88.9186C345.365 87.4886 347.135 87.1386 348.945 86.7086C350.415 86.3586 351.775 86.6886 353.055 87.0286C354.555 87.4286 355.885 88.2586 357.025 89.5586C357.875 90.5286 358.165 91.6786 358.845 92.6586C359.035 92.9286 359.025 93.3686 359.025 93.7286C359.065 99.2286 359.085 104.729 359.135 110.229C359.135 110.889 358.945 111.189 358.215 111.159C356.615 111.109 355.015 111.139 353.315 111.139C353.285 110.549 353.235 110.049 353.235 109.559C353.235 105.529 353.335 101.509 353.185 97.4886C353.115 95.6986 352.695 94.0386 350.955 92.8886C350.725 92.7386 350.405 92.6586 350.115 92.6486C349.045 92.6186 347.965 92.5986 346.895 92.6286C345.635 92.6686 344.575 93.8086 343.955 94.8386C342.995 96.4286 343.355 98.0686 343.315 99.6886C343.245 103.109 343.275 106.529 343.315 109.949C343.325 110.829 343.005 111.159 342.155 111.139C340.485 111.109 338.805 111.139 337.005 111.139L337.025 111.159Z" fill="black"/>
<path d="M417.585 132.339C418.595 132.999 418.985 131.969 419.615 131.689C420.535 131.289 421.395 130.569 422.345 130.449C423.925 130.239 425.555 130.369 427.165 130.389C427.725 130.389 428.985 131.129 429.675 131.659C430.005 131.919 430.525 131.949 430.805 132.239C431.395 132.869 431.865 133.599 432.405 134.279C433.755 135.989 433.855 137.999 433.845 140.059C433.825 144.549 433.845 149.049 433.845 153.539C433.845 153.869 433.845 154.199 433.845 154.629C431.885 154.629 430.015 154.649 428.155 154.629C427.465 154.629 427.535 154.079 427.535 153.599C427.535 149.639 427.535 145.689 427.535 141.729C427.535 140.959 427.495 140.189 427.435 139.419C427.295 137.779 425.775 136.279 424.135 136.119C422.665 135.979 421.195 135.989 419.955 136.849C419.285 137.309 418.595 137.969 418.315 138.699C417.885 139.819 417.615 141.069 417.585 142.269C417.495 146.059 417.525 149.849 417.575 153.639C417.585 154.499 417.305 154.739 416.485 154.699C415.215 154.639 413.935 154.629 412.665 154.699C411.825 154.749 411.655 154.409 411.665 153.649C411.685 146.439 411.675 139.229 411.675 132.019C411.675 130.749 411.845 130.599 413.145 130.589C414.015 130.589 414.885 130.589 415.765 130.589C417.475 130.589 417.505 130.619 417.585 132.339Z" fill="black"/>
<path d="M555.135 132.368C556.205 133.018 556.475 131.858 557.135 131.598C558.045 131.248 558.875 130.568 559.795 130.438C561.245 130.228 562.735 130.318 564.215 130.358C565.655 130.398 566.705 131.358 567.885 132.028C569.095 132.708 569.615 133.868 570.285 134.918C570.775 135.688 571.225 136.648 571.245 137.528C571.345 143.128 571.305 148.728 571.315 154.328C571.315 154.388 571.275 154.448 571.215 154.628C569.395 154.628 567.535 154.648 565.665 154.628C564.985 154.628 565.045 154.078 565.045 153.598C565.045 149.638 565.045 145.678 565.045 141.718C565.045 140.978 565.015 140.238 564.945 139.508C564.805 137.798 563.225 136.268 561.515 136.108C560.045 135.978 558.575 136.008 557.335 136.858C556.695 137.298 556.045 137.988 555.805 138.698C555.385 139.928 555.115 141.268 555.085 142.568C554.995 146.258 555.035 149.948 555.065 153.638C555.065 154.408 554.885 154.728 554.055 154.688C552.715 154.628 551.375 154.638 550.035 154.688C549.325 154.708 549.115 154.438 549.115 153.748C549.135 146.468 549.125 139.188 549.115 131.908C549.115 131.018 549.425 130.518 550.415 130.568C551.285 130.618 552.155 130.578 553.035 130.578C554.288 130.578 554.988 131.175 555.135 132.368Z" fill="black"/>
<path d="M430.995 111.109H424.555V84.0688H415.315V79.9088C415.315 78.3488 416.082 77.5688 417.615 77.5688C424.555 77.5688 431.505 77.5688 438.445 77.5688C439.005 77.5688 439.565 77.6488 440.195 77.6888C440.195 79.5888 440.195 81.3888 440.195 83.1988C440.195 83.9888 439.575 83.9688 439.045 83.9688C436.835 83.9788 434.615 83.9688 432.405 83.9688C431.975 83.9688 431.555 83.9688 431.005 83.9688V111.079L430.995 111.109Z" fill="black"/>
<path d="M321.305 136.569C320.145 137.239 319.095 137.799 318.095 138.439C316.655 139.359 315.935 139.209 314.825 137.969C314.335 137.419 313.545 136.929 312.835 136.829C311.455 136.649 310.015 136.629 308.625 136.799C307.315 136.959 306.215 137.729 305.565 138.929C305.115 139.749 304.625 140.599 304.455 141.489C304.285 142.329 304.405 143.259 304.585 144.109C304.765 144.929 305.025 145.839 305.545 146.449C306.605 147.679 307.665 149.049 309.605 148.919C310.435 148.859 311.285 148.919 312.115 148.889C313.565 148.839 314.625 148.059 315.545 146.999C315.835 146.659 316.215 146.399 316.555 146.099C317.725 146.819 318.825 147.579 320.005 148.189C321.505 148.959 321.685 149.739 320.435 150.909C319.845 151.459 319.205 151.959 318.575 152.469C318.005 152.929 317.465 153.449 316.825 153.789C316.105 154.169 315.235 154.279 314.545 154.699C312.925 155.669 311.185 155.189 309.505 155.269C308.015 155.329 306.635 154.899 305.405 153.999C305.015 153.709 304.465 153.649 304.075 153.369C302.995 152.599 301.925 151.819 300.935 150.949C300.485 150.549 300.225 149.939 299.905 149.399C299.475 148.659 299.065 147.909 298.675 147.149C298.575 146.949 298.495 146.709 298.495 146.479C298.485 144.039 298.395 141.589 298.535 139.149C298.585 138.359 299.215 137.589 299.615 136.829C299.905 136.279 300.185 135.699 300.585 135.229C301.495 134.149 302.285 132.939 303.705 132.369C304.205 132.169 304.575 131.669 305.005 131.299C305.055 131.259 305.105 131.199 305.155 131.189C306.215 130.909 307.255 130.509 308.335 130.399C309.665 130.249 311.015 130.339 312.355 130.329C314.365 130.309 316.085 131.139 317.615 132.339C318.835 133.289 319.965 134.359 321.075 135.439C321.305 135.659 321.225 136.189 321.295 136.569H321.305Z" fill="black"/>
<path d="M287.775 93.2687C287.775 93.8487 287.775 94.2787 287.775 94.7087C287.775 97.5887 287.775 100.479 287.795 103.359C287.805 104.889 288.305 105.359 289.855 105.429C290.555 105.459 291.265 105.489 291.965 105.439C292.685 105.389 292.915 105.709 292.905 106.369C292.885 107.709 292.875 109.049 292.905 110.389C292.915 111.009 292.655 111.199 292.065 111.189C290.655 111.159 289.245 111.159 287.845 111.189C286.035 111.229 284.675 110.489 283.405 109.199C282.645 108.419 282.355 107.559 281.915 106.659C281.245 105.259 281.445 103.879 281.425 102.489C281.375 99.4787 281.405 96.4587 281.405 93.2787C280.355 93.2787 279.365 93.2387 278.375 93.2887C277.465 93.3287 277.115 92.9587 277.165 92.0487C277.215 90.9787 277.185 89.8987 277.185 88.8287C277.185 87.6487 277.675 87.1487 278.885 87.1187C280.571 87.072 281.415 86.1987 281.415 84.4987C281.415 84.0587 281.315 83.5987 281.435 83.1987C281.575 82.7687 281.845 82.2387 282.205 82.0687C282.985 81.6987 283.855 81.5187 284.695 81.2687C285.355 81.0687 286.025 80.8787 286.685 80.6587C287.335 80.4387 287.775 80.7087 287.785 81.4587C287.805 83.0387 287.815 84.6087 287.785 86.1887C287.765 86.8787 287.995 87.1587 288.705 87.1387C289.745 87.0987 290.785 87.0687 291.815 87.1587C292.195 87.1887 292.835 87.5787 292.845 87.8387C292.935 89.6287 292.895 91.4187 292.895 93.2887H287.795L287.775 93.2687Z" fill="black"/>
<path d="M497.225 105.399V111.089C494.995 111.089 492.755 111.399 490.675 110.979C489.265 110.689 487.965 109.649 487.075 108.099C485.825 105.919 485.865 103.679 485.865 101.369C485.865 98.9887 485.835 96.6088 485.875 94.2188C485.885 93.4887 485.685 93.1587 484.915 93.2387C484.345 93.2887 483.775 93.2487 483.205 93.2387C482.245 93.2387 481.765 92.7687 481.755 91.7987C481.735 90.7587 481.755 89.7187 481.755 88.6787C481.755 87.6187 482.265 87.0987 483.305 87.0787C485.855 87.0387 485.855 87.0387 485.865 84.4487C485.865 83.6587 485.605 82.7687 486.475 82.2087C486.555 82.1587 486.595 82.0287 486.675 82.0087C487.715 81.7287 488.765 81.4687 489.805 81.1887C490.535 80.9887 491.255 80.7587 492.195 80.4688C492.195 82.3288 492.195 83.9987 492.195 85.6587C492.195 86.6121 492.675 87.0887 493.635 87.0887C494.505 87.0887 495.385 87.1087 496.255 87.0787C496.945 87.0487 497.275 87.3787 497.285 88.0187C497.305 89.4987 497.285 90.9687 497.285 92.4487C497.285 93.0087 497.075 93.2887 496.445 93.2687C495.305 93.2187 494.165 93.2687 493.025 93.2487C492.435 93.2387 492.185 93.4087 492.185 94.0487C492.215 97.1987 492.185 100.359 492.215 103.509C492.215 104.729 492.805 105.319 494.065 105.389C495.065 105.439 496.075 105.399 497.215 105.399H497.225Z" fill="black"/>
<path d="M351.875 136.779C351.875 134.909 351.805 133.169 351.935 131.439C351.955 131.129 352.735 130.709 353.215 130.629C353.835 130.529 354.505 130.709 355.445 130.789C356.125 130.579 356.225 129.819 356.145 128.919C356.085 128.289 356.135 127.649 356.135 127.009C356.135 126.059 356.635 125.619 357.585 125.409C358.945 125.099 360.275 124.669 361.775 124.249C361.825 124.479 361.965 124.869 361.975 125.259C362.005 126.329 361.985 127.409 361.975 128.479C361.975 129.429 361.735 130.459 363.075 130.859C364.345 130.489 365.735 130.279 367.105 130.929C367.315 131.029 367.555 131.349 367.565 131.569C367.605 133.239 367.585 134.919 367.585 136.769C366.235 136.769 364.945 136.769 363.655 136.769C362.025 136.769 361.975 136.829 361.975 138.479C361.975 141.029 361.975 143.579 361.975 146.129C361.975 147.859 362.975 148.889 364.715 148.949C365.415 148.979 366.125 148.909 366.825 148.989C367.085 149.019 367.515 149.349 367.525 149.549C367.585 151.209 367.555 152.879 367.555 154.469C366.575 154.709 365.685 155.069 364.795 155.109C363.995 155.149 363.185 154.729 362.375 154.709C360.655 154.679 359.285 153.819 357.955 152.929C357.435 152.579 357.145 151.799 356.905 151.149C355.355 146.979 356.445 142.639 356.155 138.379C356.045 136.759 356.145 136.759 354.485 136.759C353.655 136.759 352.825 136.759 351.875 136.759V136.779Z" fill="black"/>
<path d="M437.975 182.238C437.975 181.538 437.945 180.848 437.975 180.148C438.015 179.338 438.355 178.878 439.285 178.888C440.225 178.898 440.315 179.478 440.305 180.148C440.295 187.158 440.255 194.168 440.255 201.168C440.255 202.248 439.525 202.958 439.105 203.838C438.685 204.708 438.225 205.458 437.405 205.988C436.795 206.378 436.265 206.878 435.655 207.268C435.205 207.548 434.705 207.808 434.195 207.908C432.695 208.208 431.145 208.718 429.665 208.598C427.765 208.438 425.845 207.898 424.045 207.228C422.455 206.628 422.025 205.898 420.475 203.448C420.995 203.108 421.485 202.698 422.045 202.438C422.965 202.008 423.365 202.908 423.795 203.368C424.725 204.368 425.645 205.048 427.095 205.318C428.455 205.568 429.815 206.018 431.175 205.768C433.365 205.368 435.435 204.788 436.735 202.578C437.835 200.728 437.975 198.828 437.975 196.838C436.955 196.208 436.595 197.188 436.205 197.608C434.635 199.268 432.875 200.358 430.505 200.238C429.465 200.188 428.425 200.218 427.385 200.188C426.235 200.158 425.275 199.708 424.405 198.928C423.715 198.308 422.715 197.988 422.135 197.308C421.465 196.528 420.445 196.048 420.195 194.848C420.005 193.888 419.405 192.998 419.025 192.068C418.925 191.828 418.915 191.548 418.905 191.278C418.885 190.268 418.835 189.268 418.895 188.258C418.975 186.898 419.595 185.698 420.095 184.448C420.745 182.818 421.935 181.728 423.215 180.708C423.845 180.208 424.675 179.958 425.345 179.488C426.965 178.348 428.785 178.938 430.525 178.788C433.215 178.558 435.015 180.108 436.735 181.858C436.995 182.118 437.365 182.268 437.685 182.478C437.775 182.398 437.875 182.318 437.965 182.238H437.975ZM429.675 197.368C430.985 197.178 432.445 197.798 433.615 196.708C434.475 195.908 435.425 195.208 436.255 194.388C436.555 194.098 436.525 193.478 436.815 193.178C437.765 192.218 437.725 190.898 437.895 189.768C438.055 188.668 437.545 187.478 437.325 186.328C437.315 186.268 437.285 186.198 437.245 186.148C436.555 185.238 435.975 184.228 435.155 183.448C434.175 182.528 433.145 181.558 431.605 181.608C430.165 181.648 428.725 181.628 427.285 181.658C426.965 181.658 426.575 181.708 426.325 181.878C425.525 182.458 424.755 183.078 424.005 183.728C422.905 184.688 422.105 185.948 421.825 187.298C421.535 188.678 421.655 190.178 421.795 191.598C421.875 192.358 422.265 193.168 422.735 193.768C423.505 194.748 424.395 195.658 425.365 196.448C425.985 196.948 426.675 197.518 427.645 197.368C428.305 197.268 428.985 197.348 429.655 197.348L429.675 197.368Z" fill="black"/>
<path d="M347.105 181.578C348.335 180.638 349.445 179.768 350.585 178.938C350.755 178.818 351.035 178.838 351.265 178.828C352.405 178.808 353.545 178.788 354.685 178.788C356.255 178.788 357.395 179.538 358.415 180.718C358.765 181.118 359.075 182.088 359.985 181.638C360.355 181.458 360.715 181.168 360.965 180.848C362.185 179.238 363.825 178.648 365.785 178.768C366.115 178.788 366.465 178.818 366.795 178.768C369.175 178.388 370.775 179.858 372.345 181.228C372.885 181.698 373.105 182.608 373.315 183.358C374.755 188.478 373.645 193.708 373.975 198.878C374.035 199.778 373.165 199.978 372.545 200.008C371.865 200.048 371.175 199.788 371.175 198.828C371.175 194.498 371.185 190.168 371.155 185.848C371.145 184.368 370.345 183.318 369.265 182.308C367.945 181.078 366.465 181.738 365.065 181.588C363.525 181.428 362.685 182.438 361.855 183.508C360.825 184.848 360.515 186.378 360.525 188.018C360.525 191.538 360.525 195.068 360.525 198.588C360.525 199.838 360.335 200.058 359.295 200.068C358.245 200.068 357.705 199.558 357.705 198.538C357.685 194.278 357.645 190.018 357.665 185.758C357.675 183.958 356.545 182.878 355.425 181.768C355.295 181.638 354.985 181.648 354.755 181.638C353.785 181.608 352.805 181.678 351.845 181.578C350.265 181.408 349.315 182.418 348.465 183.418C347.435 184.628 347.065 186.188 347.035 187.738C346.965 191.328 347.005 194.918 347.005 198.508C347.005 199.838 346.805 200.078 345.765 200.078C344.845 200.078 344.265 199.438 344.265 198.398C344.265 192.458 344.265 186.518 344.265 180.578C344.265 179.668 344.905 178.978 345.685 178.908C346.615 178.828 346.955 179.298 346.995 180.138C347.015 180.618 347.065 181.088 347.105 181.588V181.578Z" fill="black"/>
<path d="M400.275 111.089H394.045V76.3486H400.275V111.089Z" fill="black"/>
<path d="M549.155 111.159C547.305 111.159 545.595 111.169 543.885 111.159C543.155 111.159 542.945 110.689 542.955 110.009C542.975 107.959 542.955 105.919 542.955 103.869C542.955 98.7987 542.955 93.7387 542.955 88.6687C542.955 87.7687 543.535 87.1287 544.445 87.1087C545.555 87.0787 546.665 87.0787 547.765 87.1087C548.775 87.1387 549.215 87.6487 549.225 88.6587C549.225 89.1287 549.245 89.5987 549.295 90.0587C549.305 90.1887 549.455 90.3687 549.565 90.3987C549.655 90.4187 549.865 90.2887 549.915 90.1687C550.375 89.0287 551.315 88.2587 552.305 87.7887C553.495 87.2187 554.875 87.0287 556.385 86.6187C556.385 88.9787 556.385 91.0087 556.365 93.0387C556.365 93.1787 556.155 93.3987 556.005 93.4387C555.155 93.6687 554.255 93.7587 553.445 94.0687C552.025 94.5987 550.755 95.2587 549.885 96.7187C549.205 97.8487 549.255 98.9287 549.245 100.069C549.205 103.259 549.245 106.439 549.225 109.629C549.225 110.089 549.185 110.549 549.155 111.159Z" fill="black"/>
<path d="M487.965 191.039C482.175 191.039 476.415 191.039 470.665 191.039C470.555 191.039 470.455 191.179 470.415 191.199C470.585 191.929 470.615 192.669 470.925 193.239C471.505 194.289 471.905 195.529 473.255 195.979C473.645 196.109 474.095 196.379 474.285 196.719C474.685 197.449 475.335 197.309 475.925 197.329C477.365 197.379 478.815 197.239 480.245 197.399C481.845 197.569 482.725 196.509 483.755 195.679C484.095 195.409 484.285 194.909 484.655 194.719C484.985 194.549 485.465 194.659 485.865 194.679C485.945 194.679 485.985 194.919 486.095 194.989C486.545 195.269 487.615 195.019 487.155 196.069C486.935 196.559 486.445 196.959 486.015 197.329C485.225 198.009 484.435 198.729 483.555 199.279C482.895 199.689 482.095 200.069 481.335 200.109C479.335 200.219 477.315 200.239 475.315 200.109C474.475 200.049 473.605 199.669 472.935 198.959C472.555 198.559 471.865 198.449 471.425 198.079C470.295 197.129 469.335 196.109 468.635 194.699C467.545 192.509 467.115 190.299 467.425 187.949C467.555 186.939 468.055 185.979 468.445 185.009C468.685 184.419 469.165 183.899 469.315 183.289C469.585 182.219 470.475 181.679 471.175 181.069C472.195 180.189 473.465 179.599 474.645 178.909C474.825 178.799 475.105 178.839 475.335 178.839C476.775 178.819 478.225 178.869 479.655 178.779C481.465 178.669 482.895 179.579 484.155 180.589C485.315 181.519 486.295 182.749 487.135 183.989C487.625 184.719 487.835 185.729 487.915 186.629C488.045 188.009 487.945 189.409 487.945 191.029L487.965 191.039ZM470.215 187.969H485.685C485.455 187.579 485.205 187.359 485.215 187.149C485.275 185.889 484.625 185.049 483.845 184.129C482.545 182.609 481.195 181.379 479.025 181.569C478.725 181.599 478.425 181.549 478.125 181.549C476.355 181.569 474.565 181.459 473.225 182.999C472.825 183.459 472.055 183.659 471.795 184.159C471.175 185.329 470.765 186.599 470.225 187.959L470.215 187.969Z" fill="black"/>
<path d="M238.105 191.079C238.655 192.949 239.205 194.539 240.635 195.619C241.805 196.499 242.845 197.599 244.565 197.419C245.925 197.279 247.315 197.329 248.685 197.379C249.655 197.409 250.255 196.879 250.885 196.259C251.515 195.649 252.205 195.089 252.945 194.619C253.165 194.479 253.645 194.629 253.965 194.769C254.315 194.909 254.605 195.189 254.995 195.449C255.315 196.379 254.495 196.829 253.915 197.349C253.105 198.069 252.265 198.779 251.345 199.349C250.675 199.759 249.875 200.099 249.105 200.139C247.165 200.249 245.205 200.289 243.285 200.109C242.405 200.029 241.555 199.399 240.735 198.929C239.915 198.459 239.135 197.899 238.375 197.329C238.045 197.089 237.705 196.789 237.505 196.429C237.105 195.719 236.755 194.979 236.465 194.219C236.025 193.089 235.535 191.959 235.275 190.789C235.085 189.969 235.185 189.069 235.265 188.209C235.315 187.669 235.585 187.159 235.725 186.629C236.005 185.579 236.335 184.559 237.045 183.689C237.355 183.309 237.595 182.849 237.805 182.399C238.325 181.279 239.475 180.889 240.345 180.199C242.945 178.129 246.035 178.679 248.945 178.959C250.005 179.059 251.385 179.549 252.195 180.709C252.655 181.369 253.465 181.789 253.875 182.459C254.635 183.679 255.705 184.739 255.825 186.329C255.905 187.359 256.295 188.369 256.365 189.409C256.465 190.909 256.395 190.919 254.905 190.919C249.775 190.919 244.645 190.919 239.515 190.919C239.075 190.919 238.625 191.019 238.115 191.079H238.105ZM238.015 187.959H253.565C253.535 187.589 253.615 187.239 253.475 186.999C252.795 185.779 252.185 184.479 251.305 183.419C250.475 182.419 249.345 181.639 247.915 181.609C246.915 181.589 245.905 181.559 244.905 181.579C243.825 181.599 242.715 181.519 241.845 182.389C241.595 182.639 241.275 182.819 241.015 183.069C240.455 183.619 239.775 184.119 239.395 184.779C238.835 185.729 238.495 186.799 238.015 187.949V187.959Z" fill="black"/>
<path d="M472.435 90.5686C473.535 89.5986 474.365 88.8286 475.235 88.1186C475.515 87.8886 475.895 87.7386 476.245 87.6286C477.035 87.3586 477.825 87.0486 478.635 86.9186C479.845 86.7286 480.035 86.9586 480.035 88.1586C480.035 89.5986 480.065 91.0386 480.015 92.4786C480.005 92.7886 479.725 93.2586 479.465 93.3386C478.545 93.6486 477.535 93.7286 476.635 94.0686C475.825 94.3786 475.115 94.9386 474.345 95.3486C473.435 95.8286 473.235 96.6186 472.975 97.5586C471.895 101.489 472.715 105.469 472.445 109.419C472.415 109.819 472.425 110.219 472.385 110.619C472.375 110.779 472.295 110.929 472.245 111.109H466.625C466.605 110.679 466.565 110.289 466.565 109.899C466.565 102.759 466.565 95.6186 466.565 88.4786C466.565 87.2086 466.685 87.0986 467.925 87.0886C469.035 87.0886 470.135 87.1286 471.245 87.0786C472.145 87.0386 472.435 87.5186 472.445 88.2986C472.455 88.9786 472.445 89.6586 472.445 90.5586L472.435 90.5686Z" fill="black"/>
<path d="M327.615 182.639C327.675 181.759 327.725 181.139 327.745 180.529C327.765 179.729 328.505 178.909 329.225 178.919C330.065 178.929 330.545 179.509 330.545 180.519C330.545 186.549 330.545 192.589 330.545 198.619C330.545 199.379 330.605 200.139 329.455 200.089C328.425 200.039 327.755 199.479 327.745 198.529C327.745 198.059 327.775 197.579 327.695 197.129C327.675 197.009 327.195 196.809 327.125 196.869C326.575 197.349 326.115 197.919 325.565 198.389C324.465 199.319 323.285 200.159 321.755 200.199C320.645 200.229 319.545 200.199 318.435 200.239C316.955 200.289 315.755 199.619 314.455 198.999C312.855 198.239 312.005 196.779 310.715 195.749C310.275 195.399 310.165 194.629 309.885 194.069C308.775 191.859 309.095 189.479 309.235 187.169C309.295 186.209 309.955 185.299 310.295 184.349C310.625 183.439 311.265 182.789 311.915 182.109C312.975 181.009 314.075 180.099 315.525 179.429C317.835 178.359 320.155 178.829 322.455 178.939C323.495 178.989 324.565 179.839 325.505 180.489C326.215 180.979 326.745 181.739 327.605 182.649L327.615 182.639ZM319.835 197.389C321.135 197.129 322.605 197.859 323.765 196.679C324.335 196.099 325.085 195.709 325.685 195.149C326.125 194.739 326.515 194.229 326.815 193.709C327.265 192.939 327.845 192.229 327.725 191.199C327.615 190.279 327.575 189.299 327.755 188.389C328.125 186.529 326.905 185.139 325.985 184.079C324.765 182.689 323.135 181.199 320.845 181.549C320.385 181.619 319.905 181.559 319.435 181.529C317.575 181.409 315.885 181.839 314.535 183.169C313.085 184.599 311.815 186.139 311.935 188.379C311.995 189.449 311.825 190.549 312.035 191.589C312.225 192.539 312.675 193.489 313.215 194.309C313.715 195.079 314.485 195.649 315.265 196.219C316.265 196.939 317.175 197.479 318.425 197.389C318.895 197.349 319.365 197.389 319.835 197.389Z" fill="black"/>
<path d="M391.675 171.088C391.725 171.538 391.805 171.958 391.805 172.388C391.805 175.008 391.795 177.618 391.815 180.238C391.815 180.698 391.995 181.158 392.095 181.618C392.455 181.348 392.895 181.148 393.165 180.808C394.305 179.328 395.815 178.728 397.645 178.778C398.515 178.798 399.385 178.788 400.265 178.778C401.805 178.778 403.005 179.518 404.065 180.528C404.725 181.158 405.485 181.778 405.885 182.558C406.345 183.478 406.675 184.568 406.705 185.588C406.805 190.018 406.775 194.448 406.765 198.868C406.765 199.748 405.965 199.998 405.325 199.998C404.655 199.998 403.965 199.728 403.965 198.778C403.975 194.818 403.905 190.858 404.005 186.908C404.035 185.578 403.695 184.348 403.075 183.368C402.565 182.558 401.785 181.548 400.465 181.598C399.365 181.638 398.255 181.578 397.145 181.568C395.285 181.548 394.085 182.518 393.095 184.028C392.125 185.508 391.805 187.068 391.815 188.788C391.845 192.038 391.815 195.298 391.815 198.548C391.815 199.488 391.275 200.058 390.395 200.048C389.595 200.038 388.975 199.368 388.975 198.538C388.975 189.988 388.975 181.428 388.975 172.878C388.975 171.058 389.075 170.958 390.925 171.008C391.155 171.008 391.385 171.048 391.695 171.078L391.675 171.088Z" fill="black"/>
<path d="M446.045 171.139C448.495 170.749 448.715 170.939 448.715 173.249C448.715 175.729 448.715 178.209 448.725 180.699C448.725 181.009 448.875 181.309 448.955 181.609C449.165 181.429 449.385 181.269 449.575 181.079C451.065 179.689 452.635 178.539 454.855 178.769C455.655 178.849 456.465 178.779 457.265 178.799C459.155 178.849 460.535 179.879 461.645 181.259C463.215 183.209 463.885 185.439 463.785 187.989C463.645 191.539 463.755 195.099 463.755 198.649C463.755 199.419 463.135 200.029 462.345 200.059C461.555 200.089 460.955 199.479 460.955 198.649C460.955 194.589 461.045 190.529 460.905 186.479C460.835 184.629 460.015 182.939 458.335 181.869C458.095 181.719 457.765 181.659 457.475 181.649C456.335 181.609 455.195 181.629 454.065 181.569C452.035 181.469 450.695 182.699 449.705 184.159C449.095 185.059 448.825 186.339 448.785 187.469C448.665 191.159 448.725 194.849 448.705 198.539C448.705 199.449 448.125 200.089 447.315 200.059C446.435 200.029 445.915 199.469 445.915 198.529C445.915 189.839 445.915 181.159 445.915 172.469C445.915 172.009 445.995 171.549 446.035 171.119L446.045 171.139Z" fill="black"/>
<path d="M371.935 131.209C373.485 130.099 375.275 130.649 376.955 130.659C377.565 130.659 378.225 131.139 378.215 132.179C378.155 139.319 378.185 146.459 378.185 153.599C378.185 154.039 378.345 154.619 377.605 154.629C375.735 154.639 373.875 154.629 371.935 154.629V131.209Z" fill="black"/>
<path d="M507.885 111.099H501.625C501.595 110.549 501.535 110.059 501.535 109.569C501.535 102.599 501.535 95.6187 501.535 88.6487C501.535 87.6987 502.035 87.1487 503.005 87.1187C504.115 87.0887 505.215 87.0887 506.325 87.1187C507.415 87.1487 507.885 87.6787 507.885 88.7587C507.885 95.6987 507.885 102.639 507.885 109.579V111.099Z" fill="black"/>
<path d="M303.455 111.148C301.535 111.148 299.775 111.168 298.005 111.138C297.335 111.128 297.135 110.668 297.145 110.038C297.165 108.368 297.145 106.688 297.145 105.008C297.145 99.5784 297.145 94.1584 297.145 88.7284C297.145 87.7684 297.715 87.1284 298.665 87.1084C299.735 87.0784 300.805 87.0784 301.885 87.1084C303.005 87.1384 303.445 87.6184 303.445 88.7484C303.445 95.6884 303.445 102.618 303.445 109.558C303.445 110.048 303.445 110.548 303.445 111.158L303.455 111.148Z" fill="black"/>
<path d="M515.185 142.879C515.185 146.429 515.155 149.979 515.205 153.529C515.215 154.379 515.015 154.739 514.095 154.689C512.755 154.619 511.415 154.649 510.075 154.679C509.475 154.689 509.245 154.489 509.245 153.869C509.255 146.499 509.245 139.129 509.245 131.759C509.245 130.929 509.625 130.549 510.475 130.569C511.615 130.599 512.755 130.609 513.895 130.569C514.875 130.539 515.185 131.019 515.185 131.919C515.175 135.569 515.185 139.219 515.185 142.869V142.879Z" fill="black"/>
<path d="M280.885 195.428C281.255 195.168 281.615 194.888 282.005 194.658C282.895 194.128 283.155 195.038 283.515 195.448C284.355 196.388 285.085 197.408 286.545 197.378C287.685 197.348 288.825 197.378 289.965 197.378C292.495 197.408 293.525 195.288 292.805 193.338C292.555 192.658 291.685 192.198 291.075 191.658C290.315 190.998 289.305 191.078 288.435 190.788C286.625 190.198 284.575 190.058 283.095 188.708C282.215 187.908 281.195 187.098 281.355 185.628C281.435 184.868 281.425 184.088 281.365 183.318C281.255 181.848 282.345 181.108 283.195 180.268C285.395 178.108 288.195 178.728 290.815 178.908C291.685 178.968 292.605 179.658 293.325 180.268C294.125 180.948 294.725 181.868 295.405 182.678C294.915 183.078 294.575 183.388 294.205 183.648C293.625 184.068 292.745 183.718 292.085 182.828C291.545 182.098 290.935 181.528 289.915 181.588C289.015 181.638 288.095 181.658 287.205 181.538C286.095 181.398 285.385 182.168 284.495 182.528C284.345 182.588 284.245 182.918 284.235 183.128C284.185 183.898 284.165 184.668 284.175 185.428C284.175 186.098 284.285 186.648 285.185 186.738C285.595 186.778 286.105 187.128 286.315 187.488C286.695 188.128 287.265 187.928 287.785 188.078C289.075 188.448 290.325 188.958 291.635 189.288C292.765 189.568 293.715 190.118 294.495 190.908C294.985 191.388 295.445 192.028 295.605 192.678C295.805 193.508 295.645 194.408 295.705 195.278C295.825 196.858 294.825 197.748 293.795 198.718C291.995 200.408 289.805 200.178 287.625 200.228C284.825 200.298 282.775 199.078 281.315 196.748C281.065 196.348 280.825 195.948 280.585 195.538L280.905 195.398L280.885 195.428Z" fill="black"/>
<path d="M234.265 197.309C234.205 198.329 234.685 199.309 233.585 199.839C233.305 199.979 232.965 200.059 232.645 200.059C228.355 200.069 224.055 200.069 219.765 200.059C218.505 200.059 218.005 199.539 218.005 198.279C218.005 189.819 218.005 181.369 218.005 172.909C218.005 170.979 218.005 170.969 219.975 171.009C220.205 171.009 220.435 171.029 220.765 171.049C220.805 171.579 220.865 172.069 220.865 172.559C220.865 180.279 220.865 187.989 220.865 195.709C220.865 197.199 220.955 197.289 222.475 197.289C225.895 197.289 229.315 197.289 232.745 197.289H234.265V197.309Z" fill="black"/>
<path d="M262.115 178.919C262.115 177.499 262.065 176.299 262.145 175.099C262.175 174.709 262.455 174.099 262.745 174.009C263.355 173.829 264.045 173.899 264.695 173.939C264.775 173.939 264.885 174.399 264.885 174.649C264.905 175.759 264.865 176.859 264.905 177.969C264.915 178.409 265.075 178.839 265.145 179.159C266.935 178.979 268.525 178.509 270.125 179.369C271.175 179.929 270.395 180.799 270.755 181.639H265.075C265.005 182.269 264.905 182.759 264.905 183.249C264.895 186.969 264.875 190.689 264.915 194.409C264.925 195.279 264.645 196.309 265.625 196.929C265.865 197.089 266.115 197.329 266.375 197.339C267.375 197.399 268.385 197.379 269.385 197.379C270.025 197.379 270.665 197.289 270.675 198.279C270.695 199.379 270.345 200.129 269.505 200.099C268.125 200.049 266.775 200.339 265.345 199.669C263.385 198.759 262.055 197.399 262.095 194.949C262.165 191.029 262.115 187.109 262.105 183.189C262.105 181.689 262.105 181.689 260.585 181.689C259.745 181.689 258.915 181.669 258.075 181.649C258.015 181.649 257.965 181.589 257.835 181.519C257.955 180.759 257.335 179.809 258.345 179.219C258.665 179.029 259.085 178.949 259.475 178.929C260.305 178.889 261.135 178.919 262.095 178.919H262.115Z" fill="black"/>
<path d="M501.445 178.879V181.569C501.045 181.589 500.755 181.619 500.455 181.629C498.295 181.709 496.725 183.069 495.705 185.039C495.115 186.179 495.125 187.259 495.115 188.389C495.075 191.809 495.105 195.229 495.095 198.649C495.095 199.519 494.555 200.069 493.715 200.079C492.945 200.079 492.305 199.439 492.305 198.659C492.305 192.589 492.305 186.529 492.305 180.459C492.305 179.639 493.005 178.909 493.745 178.929C494.535 178.959 495.095 179.569 495.095 180.409C495.095 180.609 495.065 180.819 495.115 181.009C495.175 181.239 495.305 181.449 495.405 181.659C495.555 181.529 495.715 181.409 495.855 181.269C497.385 179.759 499.055 178.539 501.445 178.879Z" fill="black"/>
<path d="M336.155 189.509C336.155 186.499 336.155 183.479 336.155 180.469C336.155 179.249 336.405 178.929 337.335 178.919C338.245 178.909 338.875 179.569 338.875 180.559C338.875 186.519 338.875 192.479 338.875 198.439C338.875 199.269 338.475 199.869 337.735 200.049C336.595 200.319 336.155 199.889 336.155 198.659C336.155 195.609 336.155 192.569 336.155 189.519V189.509Z" fill="black"/>
<path d="M414.625 189.598C414.625 192.618 414.625 195.628 414.625 198.648C414.625 199.488 413.985 200.098 413.135 200.068C412.425 200.048 411.805 199.418 411.805 198.678C411.805 192.578 411.805 186.478 411.805 180.378C411.805 179.608 412.485 178.898 413.195 178.918C413.985 178.938 414.625 179.558 414.625 180.348C414.625 183.428 414.625 186.518 414.625 189.598Z" fill="black"/>
<path d="M300.295 84.1184C298.225 84.0984 296.265 82.3584 296.405 80.4784C296.455 79.7684 296.845 78.9984 297.295 78.4184C298.105 77.3584 299.105 76.7184 300.615 76.8784C302.455 77.0684 304.205 78.7484 304.185 80.6484C304.165 82.8484 302.705 84.1484 300.295 84.1284V84.1184Z" fill="black"/>
<path d="M504.735 76.7986C505.325 76.9286 506.085 76.8786 506.465 77.2386C507.425 78.1286 508.635 78.9086 508.615 80.4986C508.595 82.4886 506.825 84.0286 504.665 84.1386C502.435 84.2586 500.845 82.3786 500.855 80.5186C500.865 78.5386 502.605 76.8986 504.735 76.7886V76.7986Z" fill="black"/>
<path d="M375.105 120.179C375.895 120.529 376.895 120.689 377.425 121.279C378.105 122.029 378.655 123.079 378.805 124.069C379.055 125.719 376.695 128.049 375.035 127.909C372.835 127.719 371.185 126.449 371.165 124.039C371.155 122.109 372.965 120.409 374.995 120.419C375.035 120.339 375.075 120.259 375.105 120.179Z" fill="black"/>
<path d="M515.805 124.048C516.075 126.398 514.355 127.698 512.305 127.748C510.255 127.788 508.615 126.428 508.535 124.228C508.445 121.768 510.265 120.478 512.095 120.418C514.065 120.358 516.185 121.698 515.815 124.048H515.805Z" fill="black"/>
<path d="M274.735 180.278C275.015 179.248 275.225 178.468 275.445 177.688C275.485 177.528 275.535 177.368 275.565 177.198C275.845 175.458 276.125 173.728 276.405 171.988C276.505 171.378 276.815 171.018 277.465 171.018C278.005 171.018 278.545 170.978 279.065 171.038C279.785 171.128 279.885 171.578 279.665 172.208C279.485 172.688 279.405 173.208 279.225 173.688C278.675 175.138 278.835 176.798 277.935 178.148C277.805 178.348 277.815 178.658 277.785 178.928C277.635 180.258 277.625 180.278 276.245 180.278C275.855 180.278 275.465 180.278 274.745 180.278H274.735Z" fill="black"/>
<path d="M339.705 172.839C339.555 173.059 339.415 173.239 339.295 173.439C339.065 173.799 338.885 174.439 338.605 174.489C337.805 174.609 336.945 174.589 336.155 174.419C335.875 174.359 335.575 173.719 335.555 173.329C335.535 172.789 335.165 172.049 336.055 171.719C336.415 171.589 336.675 171.189 337.035 171.069C337.995 170.769 338.545 171.499 339.135 172.069C339.335 172.269 339.475 172.529 339.715 172.849L339.705 172.839Z" fill="black"/>
<path d="M413.215 174.669C411.855 174.669 411.085 174.119 411.065 173.119C411.045 172.319 412.385 171.029 413.205 171.039C413.995 171.049 415.245 172.269 415.245 173.039C415.255 174.149 414.615 174.669 413.205 174.679L413.215 174.669Z" fill="black"/>
</svg>
